<svg xmlns="http://www.w3.org/2000/svg" viewBox="0 0 280 280"><defs><clipPath id="b"><path d="M0 792h612V0H0v792z"/></clipPath><clipPath id="c"><path d="M0 792h612V0H0v792z"/></clipPath><clipPath id="d"><path d="M96 716h88.3v-62.2H96v62.1z"/></clipPath><clipPath id="e"><path d="M0 792h612V0H0v792z"/></clipPath><clipPath id="f"><path d="M0 792h612V0H0v792z"/></clipPath><clipPath id="g"><path d="M0 792h612V0H0v792z"/></clipPath><clipPath id="h"><path d="M0 792h612V0H0v792z"/></clipPath><clipPath id="i"><path d="M121.2 708.4h45.9v-45.9h-45.9v45.9z"/></clipPath><clipPath id="j"><path d="M0 792h612V0H0v792z"/></clipPath><clipPath id="k"><path d="M40.4 726.2h212.4v-61.8H40.4v61.8z"/></clipPath><clipPath id="l"><path d="M0 792h612V0H0v792z"/></clipPath><clipPath id="m"><path d="M39.5 688.6H239v-73.8H39.5v73.8z"/></clipPath><clipPath id="a"><path d="M0 792h612V0H0v792z"/></clipPath></defs><g clip-path="url(#a)" transform="matrix(1.25 0 0 -1.25 -43.6 916)"><path d="M61.5 609.1c1.8 0 3.5-.4 4.4-1.3.2-1.3-1-3.5-1.8-3.5-1 .4-1.8.6-2.8.6-4.4 0-6.6-4.5-6.6-9 0-2.8 1-4.5 3.2-4.5 2.3 0 4.7 1.6 6 2.8.4-.2.9-1 .9-1.9 0-1-.3-1.8-1.2-2.7a10.9 10.9 0 00-7.9-2.8c-4.3 0-7.3 2.4-7.3 8.1 0 7.5 5 14.2 13 14.2zM75.6 591.7c2.4 0 6.6 4 7.8 12l.2 1a6 6 0 01-2 .4 6 6 0 01-5.2-2.7 13.6 13.6 0 01-2.4-7.7c0-2 .6-3 1.6-3zm-7.7 2.1c0 2.9 1 7.8 4.5 11.4 3.1 3.2 6.9 4 10.3 4 2.2 0 5.3-.8 7.2-1.2-.5-2-1.6-10-2.2-14.7-.2-2-.3-4.7-.2-5.7a18 18 0 00-5.4-.8c-.4 0-.5 2-.4 3.8l.2 2a11.7 11.7 0 00-9.4-5.8c-2.8 0-4.6 2.3-4.6 7zM101.9 609.1c2 0 3.8-.7 4.7-1.6 0-1.3-1.1-3.6-2.8-3-.7.3-1.5.5-2.4.5-1.3 0-2.4-.6-2.4-1.8 0-1 .6-1.6 3.9-3.9 2.3-1.6 3.2-3.1 3.2-5.2 0-3.5-3.3-7.3-9-7.3-2.4 0-4.5.9-5.2 1.8-.8 1.5-.2 4.3.8 3.8 1.2-.6 3.3-1.3 5-1.3 1.6 0 2.6.8 2.6 1.7 0 .8-.7 1.6-3.7 3.6-2.4 1.8-3.2 3.5-3.2 5.4 0 4 3.4 7.3 8.4 7.3zM118.4 609.1c2 0 3.9-.7 4.7-1.6 0-1.3-1-3.6-2.8-3-.7.3-1.4.5-2.4.5-1.3 0-2.4-.6-2.4-1.8 0-1 .7-1.6 4-3.9 2.2-1.6 3.1-3.1 3.1-5.2 0-3.5-3.3-7.3-9-7.3-2.4 0-4.4.9-5.1 1.8-.9 1.5-.2 4.3.7 3.8 1.3-.6 3.4-1.3 5-1.3s2.6.8 2.6 1.7c0 .8-.7 1.6-3.6 3.6-2.5 1.8-3.2 3.5-3.2 5.4 0 4 3.4 7.3 8.4 7.3zM133.5 591.7c2.4 0 6.7 4 7.9 12 0 .4 0 .6.2 1a6 6 0 01-2 .4 6 6 0 01-5.2-2.7 13.6 13.6 0 01-2.4-7.7c0-2 .5-3 1.5-3zm-7.7 2.1c0 2.9 1 7.8 4.6 11.4 3 3.2 6.8 4 10.2 4 2.2 0 5.3-.8 7.2-1.2-.4-2-1.6-10-2.1-14.7-.3-2-.4-4.7-.3-5.7a18 18 0 00-5.3-.8c-.5 0-.6 2-.4 3.8l.2 2a11.7 11.7 0 00-9.5-5.8c-2.8 0-4.6 2.3-4.6 7zM158.7 602.9c2.2 3.5 5 6.2 9.1 6.2 3.4 0 4.5-3.1 3.9-7.6-.3-2.2-1-5.2-1.3-8-.3-2.3-.6-4.4-.5-5.9-1.3-.6-5-.8-5.7-.8-.4 0-.4 2.6 0 5.4l1.6 8.9c.2 1.4.2 3-1.2 3-1.7 0-6-2.8-8-14.4-.2-1-.6-1.5-1.1-1.9-.7-.4-2.3-.8-5.4-.8.6 2.9 1.5 8.9 2.2 13.3.6 4 .8 6.6.7 7.6.8.3 5 1.2 5.5 1.2.6 0 .7-1.5.2-5l-.2-1.2h.2zM183 591.7c2.2 0 6.5 4 7.7 11l.2 1.4c-.6.6-1.4 1-2.7 1-4.8 0-7-5.8-7-10 0-2.2.8-3.4 1.8-3.4zm-3.1-5c-3 0-5 2.8-5 7.5 0 7.8 4.9 15 13 15 1.5 0 2.8-.4 3.6-1 .4 2.3 1.4 9.1 1.5 11.1 1.3.3 4.2.7 5.5.7.5 0 .7-.5.5-1.7-1.2-7.2-3.3-21-3.6-24.1-.3-2.6-.4-5.2-.3-6.6-1.6-.7-4.7-.8-5.5-.8-.3 0-.5 2.2-.4 4.1l.1 1.7c-2.4-4-5.7-5.8-9.3-5.8h-.1zM208 602.2c2.6 5.7 5.6 7 7.6 7 .6 0 1.6-.4 2-1 .2-1.5-1-4.7-2.2-5.9-.6.3-1.3.6-2 .6-1.7 0-5-2.5-7-13.5-.1-.9-.4-1.3-1-1.5-.7-.5-4-.9-5.5-1 .7 4 2 12 2.5 16.7.1 1.2.2 3.4 0 4.3 1 .4 4.6 1.2 5.4 1.2.4 0 .8-2.6 0-6.9h.2zM225 591.7c2.3 0 6.6 4 7.8 12l.2 1a6 6 0 01-2 .4 6 6 0 01-5.2-2.7 13.6 13.6 0 01-2.4-7.7c0-2 .6-3 1.5-3zm-7.8 2.1c0 2.9 1 7.8 4.6 11.4 3 3.2 6.8 4 10.2 4 2.3 0 5.4-.8 7.3-1.2-.5-2-1.7-10-2.2-14.7-.2-2-.3-4.7-.2-5.7a18 18 0 00-5.4-.8c-.4 0-.5 2-.4 3.8l.2 2a11.7 11.7 0 00-9.4-5.8c-2.8 0-4.7 2.3-4.7 7z" fill="#373535"/></g><g clip-path="url(#b)" transform="matrix(1.25 0 0 -1.25 -43.6 916)"><path d="M210.9 690.5c1.6-18.5-27.5-36-64.9-39.2-37.4-3.2-69 9.1-70.6 27.6-1.6 18.4 27.5 36 64.9 39.2 37.4 3.2 69-9.2 70.6-27.6" fill="#bbe6fb"/></g><g clip-path="url(#c)" transform="matrix(1.25 0 0 -1.25 -43.6 916)"><g clip-path="url(#d)" opacity=".4"><path d="M141.4 716c-14.3.2-31-5.5-43.4-10.8-1.3-3.7-2-7.7-2-11.8 0-21.9 19.8-39.6 44.2-39.6 24.3 0 44.1 17.7 44.1 39.6 0 7-2 13.4-5.5 19-9.9 1.6-23.6 3.3-37.4 3.5" fill="#fff"/></g></g><g clip-path="url(#e)" transform="matrix(1.25 0 0 -1.25 -43.6 916)"><path d="M140.2 716c-8 .4-21.6-3.7-33-7.8-1.6-4-2.6-8.5-2.6-13.2 0-19.2 17.4-34.7 35.8-34.7a37.2 37.2 0 0135.8 34.7 30 30 0 01-4.7 17.2c-11.8 2-24.3 3.3-31.3 3.7" fill="#fff"/></g><g clip-path="url(#f)" transform="matrix(1.25 0 0 -1.25 -43.6 916)"><path d="M119.9 697.5c1 2.1 2.4 3.2 3.8 5-.1.4-.5 1.8-.5 2.3a4 4 0 005.4 3.6 28.5 28.5 0 0025.8 4.6c-8.4 1.1-18-1.9-24.5-7 .2-.6.8-1.9.8-2.4 0-2.2-1.4-2.7-3.6-2.7-.4 0-1 0-1.3.2-1.5-2-3.3-5.7-4.2-8 3.6-3.2 6.8-4.4 11-6l.2.6c0 6.5 5.7 11.8 12.2 11.8 5.9 0 10.7-4.2 11.6-9.8 3 1.9 5.7 3.3 7.9 6a7 7 0 00-1 3.2 3.5 3.5 0 004.3 3.5c1 2.2 2 4.6 2.4 7-10.1 7.6-29.8 6.5-29.8 6.5s-15.7.8-26.3-4.3c.7-5.1 2.8-10 5.8-14.1" fill="#373535"/><path d="M168.5 700.4c.7-.6 1.1-1.2 1.4-1.7 1-1.8-1-3.3-2.9-3.3h-.6c-2.2-3.4-6-7.8-9.5-10 5.3-1 10.2-3 14.2-6.3a42 42 0 015 19c0 4.7-2 8.3-5.3 10.9-.1-2.6-1.5-6.2-2.3-8.6M125.8 667.8a30 30 0 0010.1 11.9c-.6.8-1.5 2.8-1.8 3.8-5 1.5-9.4 4.3-12.8 8l-.1-.2c-.7-3-.8-5.8-.5-8.6a5.1 5.1 0 004.2-5c0-1.6-1.3-3.7-2.3-4.6 1.1-2.4 1.9-3.6 3.2-5.3" fill="#373535"/><path d="M125.5 663.7c-2.1 2.1-3.6 6.3-5 8.9l-.7-.1c-2.8 0-5.8 2.4-5.1 5.1.3 1.6 1.4 2.6 3.1 3.4a36 36 0 00.2 11c.3 1 .7 1.3 1 2.2a30.1 30.1 0 00-5.2 16.6v.6c-5.2-2.6-9.2-6.8-9.2-13.4 0-14.5 8.4-28.8 20.8-34.4v.1M156.1 683.9a11.8 11.8 0 00-18.3-5.4 34.6 34.6 0 01-9.8-13.8c.8-.9 1.4-1.6 2.4-2.4 2.9-.8 6.9 0 10 0 12.6 0 23.7 5.5 30 15.3-4.2 3-9.2 5.8-14.3 6.3" fill="#373535"/></g><g clip-path="url(#g)" transform="matrix(1.25 0 0 -1.25 -43.6 916)"><path d="M119.6 695.8c1 2.1 2.1 4.1 3.6 6a4 4 0 005 5 28.5 28.5 0 0025.9 4.5 31.3 31.3 0 01-23.7-6.7l.3-1.5a4 4 0 00-5.3-3.7c-1.4-2-2.6-4-3.5-6.4 3-3.4 6.8-6 11-7.6v.7a11.8 11.8 0 0023.4 2c3 1.8 5.5 4.2 7.6 6.9-.5.6-.8 1.4-.8 2.2a3.5 3.5 0 004.4 3.5c1 2.2 1.9 4.6 2.4 7-10.2 7.6-29.8 6.5-29.8 6.5s-15.7.8-26.3-4.3c.7-5.1 2.8-10 5.8-14.1" fill="#1287b1"/><path d="M169 699.8c.8-.6 1.2-1.5 1.2-2.6a3.5 3.5 0 00-4.1-3.5 28.7 28.7 0 00-8.6-8.6c5.1-.8 9.9-3 13.8-6.2 2.9 5.2 4.5 11.1 4.5 17.4 0 4.8-2 8.4-5.3 11-.2-2.6-.7-5.1-1.5-7.5M126.3 666.6c1.8 4.9 4.8 9.2 8.9 12.5-.6.8-1 1.7-1.5 2.7-5 1.5-9.3 4.3-12.7 8l-.1-.2c-.7-3-.8-5.8-.5-8.6a5.1 5.1 0 002.6-8.8c.9-2 2-3.8 3.3-5.6" fill="#1287b1"/><path d="M125.5 663.8c-2.1 2-3.9 4.5-5.2 7h-.8a5.1 5.1 0 00-2.3 9.8 28.5 28.5 0 001.3 12.4c-3.1 4.6-5 10.1-5 16v.7c-5.3-2.6-9.2-6.8-9.2-13.4 0-14.5 8.7-27 21.1-32.6v.1M155.8 682.2a11.8 11.8 0 00-18.4-5.4 29.2 29.2 0 01-9.1-12.5l2.7-2.6a35.8 35.8 0 0139 15.1 30 30 0 01-14.2 5.4" fill="#1287b1"/></g><g clip-path="url(#h)" transform="matrix(1.25 0 0 -1.25 -43.6 916)"><g clip-path="url(#i)"><path d="M156.2 685.2l10.9 2.6-11 .5 9 6.8-10.1-3.6 6.8 9.5-9.4-6.3 3.3 11.1-6.5-9.1-.2 11.6-4.2-10.4-3.6 10.5.2-12.3-6.2 11 3.4-11.7-10 7.3 7.8-9.9-12.4 4.6 9.8-7.3-12.6-.3 12.9-3.4-12.9-2.7 12.7-1-10.7-6.8 11 4-7.6-9.7 9.6 7.8-3.5-13 7.5 10.6-1-12.5 4.2 11.3 3.6-11.9.9 12 5.3-10.2-3.1 11.6 9.7-7.6-6.3 9.7 10.8-4.2-8.2 8 11-.8-10.9 4.2z" fill="#fff"/></g></g><g clip-path="url(#j)" transform="matrix(1.25 0 0 -1.25 -43.6 916)"><g clip-path="url(#k)" opacity=".4"><path d="M40.4 664.4c33.7 33.7 60.7 44.1 85.1 48.9 3.3.6 3.9 7.7 3.9 7.7s.4-5.2 2.7-6c2.3-.6 5.2 8.2 5.2 8.2s-2.7-7.9 0-8.3c2.7-.5 7.7 7.7 7.7 7.7s-2-7-.7-7.5c1.4-.5 8.2 10.2 8.2 10.2s-4-7-.2-7.7c3.8-.7 9.4 4.8 9.4 4.8s-4.4-5-2.4-5.7c8.4-3 15.1 8 15.1 8s-1.5-4.9-5.6-10c8.8-2.3 15.4 11 15.4 11l-6.6-13.3c3.4-1.8 17 13.8 17 13.8s-7-12.2-11-14.7c2.2-1.8 10.3 5.4 10.3 5.4s-6.5-8.1-4-8.6c3.6-3 17 15.2 17 15.2s-5.3-10.7-13-19c6.5-3.3 22.4 17.4 22.4 17.4s-.4-6.6-12-17c8.7 1.1 19.7 17.4 19.7 17.4s-4-12.2-13.8-20.8c8.5.9 22 21.7 22 21.7s-5.2-14.4-15.9-22.8c11.8-2.6 28.8 15 28.8 15s-6.7-12.5-15.4-17.6c9.7-3.8 23.1 11.6 23.1 11.6s-13.4-20.6-34.6-19.7c-7 .3-28.1 21.2-73.4 19.5C85 707 72.3 681.6 40.4 664.4" fill="#373535"/></g><g><path d="M41.8 667c33.7 33.7 60.7 44 85.1 48.8 3.3.7 3.9 7.7 3.9 7.7s.4-5.2 2.7-5.8c2.3-.7 5.2 8.1 5.2 8.1s-2.7-8 0-8.4c2.7-.4 7.7 7.7 7.7 7.7s-2-7-.7-7.4c1.4-.5 8.2 10.1 8.2 10.1s-4.1-7-.3-7.7c3.9-.6 9.5 4.8 9.5 4.8s-4.4-5-2.4-5.7c8.3-2.9 15.1 8 15.1 8s-1.5-4.8-5.6-10c8.8-2.3 15.4 11 15.4 11L179 715c3.4-1.8 17 13.8 17 13.8s-7-12.2-11.1-14.7c2.3-1.8 10.4 5.5 10.4 5.5s-6.6-8.2-4-8.6c3.6-3 17 15.1 17 15.1s-5.3-10.6-13-19c6.4-3.2 22.4 17.4 22.4 17.4s-.4-6.5-12-17c8.6 1.2 19.7 17.5 19.7 17.5s-4-12.2-13.8-20.8c8.5.8 22 21.7 22 21.7s-5.2-14.5-15.9-22.9c11.8-2.6 28.8 15 28.8 15s-6.7-12.5-15.4-17.6c9.7-3.7 23 11.7 23 11.7s-13.3-20.6-34.6-19.7c-7 .3-28 21.2-73.3 19.5-59.8-2.3-72.5-27.7-104.4-44.9" fill="#373535"/></g></g><g clip-path="url(#l)" transform="matrix(1.25 0 0 -1.25 -43.6 916)"><g clip-path="url(#m)" opacity=".4"><path d="M39.5 660.7c17.9-9 34.2 1.3 54.7-4.5 15.6-4.4 34.7-9.8 60.5-6 25.8 3.7 47.9 14.9 58.4 35 3.3 8.9 16.6-2.1 16.6-2.1s-9.7 4-9.5 2.1c.2-1.9 14.6-8.6 14.6-8.6s-13 4.1-12.2 1c.8-3 16.3-15.2 16.3-15.2s-17.5 13.3-19 11.5c-1.5-1.8 7.5-9.1 7.5-9.1s-14.9 9.1-20 6.4c-3.8-2 15.3-14.5 15.3-14.5s-12.4 9.5-15.4 7 14-22.8 14-22.8-19.2 20.8-21.1 19.8c-2-1 5.3-11 5.3-11s-9.5 10.4-12.1 8.6c-2.6-1.8 13.6-28.9 13.6-28.9s-17.6 27.8-24.8 23.1c11.4-25 7.1-28.5 7.1-28.5s-1.4 25.5-15.6 24.8c-7.1-.3 3.4-19 3.4-19s-9.7 17-16.2 16.7c12-22.5 7.7-31.7 7.7-31.7s2 19.3-14.2 30c6.1-5.5-3.8-30-3.8-30s8.7 36.1-6.5 29.2c-2.4-1-.1-18-.1-18s-3 19.4-7.7 18.4c-2.6-.6-17-26.9-17-26.9s11.8 28.4 8.2 27.2c-2.6-.9-7.5-12.6-7.5-12.6s2.4 11.6 0 12.3c-2.4.7-15.6-12.3-15.6-12.3s9.8 11.6 8.1 14c-2.5 3.6-5.5 3.7-9.1 2.4-5.2-2-12.3-11.6-12.3-11.6s7 9.6 5.8 13.3c-2 5.8-22-11.3-22-11.3s11.8 11.3 9.1 13.6c-2.7 2.4-17.5 1.7-22 1.7-13.6 0-18.4 3.2-22.5 6.5" fill="#373535"/></g><g><path d="M38.8 662.7c17.9-9 34.2 1.4 54.7-4.4 15.6-4.4 34.7-9.8 60.5-6.1 25.8 3.7 47.9 15 58.4 35 3.3 9 16.6-2 16.6-2s-9.7 4-9.5 2c.3-1.8 14.6-8.5 14.6-8.5s-13 4-12.2 1c.8-3 16.3-15.3 16.3-15.3s-17.5 13.4-19 11.6c-1.5-1.8 7.5-9.2 7.5-9.2s-14.9 9.2-20 6.5c-3.8-2 15.3-14.5 15.3-14.5s-12.4 9.5-15.4 7 14-22.9 14-22.9-19.2 20.8-21.1 19.8c-2-1 5.3-11 5.3-11s-9.5 10.5-12 8.6c-2.7-1.8 13.5-28.8 13.5-28.8s-17.6 27.7-24.8 23c11.4-24.9 7.1-28.5 7.1-28.5s-1.4 25.5-15.6 24.8c-7.1-.3 3.4-19 3.4-19s-9.7 17-16.1 16.7c11.9-22.5 7.6-31.6 7.6-31.6s2 19.2-14.2 29.9c6.2-5.4-3.8-30-3.8-30s8.8 36.2-6.4 29.3c-2.4-1.1-.2-18-.2-18s-3 19.3-7.7 18.3c-2.6-.6-17-26.8-17-26.8s11.8 28.3 8.2 27.2c-2.6-1-7.5-12.6-7.5-12.6s2.4 11.5 0 12.2c-2.3.7-15.6-12.2-15.6-12.2s9.9 11.5 8.2 14c-2.6 3.5-5.6 3.7-9.2 2.3-5.2-2-12.2-11.6-12.2-11.6s7 9.7 5.7 13.3c-2 5.8-22-11.2-22-11.2s11.9 11.2 9.1 13.6c-2.7 2.3-17.4 1.6-22 1.6-13.6 0-18.3 3.3-22.5 6.5" fill="#373535"/></g></g></svg>