<svg xmlns="http://www.w3.org/2000/svg" viewBox="0 0 100 100"><path d="M52.1 31.3l-4.9.3C29.7 33 16.1 41.3 16.8 50c.8 8.6 15.6 14.4 33.1 13s31.2-9.8 30.4-18.5c-.6-7.8-12.9-13.3-28.2-13.2zm-4.3 1.3c6.5.1 12.9.9 17.5 1.6a17 17 0 012.6 9c0 10.2-9.3 18.6-20.7 18.6s-20.7-8.4-20.7-18.6c0-2 .3-3.8 1-5.6a54.2 54.2 0 0120.3-5z"/><path d="M46 32.6c-2.2 0-7.3.2-11 2l.1.7-.2.1V35v-.3c-2.3 1.1-4 2.8-4.3 5.4-.2.5-.2 1-.2 1.7 0 6.2 3.3 11.6 8.3 14.5.2 0 .3.2.5.3l1 .5h.1l-.3-.4c-.8-1-1.4-2.7-2-3.8h-.4c-1.2 0-2.6-1-2.4-2.2.2-.6.6-1.2 1.2-1.5l.3-.2c-.1-1.3-.2-3.1 0-4.6l.3-1 .3-.6c-1.4-2-2.3-4.6-2.4-7.2.3 2.3 1.3 4.6 2.6 6.4.5-1 1-1.9 1.7-2.7l.3-.4-.2-1a1.8 1.8 0 012.3-1c2.1-1.6 4.8-2.6 7.5-2.7a16 16 0 00-6.7 3.1l.2.6.1.4c0 1.1-.6 1.3-1.6 1.3h-.7c-.7.9-1.5 2.6-2 3.7l.5.3c1.4 1.5 3 2.6 5 3.3l-.1-.3a5.5 5.5 0 0111-1c1.3-.8 2.5-1.9 3.5-3.2l.3-.3c-.2-.3-.5-1-.5-1.4a1.7 1.7 0 011.9-1c.5-1 .9-2.1 1.1-3.3l.2-.8c-4.8-3.5-14-3-14-3h-1.2zm3.8.8a13.4 13.4 0 01-.6 0h.6zm11.8 2.5l-.2.8v.3l-1 2.9c.2 0 .3.2.3.2l.2.2.1.2.1.2.1.3v.1c0 .6-.7 1.1-1.4 1.1h-.3c-1 1.6-2.8 3.7-4.5 4.7l.4.1a13.4 13.4 0 014.8 1.8h.1v.1a13.6 13.6 0 011.5 1c1-1.8 1.7-4 2-6.2l.3-2.7c0-2.3-1-4-2.5-5.1zM38.3 44v.2l-.1.6v.2c-.4 1.3-.4 2.7-.3 4 1.1.2 2 1.1 2 2.3-.2.5-.6 1.1-1 1.4l.2.4 1.6 2.6c.7-2 1.9-3.8 3.5-5.2l.3-.3.7-.6-.9-1.8c-2.3-.7-4.4-2-6-3.8zm16.4 3.6a5.5 5.5 0 01-8.6 2.5c-2 1.6-3.7 4.2-4.6 6.5l.1.2.4.4.3.2.3.4.3.2a16.8 16.8 0 0018.3-7v-.1l.2-.4c-2-1.3-4.3-2.6-6.7-2.9z" fill="#373535"/><path d="M73.4 26.6s-6.4 7.3-8 6.5l3-6c-.7 1.1-3.4 5.7-7 5l1.2-2V30c1-1.6 1.3-2.7 1.3-2.7s-3.2 5.1-7.1 3.7c-.2 0-.3-.2-.2-.5l.7-1-.5.6c.3-.8 1.1-1.7 1.1-1.7s-2.6 2.5-4.4 2.2c-1.8-.3.1-3.6.1-3.6s-3.2 5-3.8 4.8c-.6-.2.3-3.5.3-3.5l-3.6 3.6c-1.3-.2 0-4 0-4l-1 2.4.4-1.1L45 31c-.3.6-.7.9-1 .8-1.1-.3-1.3-2.8-1.3-2.8s-.1 1.2-.5 2.2l-.2-1s0 1-.4 2c-.2.2-.4.4-.7.4a73.2 73.2 0 00-40 23l1.4-.8-2 2c15-8.1 21-20 49-21 21.2-.9 31 9 34.4 9 10 .5 16.2-9.2 16.2-9.2s-.9 1-2.2 2.2c1.8-1.8 2.9-3.4 2.9-3.4S95 41 90.6 40.1c3.4-2.7 5.8-7.2 5.8-7.2l-.2.2.8-1.4s-7.4 7.6-12.8 7c2.3-2.1 4-4.8 5-6.8 1.2-2.2 1.8-4 1.8-4s-5.6 8.7-9.6 10c1.8-1.8 3-3.8 3.8-5.4l.2-.2c1.2-2.2 1.8-4 1.8-4s-4.6 6.8-8.5 8c2-2 3.1-3.7 3.7-4.8 1-1.9 1.2-2.9 1.2-2.9s-7 9-10.3 8.3c2.5-3 4.2-6.1 4.8-7.3l.2-.2.2-.3.6-1.2s-6.3 8.4-8 7c-.3 0-.3-.3 0-.8.5-1 1.3-2 1.3-2l-.6.5L73 31s-2.9 2.6-4.3 2.7c1.8-2 4-5.8 4-5.8l-.2.2.9-1.4z"/><path d="M83.2 44.4c-.9 0-1.7.5-2.1 1.7-5 9.4-15.3 14.6-27.4 16.4-12.1 1.7-21-.8-28.4-2.9C15.7 57 8 61.7-.3 57.6c1.1.9 2.4 1.8 4.6 2.3-1.4-.2-2.9-.7-4.3-1.4 2 1.5 4.1 3 10.5 3 2 0 8.5-.3 10.2.7-.5 1.8-4.5 5.5-4.5 5.5s1.8-1.5 4-3c-1.4 1.9-3.6 4-3.6 4s8.3-7 10-5.6c0 2-2.7 5.6-2.7 5.6s1.2-1.6 2.6-3c-.7 1.8-2.3 4-2.3 4s3.3-4.5 5.7-5.5c1.6-.6 3-.5 4 .8-.3 1.8-3.8 6-3.8 6l3.3-3c-1.2 1.8-3 3.9-3 3.9s6.2-6 7.3-5.8l.2.1c.1 1.7-.5 4.7-.5 4.7l.7-1.6-.4 2.6s2.3-5.4 3.5-5.9c-.5 3-4 11.8-4 11.8l2.2-4-2 5s6.7-12.4 8-12.7c.8-.1 1.5 1 2 2.6.8 2.4 1.3 5 1.3 5l-.2-1.5.5 2.6s-1-8 0-8.5c2-.9 3-.3 3.6 1 1 4-.8 11.7-.8 11.7l1-3c-.3 2.3-.7 4-.7 4s4-10 2.3-13.4l-.1-.3c2.8 2 4.3 4.5 5.2 6.8 1 3.3.7 6 .7 6s.2-.5.3-1.4V80s1.3-2.7-1-9c-.5-1.7-1.3-3.6-2.4-5.8 3 0 7.4 7.8 7.4 7.8l-1.2-2.4.9 1.4s-1.3-2.2-2-4.4c-.6-1.8-.7-3.5.7-3.5 3.1-.2 5 2.4 6 5.1v.2c.9 2.7 1 5.4 1 5.4l.2-.4.1 1.3s1.3-1-.9-7.3l-.1-.5c-.5-1.5-1.2-3.4-2.2-5.6 3.4-2 11.5 10.9 11.5 10.9l-1.9-3.3 1.6 2.3s-4.7-7.8-6-11.6c-.2-.5-.2-.9 0-1 1.2-.8 5.6 4 5.6 4l-1.3-2 1 1s-1.6-2.1-2.3-3.6l.1-.5c1-.5 10 9.3 10 9.3l-3-3.7 2.6 2.7s-5-6-6.4-9c0-.4 0-.6.2-.7.8-.7 3.1.5 5 1.7a46 46 0 01-3.4-2.6c1 .4 2 1 3 1.6-1.7-1.2-4-3-4.8-4 0-.1 0-.2.2-.2 2.4-1.3 9.4 3 9.4 3l-2.2-2 1.8 1s-2.3-1.9-3.2-3.2v-.1c.8-.9 9 5.4 9 5.4s-3-2.4-5.3-4.5l5 3.5s-5.8-4.5-7.3-6.5c.7-.8 5.7.8 5.7.8L88 49.2c1.6.3 3.2.9 3.2.9s-4.4-2.1-6.1-3.4c1 0 4 1.3 4 1.3s-1.4-1.2-3-2l2.8 1s-3.3-2.6-5.7-2.6zm.1 13.4l2.3 1.6-2.3-1.6zm.3 1l2.3 1.6-2.3-1.6z"/></svg>
