<svg xmlns="http://www.w3.org/2000/svg" viewBox="0 0 975 291"><path d="M38.3 286.2A40.5 40.5 0 0115.2 265a44.4 44.4 0 01-1.8-27.2A41.8 41.8 0 0137 212.3l5-1.8v-16.1l-5.4-1.7a52.7 52.7 0 01-28-23.8 52.5 52.5 0 010-46.8 52.7 52.7 0 0128-23.8l5.4-1.7V80.5l-5-1.8a41.8 41.8 0 01-23.6-25.5c-2.4-8-1.6-20 1.9-27.5 3.4-7.4 12-16 19.4-19.5 5.2-2.4 7-2.7 16.3-2.7s11.1.3 16.3 2.7c7.5 3.5 16 12.1 19.4 19.5a44.6 44.6 0 012 27.5A41.8 41.8 0 0165 78.7l-5 1.8.2 7.9.3 7.9 5.2 1.3a45 45 0 0118.9 10l5.7 4.6 4-2.3c2.3-1.2 5.7-3.2 7.5-4.3l3.4-2.1.1-10.5c.2-9.1.6-11.3 2.9-16.3 3.5-7.4 12.1-16 19.5-19.5 5.2-2.4 7-2.7 16.3-2.7s11.1.3 16.3 2.7c7.4 3.5 16 12.1 19.5 19.5 2.4 5.2 2.7 7 2.7 16.3s-.3 11.1-2.7 16.3a46.6 46.6 0 01-19.5 19.5c-5.2 2.4-7 2.7-16.3 2.7-11.8 0-16.8-1.6-24.6-8l-4.3-3.6-7.6 4.3-7.6 4.3.8 4c1 5.2 1 21 0 25.7l-.8 3.7 7.7 4.5 7.7 4.5 4.2-3.4c7.7-6.4 12.7-8 24.5-8 9.3 0 11.1.3 16.3 2.7 7.4 3.5 16 12.1 19.5 19.5 2.4 5.2 2.7 7 2.7 16.3s-.3 11.1-2.7 16.3a46.6 46.6 0 01-19.5 19.5c-5.2 2.4-7 2.7-16.3 2.7s-11.1-.3-16.3-2.7a46.6 46.6 0 01-19.5-19.5c-2.4-5.2-2.7-7-2.7-16.5v-10.7l-7.1-4a69 69 0 00-7.8-4.1c-.3 0-3.1 2-6.2 4.5a44.7 44.7 0 01-18.7 9.9l-5.2 1.3-.3 8-.3 7.8 5 1.8a41.8 41.8 0 0123.7 25.5c2.4 8 1.6 20-1.9 27.5-3.4 7.4-12 16-19.4 19.4a45.5 45.5 0 01-29 1.5zm20-20.6c11.7-5 14.4-21 5-29.8A18 18 0 0033 249c0 10.2 7.6 17.9 17.8 18 2.3 0 5.7-.6 7.5-1.4zm93-51c11.7-5 14.4-21 5-29.8A18 18 0 00126 198c0 10.2 7.6 17.9 17.8 18 2.3 0 5.7-.6 7.5-1.4zm-88.7-42.3a31.6 31.6 0 0016.7-16.7c3.8-11.1 1.3-22-6.7-30.2a27.7 27.7 0 00-40.2 0c-8 8.1-10.5 19-6.7 30.2A32.7 32.7 0 0042 172.3c6 2 14.5 2 20.6 0zm88.7-62.7c11.7-5 14.4-21 5-29.8A18 18 0 00126 93c0 10.2 7.6 17.9 17.8 18 2.3 0 5.7-.6 7.5-1.4zm-93-51c11.7-5 14.4-21 5-29.8A18 18 0 0033 42c0 10.2 7.6 17.9 17.8 18 2.3 0 5.7-.6 7.5-1.4zm677.5 227.7c-2.7-1.7-4.8-5.2-4.8-7.8 0-2.7 3.5-1.5 5.5 1.8 1.6 2.5 2.8 3.3 5.6 3.5 5 .4 7.9-2.2 8.6-7.7l.6-4.3-3.1 1.6c-11.4 5.9-22-5.4-16.8-17.9.8-1.9 2.8-4 4.5-5 3.8-2 10-2 12.9 0 2 1.5 2.2 1.5 2.2 0 0-.8.9-1.5 2-1.5 2 0 2 .7 2 16v16l-2.8 3.1c-2.4 2.7-3.7 3.3-8.3 3.6-4 .3-6.1-.1-8-1.4zm12.2-17c1.5-1.3 2.4-3.4 2.7-6.5.5-4 .2-5-2-7.2-5.6-5.6-13.7-2-13.7 6.1 0 7.8 7.4 12 13 7.5zm32-.8c0-18.8 0-19.5 2-19.5 1.1 0 2 .7 2 1.6 0 1.4.2 1.4 2.2 0 2.8-2 9-2 12.7-.1 1.6.8 3.6 3 4.5 4.9 5.6 11.7-5.4 23.8-16.4 18l-3-1.5v8c0 7.4-.2 8.1-2 8.1-2 0-2-.7-2-19.5zm17.5 0c3.2-3.1 3.4-9.1.4-12.9-2.8-3.6-8-3.6-11.6 0-2.2 2.2-2.5 3.2-2 7.2.9 7.9 8 11 13.2 5.7zm-522 3.4c-6.2-5.5-5.8-17 .9-21 3.8-2.3 10.3-2.5 13.4-.3l2.2 1.5v-11c0-10.4.1-11.1 2-11.1 2 0 2 .7 2 22s0 22-2 22c-1.1 0-2-.5-2-1 0-.6-1.3-.4-3 .5-4.8 2.5-9.4 2-13.4-1.6zm13.5-2.7c1.5-1.2 2.4-3.3 2.7-6.4.5-4 .2-5-2-7.2-5.6-5.6-13.7-2-13.7 6.1 0 7.8 7.4 12 13 7.5zm29.3 4.6c-2.8-1.3-4-4.7-2.2-5.9.9-.5 2.1-.1 3.4 1.1 2.4 2.3 4.6 2.5 6.3.8 2.4-2.4 1.2-4.7-4-7.5-4.2-2.2-5.4-3.4-5.6-5.6-.5-4.6 2.2-7.7 6.7-7.7 3.3 0 7.1 2.2 7.1 4.2 0 1.3-3.2 1.7-5 .6-1-.6-2.5-.8-3.4-.5-3 1.2-1.7 3.7 2.8 5.7 6 2.5 8.2 5.9 6.7 10.1-.6 1.8-1.9 3.8-2.8 4.5-2.1 1.6-7 1.7-10 .2zm75.4-.4c-1.5-.8-2.7-1-2.7-.4 0 .5-1.1 1-2.5 1H386l.2-21.8c.3-21.7.3-21.7 2.6-22 2.2-.3 2.2-.2 2.2 10.8V252l2.2-1.5c6.1-4.3 15.7-.3 17.8 7.5 3.1 11.4-7.4 20.7-17.3 15.3zm10.8-4.9c5.4-5.3 1.8-15.5-5.5-15.5-2 0-4 1-5.5 2.5-5.4 5.3-1.8 15.5 5.5 15.5 2 0 4-1 5.5-2.5zm17 5.3c-4-2.1-4.5-3.9-4.5-14.5 0-9.6.1-10.3 2-10.3s2 .7 2 9.3c0 10.1 1.2 12.7 5.8 12.7 4.2 0 5.2-2.5 5.2-12.6 0-9.4 0-9.4 2.5-9.4s2.5.1 2.5 8.4c0 4.5-.5 9.7-1.1 11.5-1.8 5.1-9.3 7.7-14.4 5zm43.7-.8c-3.9-2.4-5.2-5.4-5.2-12.2 0-4.4.4-5.4 3.4-8.4 2.8-2.8 4.2-3.4 7.5-3.4 7.6 0 12.1 4 12.1 11v3h-9.5c-5.2 0-9.5.2-9.5.5 0 1.6 3.1 6.3 4.5 6.9 3.3 1.2 6.7.5 9-2 1.4-1.5 2.9-2.2 3.9-1.8 1.9.7 2 1 .6 3.5-2.6 4.8-11.2 6.3-16.8 2.9zm13.2-15.3c-2.8-4.9-8-6.3-11.6-3-3.6 3.2-2.3 4.3 5.3 4.3 5.3 0 6.8-.3 6.3-1.3zm16.7 16c-8.2-4.2-8.9-18.4-1.2-23 3.6-2.1 10-2.2 12.9-.1l2.2 1.5V241c0-11 0-11.1 2.3-10.8 2.2.3 2.2.3 2.5 22l.2 21.8h-2.5c-1.4 0-2.5-.5-2.5-1 0-.6-1.3-.4-3 .5a12 12 0 01-10.9.2zm11.4-5.2c3.2-3.1 3.4-9.1.4-12.9-2.8-3.5-8-3.6-11.4-.1-5.4 5.3-1.8 15.5 5.5 15.5 2 0 4-1 5.5-2.5zm32.1 4c-3-2.8-3.3-4-1-5 1-.3 2.4.2 3.6 1.5 2.3 2.4 5 2.6 6.9.4 1.7-2 .3-4.4-3.7-6.3-4.7-2.2-6.4-4.2-6.4-7.6 0-4 2.7-6.5 7.2-6.5 4.4 0 7.7 3 5.4 5-1.1.8-1.9.8-3.4-.1-1-.7-2.7-1-3.6-.6-2.5 1-1.9 3.6 1.2 5 6.3 2.7 8.2 4.6 8.2 8.7 0 7.3-8.8 10.7-14.4 5.5zm58.6.5c-3.9-2.4-5.2-5.4-5.2-12.2 0-4.4.4-5.4 3.4-8.4 2.8-2.8 4.2-3.4 7.5-3.4 7.6 0 12.1 4 12.1 11v3h-9.5c-5.2 0-9.5.2-9.5.5 0 1.6 3.1 6.3 4.5 6.9 3.3 1.2 6.7.5 9-2 1.4-1.5 2.9-2.2 3.9-1.8 1.9.7 2 1 .6 3.5-2.6 4.8-11.2 6.3-16.8 2.9zm13.2-15.3c-2.8-4.9-8-6.3-11.6-3-3.6 3.2-2.3 4.3 5.3 4.3 5.3 0 6.8-.3 6.3-1.3zm13.2 14.2c-6.3-5.5-5.9-17 .8-21 3.8-2.3 10.3-2.5 13.4-.3 2 1.4 2.2 1.4 2.2 0 0-1 .9-1.6 2-1.6 1.9 0 2 .7 2 12.5s-.1 12.5-2 12.5c-1.1 0-2-.5-2-1 0-.6-1.3-.4-3 .5-4.8 2.5-9.4 2-13.4-1.6zm13.4-2.7c1.5-1.2 2.4-3.3 2.7-6.4.5-4 .2-5-2-7.2-5.6-5.6-13.7-2-13.7 6.1 0 7.8 7.4 12 13 7.5zm188.8 4.2c-3.8-2-5.8-6.3-5.8-12.5 0-4.5.4-5.5 3.4-8.5 2.8-2.8 4.1-3.4 7.8-3.4 2.4 0 5.3.7 6.5 1.5 1.9 1.3 2.2 1.3 2.7 0 .3-.8 1.5-1.5 2.6-1.5 1.9 0 2 .6 2 12.5V274h-2.5c-1.4 0-2.5-.5-2.5-1 0-.6-1-.4-2.2.4-2.8 2-8.4 2-12 0zm11.8-4.7c5.7-5 2.3-15.7-5-15.7-6.6 0-10.3 6.5-7.6 13 2.3 5.4 8 6.7 12.6 2.7zm53.9 5.3c-9-3.6-10-18.4-1.6-23.3a16.8 16.8 0 0114.1-.2c8.3 4.3 8 19-.6 23a16.6 16.6 0 01-11.9.5zm11.6-6c3.2-3.2 3.7-6.6 1.4-11-1.6-3.1-3.3-4-8-4-7.4 0-11 10.6-5.2 15.6 3.9 3.3 8.1 3.1 11.8-.5zm-687 5c1.6-4.3 17.5-40 18-40 .4 0 15 33.1 17.8 40.2.2.5-1 .8-2.4.6-2.3-.2-3.1-1.2-4.9-5.5l-2.1-5.3h-17.1l-2.3 5.5c-2 4.6-2.7 5.5-4.8 5.5-1.3 0-2.3-.4-2.1-1zm24-14.8c0-1.2-5.6-14.2-6.1-14.2s-6 13-6 14.2c0 .5 2.7.8 6 .8s6-.3 6-.8zm63.9 3.3c0-11.8.1-12.5 2-12.5s2 .7 2 12.5-.1 12.5-2 12.5-2-.7-2-12.5zm36 2c0-8.7-.3-10.5-1.5-10.5-.8 0-1.5-.9-1.5-2s.7-2 1.5-2c1.1 0 1.5-1.2 1.5-4.5 0-3.8.3-4.5 2-4.5s2 .7 2 4.5c0 4.1.2 4.5 2.5 4.5 3.3 0 3.5 3.7.3 4.2-2.2.3-2.3.8-2.6 10.6-.2 9.4-.4 10.2-2.2 10.2-1.9 0-2-.7-2-10.5zm15-2c0-11.8.1-12.5 2-12.5 1.1 0 2 .5 2 1 0 .7.6.7 2 0 2.2-1.2 6.7-1.3 7.4-.2.8 1.4-1.9 3.7-4.4 3.7-3.5 0-5 3.7-5 12.8 0 7-.2 7.7-2 7.7-1.9 0-2-.7-2-12.5zm19 0c0-11.8.1-12.5 2-12.5s2 .7 2 12.5-.1 12.5-2 12.5-2-.7-2-12.5zm72 2c0-6.3-.4-10.5-1-10.5s-1-.9-1-2 .5-2 1-2c.6 0 1-2 1-4.5 0-4.1.2-4.5 2.5-4.5s2.5.4 2.5 4.5c0 3.8.3 4.5 2 4.5 1.3 0 2 .7 2 2s-.7 2-2 2c-1.9 0-2 .7-2 10.5V274h-5zm115 .5c0-8-.3-10.2-1.5-10.6-.8-.4-1.5-1.5-1.5-2.5s.7-1.9 1.5-1.9c1.1 0 1.5-1.2 1.5-4.5 0-3.8.3-4.5 2-4.5s2 .7 2 4.5.3 4.5 2 4.5c1.3 0 2 .7 2 2s-.7 2-2 2c-1.9 0-2 .7-2 10.5s-.1 10.5-2 10.5-2-.7-2-10zm14-2.5V249h2.5c1.4 0 2.5.5 2.5 1.2 0 1 .3 1 1.2 0 .7-.7 2.7-1.2 4.6-1.2 2.7 0 3.3.3 2.8 1.6l-.6 2c0 .2-1.3.4-3 .4-4 0-5 2.3-5 12.4 0 8.5 0 8.6-2.5 8.6H575zm76 0V249h2.5c1.4 0 2.5.5 2.5 1.2 0 1 .3 1 1.2 0 1.6-1.6 7-1.5 9.3.2 1.7 1.2 2.2 1.2 4 0 3.4-2.4 9-1.8 11.4 1.2 1.8 2.3 2.1 4 2.1 12.5 0 9.2-.1 9.9-2 9.9-1.8 0-2-.7-2-8 0-10.3-1-13-5-13s-5 2.3-5 12.4c0 8.5 0 8.6-2.5 8.6s-2.5 0-2.5-9c0-10.8-.4-12-4-12-4 0-5 2.4-5 12.4 0 8.5 0 8.6-2.5 8.6H651zm41 0V249h5v25h-5zm13 0c0-11.7.1-12.5 2-12.5 1 0 2 .6 2.3 1.3.4 1 .7 1 1.8 0 2-2 8.3-1.6 11 .6 2.2 1.8 2.4 2.8 2.7 12.5l.4 10.6H720v-9.4c0-10.3-.8-12-5.7-11.4-3.9.4-5.3 3.9-5.3 13 0 7.1-.2 7.8-2 7.8-1.9 0-2-.7-2-12.5zm105-9.5c0-21.3 0-22 2-22s2 .7 2 22 0 22-2 22-2-.7-2-22zm44 11.5c0-6.3-.4-10.5-1-10.5s-1-.9-1-2 .5-2 1-2c.6 0 1-2 1-4.5 0-4.1.2-4.5 2.5-4.5s2.5.4 2.5 4.5c0 3.8.3 4.5 2 4.5 1.3 0 2 .7 2 2s-.7 2-2 2c-1.9 0-2 .7-2 10.5V274h-5zm17 0c0-6.3-.4-10.5-1-10.5s-1-.9-1-2 .4-2 .9-2 1-3.6 1.3-8c.4-9.2 1.6-11 7.5-11 2.6 0 3.3.4 3.3 2 0 1.3-.8 2-2.8 2.2-2.6.3-2.7.5-3 7.6l-.3 7.2h3c2.4 0 3.1.4 3.1 2s-.7 2-3 2h-3v21h-5zm45-2c0-11.8.1-12.5 2-12.5 1.1 0 2 .5 2 1 0 .7.6.7 2 0 1-.5 3-1 4.5-1 3.7 0 3 3.4-.7 3.8-4.4.5-5.8 3.6-5.8 13 0 7.5-.2 8.2-2 8.2-1.9 0-2-.7-2-12.5zm19 0c0-11.8.1-12.5 2-12.5 1.1 0 2 .5 2 1 0 .7.6.7 2 0 2.8-1.5 7.1-1.2 9.2.7 1.7 1.5 2 1.5 3.7-.1 1.3-1.2 3.2-1.6 6.2-1.4 6.1.4 7.9 4 7.9 16 0 8.7 0 8.8-2.5 8.8s-2.5 0-2.5-9.4c0-10.1-.9-12-5.2-11.4-3.3.5-4.8 4.3-4.8 13 0 7.1-.2 7.8-2 7.8s-2-.7-2-8.6c0-9.6-1-12.4-4.5-12.4-4 0-5.5 3.4-5.5 12.7 0 7.6-.2 8.3-2 8.3-1.9 0-2-.7-2-12.5zm-631.6-20c-1-2.5.4-4.7 2.8-4.3 1.7.2 2.3 1 2.3 2.8 0 1.8-.6 2.6-2.3 2.8-1.3.2-2.5-.3-2.8-1.2zm70 0c-1-2.5.4-4.7 2.8-4.3 1.7.2 2.3 1 2.3 2.8 0 1.8-.6 2.6-2.3 2.8-1.3.2-2.5-.3-2.8-1.2zm318.6 0c-1.1-1.3-1-1.9.3-3.2 2.1-2.1 5-1 4.5 2-.4 2.7-3 3.4-4.8 1.2zm-377.3-25.6c-17-4-28.7-21-28.7-41.4 0-23 14-40.3 34.2-42.2 8-.7 15.6 1.3 22.6 6.2l5 3.5.4-3.8.3-3.7 9.3-.3 9.2-.3v81.2l-9.3-.3-9.2-.3-.3-3.3c-.2-1.7-.5-3.2-.8-3.2-.2 0-2.3 1.4-4.6 3a35.4 35.4 0 01-28 5zm19.4-17c9.6-3.3 15.2-12.3 15.2-24.4 0-8.1-2-13.5-6.6-18.3a18.5 18.5 0 00-15.3-6.6c-8.6-.1-14.7 3.7-18.9 11.9-5.8 11.4-3.1 27.1 6 34 5.6 4.4 12.9 5.6 19.6 3.4zm203.6 16.7c-14.4-4-25.7-19-27.3-36.4-1.8-19 7-36.4 22.3-43.9a25 25 0 0113.8-2.8c9.3 0 15.3 2 22 7.1l4.5 3.4v-9.1l9.3.3 9.2.3v80l-9.3.3-9.2.3V207l-5.4 3.6a35.2 35.2 0 01-29.9 5zm20.8-16.7c9.5-2.6 16.4-15 15.1-27-1-9.5-5.2-16.6-11.8-20a20.4 20.4 0 00-24 2.9c-5.8 5.2-8 10.8-8 19.9 0 18 12.6 28.6 28.7 24.2zM216 145.5V76h19v83.5l12.8-12.8 12.7-12.7h12.3a69 69 0 0112.2.5c0 .4-7.7 8.1-17 17.3l-17 16.7 18.6 23 18.5 23-11.2.3c-6.2.1-11.8 0-12.5-.2-.6-.2-7-7.9-14.2-17-10-12.6-13.3-16.2-14-15.2-.7.7-1.3 7.6-1.4 16.7l-.3 15.4-9.3.3-9.2.3zm171.7 68.8c-.4-.3-.7-14.5-.7-31.5V152h-6v-18h6v-15.8c0-28.1 2.5-36 12.9-41.4 4.4-2.3 6.6-2.8 12.6-2.8 4 0 8.6.5 10.4 1.1l3.1 1.1v19.6l-4-1.9c-4-2-9.6-2.5-11.6-1.1-3 2-3.7 6.2-4.2 23.4l-.5 17.8H426v18h-20v63h-8.8c-4.9 0-9.2-.3-9.5-.7zm52.3-68.8V76h19v83.5l12.8-12.8 12.7-12.7h12.3c6.7 0 12.2.4 12.2.8s-7.6 8.1-17 17l-17 16.3 18.5 23a676.9 676.9 0 0118.5 23.4c0 .3-5.4.5-12 .5h-12l-13.2-17c-10.1-13-13.5-16.6-14.5-15.8-1 .8-1.3 5.2-1.3 17V215h-19zm165.3 68c-3.3-1.4-6.3-6-6.3-9.5 0-10.1 12-15.4 19.3-8.6 5.6 5.2 4.1 15.3-2.8 18.2-4.2 1.7-6 1.7-10.2 0zm10.4-2.4c3.7-2.3 5-6.8 3.3-11.2-1.3-3-5.5-5.9-8.5-5.9s-7.2 3-8.5 5.9c-3.6 8.9 5.3 16.3 13.7 11.2zm-8.7-7.6c0-7 .8-7.8 5-5.5 2.4 1.3 2.6 4.8.5 5.6-1.3.5-1.2 1 .6 3.5 2.4 3.4.6 4-2.2.7l-1.8-2.3v2.3c0 1.2-.6 2.2-1.1 2.2-.6 0-1-2.8-1-6.5zm4.5-2.5a2 2 0 00-1.3-1.8c-.7-.2-1.2.5-1.2 1.8s.5 2 1.3 1.8a2 2 0 001.2-1.8zM249 100.6a132 132 0 0111.9-23c1.6 2 10.4 22.4 9.8 23-1.1 1.2-3.7-.5-4.7-3-.8-2.3-1.5-2.6-5.9-2.6-4.5 0-5 .2-6.1 3-.8 1.8-2 3-3.1 3-1 0-1.9-.2-1.9-.4zm14-9.9c-.1-2-2.7-6-3.3-5-.4.6-1 2.2-1.6 3.7-1 2.4-.9 2.6 2 2.6 1.7 0 2.9-.5 2.9-1.3zm12-1.2V78h4.3c4.8 0 6 .6 7.6 3.8 1.8 3.4-.3 8-3.8 8.8-5 1-5.1 1.2-5.1 5.9 0 3.3-.4 4.5-1.5 4.5-1.2 0-1.5-2-1.5-11.5zm7.8-2.7c1.7-1.7 1.5-4.5-.4-5.2-3.4-1.3-4.4-.7-4.4 2.9 0 2.7.4 3.5 1.8 3.5 1 0 2.3-.5 3-1.2zm4.2 13.5A192 192 0 01298 77c.4 0 9.6 20 10.3 22.5 0 .5-.6 1.1-1.6 1.3-1.2.3-2-.6-2.8-2.7-1-2.9-1.4-3.1-6-3.1-4.4 0-5 .3-6.4 3-1.4 2.7-4.5 4.2-4.5 2.3zm14-8.8c0-.4-.7-2-1.6-3.7-1.7-3.3-2.3-3-3.8 2-.7 2-.4 2.2 2.3 2.2 1.7 0 3.1-.2 3.1-.5zm15.1 8.2c-8.4-4.3-8.4-16.9 0-21.3 5.2-2.7 11.9-1.2 11.9 2.7 0 1.6-.3 1.8-2 1a10 10 0 00-10.1.8c-1.8 1.4-2.4 2.9-2.4 6 0 6.8 4.5 9.7 11.8 7.7 2.1-.7 2.7-.5 2.7.8 0 3.3-7.2 4.7-11.9 2.3zm16.6.6c-.4-.3-.7-5.5-.7-11.5 0-10.1.1-10.8 2-10.8 1.7 0 2 .7 2 4v4h10v-4c0-2.9.4-4 1.5-4 1.2 0 1.5 2 1.5 11.5 0 9.6-.3 11.5-1.5 11.5s-1.5-1.3-1.5-5.5V90h-10v5.5c0 4-.4 5.5-1.3 5.5-.8 0-1.7-.3-2-.7zm22 0c-.4-.3-.7-5.5-.7-11.5V78h6.5c5.1 0 6.5.3 6.5 1.5 0 1.1-1.2 1.5-4.5 1.5-4.1 0-4.5.2-4.5 2.5s.4 2.5 4.5 2.5c3.8 0 4.5.3 4.5 2s-.7 2-4.5 2c-4.5 0-4.5 0-4.5 3.5s0 3.5 4.5 3.5c3.8 0 4.5.3 4.5 2 0 1.8-.7 2-5.8 2-3.2 0-6.2-.3-6.5-.7z"/><path d="M43.7 58a18.5 18.5 0 01-10.3-16.2c0-12 14.2-21.1 24.6-15.8 7 3.7 10.2 8.7 10.2 16.4 0 10-7 16.9-17.1 16.8-2.6 0-6-.6-7.4-1.2zM44.6 172.6c-7.6-1.8-17-11.6-19.3-19.9A29.3 29.3 0 0141 120c6.5-3.2 17-3 23.2.2 5.7 3 10.7 8 13.7 13.7 3.1 6 3.3 16.7.4 23-2.5 5.4-9 12-14.4 14.3-4.7 2-14 2.8-19.3 1.5zM43.7 265c-8.7-4.7-12.5-14-9-22.5a17.6 17.6 0 0126.3-7.9c10.4 7.3 9.3 24.4-2 29.9a19.3 19.3 0 01-15.3.4zM136.5 213.9a17.5 17.5 0 01-6-27A18.3 18.3 0 01156 185c5.3 4.6 6.8 14.6 3.4 21.4a18 18 0 01-23 7.5zM136.5 108.9a19 19 0 01-10-18.1c2.3-14.1 18.2-20.1 28.8-10.9 3.6 3.2 4.9 5.3 5.9 9.7 1.6 7-3.2 16.6-9.6 19.3a25 25 0 01-15.1 0z" fill="#fff" stroke="#fff" stroke-width=".9"/></svg>