<svg xmlns="http://www.w3.org/2000/svg" viewBox="0 0 400 389.2"><g fill-rule="evenodd"><path d="M139 1.5c0 2.5.3 2.6 12.4 2.4 12.2 0 12.6-.1 12.6-2.4V0h-25v1.5m99 0c0 2.4.2 2.5 12 2.5s12.1 0 12.1-2.5V0H238v1.5m-63 2.7a14 14 0 01-2.4 3L171 8.4l1.1.2c1.7.4 11.4.3 12 0 .6-.5.7-4.4 0-4.8-.3-.2-.1-.4.7-.7.8-.3 0-.4-4-.4h-5.1l-.8 1.4m41.5-1c.7.2.8.4.4 1.1-.3.6-.3 1 0 1.1.2.1.3.8.2 1.4-.2 2 .2 2.2 6 2.1 7.5 0 8-.2 5.4-1.6a8.2 8.2 0 01-3.1-2.9l-1.1-1.7h-4.4c-3 0-4 .2-3.4.4M131 7.8c-1 1.1.4 1.8 2.6 1.2l1.6-.5-.9-.8c-1.1-.9-2.5-.9-3.3 0m135.5 0c-.8.8-.4 1.3 1.4 1.3 2.4 0 3-.4 1.6-1.3-1.3-.8-2.2-.9-3 0M126.4 13c-.7.7-.7.7.1.9 1.2.1 1.4-.1 1-1-.4-.6-.5-.6-1.1.1m72.4.5c-1.4.2-.9.3 2.4.3 2.6 0 3.9 0 3.3-.3a14 14 0 00-5.7 0m-77.6 4.6c-.3.6-.3 1 0 1.1.6.4 1.2-.4.8-1.2-.4-.6-.4-.6-.8.1m-5.4 5.5c-.4.6-.4.9 0 1.2.8.7 1.6-.4 1-1.3-.5-.6-.6-.6-1 .1m-5.5 5.7c-.4.4-.3.6.1 1 .8.6 1.5 0 1.2-1-.3-.7-.7-.8-1.3 0M294.4 35c0 .4.3.7.5.6.7-.2.8-1 .2-1.2-.5-.1-.7 0-.7.6M105 35c-.3.5.4 1.3.9 1 .6-.3.5-1.3-.1-1.3-.3 0-.7.1-.8.3m-5.7 5.3c-.4.6 0 2.2.7 2.2.8 0 2-1.8 1.6-2.3-.7-.6-1.7-.6-2.3 0m200.2.3c0 1 .5 1.3 1.4.6.8-.6.5-1.4-.6-1.4-.5 0-.8.3-.8.8m-206.7 5c-1 1.6 1.5 2.6 3.2 1.3 1-.7 1-.8.3-1.4-1-.8-3-.8-3.5.1m212 0c-.5 1.2.6 1.7 2.9 1.2l2-.4-.9-.8c-1.2-.9-3.7-1-4 0m-223.6.8c.6.1 1 .4.8.5-.6.4-.3 4.7.4 5.4.9.9 7.2.2 7.2-.8 0-.2-.6-.7-1.3-1.1a21 21 0 01-3-2.6c-1.6-1.6-1.9-1.7-3.5-1.7-1.5 0-1.6 0-.6.3m233.5 3c-2.4 2-1.4 3.3 2.5 3.3 2.4 0 3.1-.6 2.7-2.1-.5-2.1-3.4-2.7-5.2-1.1M68.3 52c.4.3.6.6.4.6-.5 0-.3 4.3.2 4.7.5.6 4 1 5.4.7l2.5-.5c1.5-.3 1.4-.5-1.3-3.5L73 51.4h-2.7c-2.5 0-2.7 0-2 .6m264 .6c-.7 1.6-1.2 2-4 2.4-2.6.4-4.4 1.5-3.6 2.3.5.5 5.5 1 7.3.6l1.4-.3V55c0-1.5 0-2.9.2-3.1.1-.3 0-.5-.3-.5s-.8.5-1 1.2M56 57.2c-.6 4.8.2 6.3 3.2 6.3 6 0 7.1-1.9 1.8-2.8-2.8-.5-3.7-1-4-2.7-.2-1-1-1.6-1-.8m287 0c0 .9-2.4 3-3.8 3.5-3 1-2.8 1.8 1 2.5 4.4.8 4.7.6 4.9-3 0-1.5 0-2.9-.3-3-.6-.5-1.8-.4-1.8 0m11.1 5.5c-.5 1 .5 1.1 1.6.4 1.1-.7 1.1-.8.3-.8-.7 0-.8.2-.6.5.2.4 0 .4-.4 0s-.7-.4-.9 0m2.8.1c-.3.9-.3 1 .3 1 .3 0 .5-.3.5-.6-.1-.9-.5-1-.8-.4m1.3-.3c0 .2 0 .6-.2 1 0 .4.1.5.6.4.6-.2.7-.4.4-1-.4-.7-.8-.9-.8-.4m-2.6 1.2c-.3.2-.4.6-.3 1 .2.5.4.5.8.3.2-.3 1-.3 1.6-.2.8.1 1.3 0 1.5-.2.2-.4 0-.4-.6-.3-.5.2-1.2 0-1.7-.3s-1-.4-1.3-.3m1.6 2.6c0 .7.1.9.5.5.4-.3.4-.5 0-1-.5-.6-.5-.6-.5.5m-307.6.5c-1.3 1.5 1.2 2.9 3 1.6 1-.8 1-.8.4-1.6-.8-.9-2.5-.9-3.4 0m298.6-.2c-1.3 1.3.2 2 3.3 1.7 2-.2 2.4-.4 1.8-1.3-.5-.9-4.4-1.2-5.1-.4m10 .3l-.2 1c.1.2.2 0 .2-.2s.2-.4.5-.4c.2 0 .3.3.2.6-.2.3-.1.5.1.4.2-.2.4 0 .4.2 0 .3.3.6.8.6s.8-.3.8-.7c0-.4-.3-.7-.7-.7-.3 0-.4.2-.3.4.2.3.1.4-.2.2-.2-.2-.4-.7-.4-1.2 0-1.2-.4-1.3-1.1-.2m3 1.6V70c0 .2-.2.1-.4-.1-1.1-.9-2.6 7.4-1.7 9 .7 1 1.4-.4 1.3-2.8 0-1.5 0-2.9.3-3.2.2-.3.1-.4-.2-.2-.2.1-.5 0-.6-.1-.2-.3 0-.4.3-.4s.5-.3.5-.6c0-.5-.1-.5-.5-.2-.3.3-.6.4-.8.2-.1-.1 0-.2.2-.2s.5-.3.5-.7c.2-.6.2-.6.8 0 .8.8 2 .9 2.6.3.3-.4.5-.4.6 0 .3.4-.7 1.6-1 1.3-.5-.5-2-.6-1.7-.1.2.2.6.4 1 .4.3 0 .2.1-.4.3-.7.3-.5.3 1 .3h1.8v-2.2c-.2-2.6-.5-3.1-2.2-3.1-1.1 0-1.4.1-1.4.8m1.9 1.3c.3.8-.2 1.2-.8.7-.3-.4-.3-.5.1-.5.5 0 .5 0 0-.4-.4-.2-.4-.4 0-.4.2 0 .5.3.7.6M45 71.4c-.6.4-.8 1.1-.7 2 0 .7 1.6 1 2.2.5 1.5-1.2 0-3.7-1.5-2.5M40 76.5c-1 1-.9 3.6 0 4.1 1.7.9 2.7-2.2 1.4-3.9-.7-.8-.8-.8-1.4-.2M366.5 83l-1.7.3-.2 1.9c-.1 2 .3 6.2.6 6l.5-2.5c.4-2.6 1.6-4 3.6-4.3 1.2-.3 1.3-.4.6-1-.6-.6-1.1-.7-3.4-.4M30.2 86c-.5 2.6-.3 3.3 1.2 4.5 1.4 1.1 2.9 3.9 2.9 5.4 0 .5.2 1.9.5 3l.5 2.2.5-4.5c1-9.4.6-10.8-2.5-11-1.3 0-2.2 0-2.2.3 0 .2-.1 0-.3-.4-.2-.6-.3-.6-.6.5m344.5 29.5c-.1.8-.3 1.5-.4 1.3-.2 0-.6 0-1 .4-.5.4-.6.4-.6-.1 0-.4-.1-.6-.4-.6-.2 0-.3-.3-.3-.7 0-.3-.2-.5-.4-.3-.2.1-.4.6-.4 1 0 .7-.1.8-.4.4-.5-.8-.9 9-.6 13.6l.3 4 .7-2.3c.8-2.5 2.2-4.3 3.7-4.7 1-.2 1.6-8 .6-8-.2 0-.4-1.2-.5-2.8-.1-2.1-.2-2.4-.3-1.2M25.8 128c-.3.1-.5.4-.5.7 0 .3-.1.6-.4.7-1.2.4.1 8.6 1.6 9.7 1.8 1.2 3.5 1.3 4 0 .7-1.8-.1-11.3-1-10.7-.1 0-.3 0-.3-.2 0-.3-.3-.3-1 0-.6.2-1 .2-1 0 0-.5-.6-.5-1.4-.2m349.5 14.8c-.3.8-.3 3.4 0 5.3.3 1.8 1.4 1.9 1.7.1.5-2 1.5-3.6 2.7-4 .8-.4 1.2-.9 1.2-1.3 0-1-5.2-1.1-5.6-.1M19.6 145c-.3.2-.5 1-.5 2 0 1.6 0 1.7-1 1.7l-4 .3c-.2 0-.3 1-.3 2.7v2.5l1.4.5c1.4.4 1.8 1.3 1.9 3.8 0 1 .3 1.5 1 1.9 1.6.8 2.2-.2 2.1-4 0-4 0-4.1 2.3-4.4 4.9-.7 4.8-7-.1-7h-2.8m360.8 8.3c-.6 1.1-.6 1.3 0 2.4.2.6.5 1.5.5 1.9 0 1 2 .3 4-1.6 2.6-2.5 2-3.8-1.8-3.8-1.8 0-2 .1-2.7 1.1m5.5 9.7c-.4 1 0 3.8.5 4.2 1.4.9 2.5-3.4 1.2-4.6-1-.9-1.2-.8-1.7.4m-377.7.5c0 2.7 2.6 5.5 5.1 5.4 1.9 0 2.4-5.4.6-6-2.4-.8-5.7-.4-5.7.6m159.4 1.5c-1 .2-3 .8-4 1.3l-3.7 1.3c-3.7.6-7.9 4.3-10 8.7-3.8 8.1-3.6 6.6-3.6 30.2 0 25.2-.1 25 5.2 24l2.7-.5.8-2.4c.4-1.3.8-3.7 1-5.4.5-6 .4-6 16-6 15.2 0 16.9.6 16.4 5.4-.6 5.5 2 10 5.1 9.2 5.3-1.4 5.3-1.5 5.2-24.1 0-17.9-.5-24.4-1.8-26-.7-1-2.2-3.6-2.2-4 0-1.6-7-8.4-8.8-8.7-.8-.2-3.1-.9-5.2-1.7-4-1.4-9-2-13-1.3m11.3 2.4c4.9 1 8 2 8.9 3 5.3 5.8 6.1 7.1 7.6 12.2 1.5 4.8 1.6 6.9 1.7 24.8l.1 17.3-2.4 2.5c-2.7 2.9-2.7 2.9-4.2 0-.9-1.7-1-2.5-1-5.4 0-6-1.8-6.7-18.3-6.6-15.5 0-17.2.8-17.2 7.3v3.3l-1.6 1-2.6 1.8-1 .7-1-2.3-1-2.3.3-18.8c.2-19.9.5-23.1 2.5-25.3.5-.6 1.5-3 1.9-4.7.7-3.4 6.6-7.3 12.6-8.3l5-1c1.1-.3 6.6.1 9.7.8m-102.3.4c-2.7 1.6-2.6 0-2.5 29.8.1 27.1.2 28.4 1.5 31.7 1.2 2.9 5.7 1.9 7.7-1.7 1-1.9 1.1-2.2 1-5.3-.1-2.1 0-3.9.3-5l.6-2.6c0-1.7 3.3-3.4 6-3.1 3.1.3 3.7.6 6.3 3l3 3c.4.3 1.4 2 2.1 3.5 1.3 2.8 3.4 5.5 4.1 5.5.2 0 1.3.8 2.5 1.9 3 2.6 5.5 3.4 9.4 2.9 3.7-.6 4.3-1.1 4.7-4.6l.3-2.6-1.4-1.2a8 8 0 00-2.3-1.4c-1.2-.3-4-2-4-2.5 0-.2-.1-.3-.3-.3-.6 0-4.7-3.6-4.7-4 0-.3-.2-.7-.5-1a8 8 0 01-.9-3.1l-.2-2.5 2-1.8c1-1 2-2 2-2.3 0-.2.2-.5.5-.6 1.8-.7 4.2-5.4 4.6-8.8 1.1-10.8-.1-15.7-5.5-21a17.3 17.3 0 00-6.2-4.8 90.5 90.5 0 00-30.1-1m152.9-.4c-1.3.4-4.2 3-3.9 3.4.1.2.2 12.5.2 27.3v27l1 2.5c1.8 4.3 5 4.5 7.4.3l1.2-2.1.2-8.5.2-8.5 1.4-1.2c1.9-1.6 2.4-1.7 12-2 7.8-.2 9-.4 12.5-1.9 1.7-.7 1.6-.6 1-4-.6-3.6-1.4-3.8-12.8-4.1-8.9-.2-9.3-.3-12.3-2-2-1.2-2-1.1-2-7.2v-5.7l1.4-1.4c2.6-2.5 4-2.8 15.5-3 5.6 0 10.4-.3 10.6-.4 3.8-2.6 3.9-6.5.2-8.4-1.5-.7-31.7-.9-33.8-.1m58.6-.1c-.5.2-1.5.3-2.3.3-3 .1-4.5 3.2-2.5 5.6.3.3.5.7.5 1 0 1 4 2 8 2 6.7 0 9.2.8 10.8 3l.9 1.5.2 22.8c.4 28.6 0 26.6 4.4 27.2 2.9.5 3.5.4 4.1-.8 1.6-3.2 1.6-3.4 1.6-26.6 0-22.8.2-25.5 1.7-25.5l3.2-.8c2.2-.5 4.4-.8 7.4-.8 6.2 0 7-.3 8.3-3 1.2-2.7.8-4.7-1.2-5.7-1.3-.7-43-.9-45-.2m-185.7 1.4c3.4.8 4.8 1.5 6 3 .5.5 1.1 1 1.4 1 .8 0 3.4 3 6.2 7.1 2.5 3.7 1.8 16.7-1.2 19.8-.9 1-1.7 2.1-1.7 2.4 0 .6-3 3.6-4.5 4.5-.6.4-.7.8-.6 4v3.7l1.5 1.3 3.7 3.4c1.4 1.2 3.6 2.7 5.8 3.7l3.5 1.9-.5 2c-1.6 5.3-6.8 5.1-14-.5-2.8-2.3-3.8-3.6-5.6-8-.4-.9-.9-1.6-1.1-1.6-.3 0-1.5-1-2.7-2.4-2.4-2.6-3.1-3-6.7-3.3-6.9-.7-10.8 4-9.6 11.6.3 2.1.3 2.2-1 3.8-.7 1-1.3 1.9-1.3 2.1 0 .4-1.3 1.8-1.7 1.8-1.5 0-2.6-5.1-2.8-12.9-.3-10-.3-8.5 0-22.8.2-7 .2-14.4 0-17.9l-.4-5.8 1.6-1.5 1.6-1.5 10.7.3c7.6.1 11.5.4 13.4.8m159.5-.6a5 5 0 012.3 1.5l.8 1-1.2 1.7c-1.6 2.3-2 2.4-11.3 2.4-12.3 0-14.2.5-18 4.6l-1.4 1.4.2 5.7.3 5.6 1.2 1.2c2.6 2.6 6 3.3 16.6 3.3 7.2 0 8 .2 8.8 3 1.4 4.4.6 4.7-11.1 5-15.2.4-16.1 1.3-15.9 15.4l.1 5.6-1.7 2c-1.9 2.3-2 2.3-3.2.1-.7-1.4-.8-2.4-.8-29.6V170l1-.8c1.4-1.1 1.6-1.1 19-1.2 7.6 0 13.5 0 14.3.3m69-.1c3.5.4 4.3 2.5 2 5.4-.7.8-1.2.9-6.2 1.1a72 72 0 00-10 1.2 5 5 0 00-2 1.2c-2.3 2.3-2.2 1.3-2.2 25.6 0 29 0 29-5.7 25.7-2.4-1.4-2.4-1.2-2.4-26.2 0-14.8-.1-22.5-.4-23-.4-.7-3-3.5-3.3-3.5l-2.2-.5a35 35 0 00-5.6-.4c-5.3 0-11-2.9-9.2-4.7 1.9-2 35.7-3.3 47.1-1.9m65.7 1.6c-.2.2-1.4.4-2.7.5l-2.4.4c-.6.5-.6 5.3 0 6.3l.5 1 .6-.8c.3-.5.7-2 .8-3.3.3-2.6.9-3.3 2.7-3.3.7 0 1-.2 1-.6 0-.7 0-.7-.5-.2m-394 4c0 1.8 0 1.8-1.4 2l-1.5.1h1.6c1 .1 1.7.4 2 1 .6.8 2.5 1.9 4 2.1 1.5.3 2.4-2.3 1.8-4.9l-.5-1.8-3-.1-3-.2v1.8m165.7-.4a35.2 35.2 0 00-7.6 4.6c-1 0-3.9 3.7-4.7 5.8-1.3 3.6-1.5 5-1.7 12.2l-.3 6.9 1.3 1.7c.8 1 1.5 1.8 1.8 1.8.2 0 .9.3 1.5.7 2 1.1 22.8 1 26.6-.2 4.5-1.4 4.5-1.3 4.3-11.8-.1-9.8-.6-11.7-3.7-15a6.9 6.9 0 01-1.3-1.8c0-.2-.1-.3-.3-.3a28 28 0 01-4.7-2.7c-1.7-1.8-8.5-3-11.2-1.9m-80.7 2c-1.7 1-4 3.3-4.9 5-.8 1.6-.6 17.3.3 18.6 1 1.5 3.7 4 4.4 4 .3 0 .5.1.5.3 0 .5 6.7.5 7.2 0l2.8-.8c5.2-1.1 9.8-4.7 10.5-8 .5-3 .6-7.8.2-9.3-.7-2.3-1.7-4.5-2-4.5-.1 0-.8-.5-1.4-1.1-3.4-3.3-14.3-5.8-17.6-4.1m87.7-.6c.8.1 2.4 1 3.6 1.7 1.2.8 2.3 1.4 2.5 1.4 3.7 0 7 9.6 7 20 0 8.5-.3 8.6-16.7 8.6h-12l-1.5-1c-2.6-1.8-2.6-1.8-2.1-11.2.4-8.8.3-8.5 2.7-12.5 3-4.9 11-8.3 16.5-7m-77.6 2.5l3.3.8c.4 0 1.4.7 2.1 1.3l1.6 1.2c.1 0 .9 1.2 1.7 2.7 2.2 4.2 1.9 10.6-.6 12.5a3 3 0 00-.5 1c-.4 1.2-4.4 4-5.7 4-.5 0-2 .3-3.1.7-4.7 1.2-9.9.3-11.1-2l-.7-1.3a114 114 0 010-17.7l.6-1.1c.1-.4.7-1 1.3-1.4l1.3-1c.7-.8 5.2-.7 9.8.3m299 5.8c-.8 2.4-.9 18.7-.2 23l.4 2.6h3V181h-1.4c-1.3 0-1.3 0-1.9 2M0 195.2v12.1h1.5c2.5 0 2.5 0 2.5-11.8 0-12 0-12.3-2.5-12.3H0v12m7.2 16.2c-2.6 1-3.2 5-1 6.5 2.1 1.5 3.5-.5 3-4.3-.3-2.5-.6-2.8-2-2.2m384.3 2.3c-.7 1.5-.6 5.7 0 6 1.3.4 5.8.3 5.8-.2 0-.3-.5-.5-1-.5-1.3 0-2.5-1.4-2.8-3.4-.3-2.2-1.4-3.2-2-1.9m-380.5 8c-1.7.1-2.9 2-2.7 4v1.6H11c4.4-.2 5.2-1.2 3.7-4.3-.8-1.7-.8-1.7-3.6-1.4M3.2 223c-.2.3-.3.7-.2.9.4.5 2 .6 2 .1 0-.2-.3-.3-.8-.3s-.7-.2-.6-.6c.3-.7.1-.8-.4-.1m382.7 1c-.4 1 0 3.8.5 4.2 1.2.7 2.3-3 1.4-4.4-.9-1.2-1.4-1.2-1.9.1m-368.5 6.3l-.6 2.3c-.4 1.3-.7 1.8-1.8 2.3-1.4.7-1.4.7-1.3 3.1 0 2.8.2 2.9 3.5 2.9h1.9v2.1c0 1.2.1 2.2.3 2.2 2 .3 5 .3 5.4 0 2-1.8 1-6.3-1.5-6.8-2-.5-2.6-1.3-3-4.9l-.7-3.6c-.3-.6-2-.3-2.2.4m363.5 2.7c0 .4-.3 1.1-.5 1.6-.4.8-.5 1.2-.2 1.9.5 1 .5 1 3.4 1 2.8 0 2.8 0 2.8-1.2 0-2.3-5.5-5.6-5.5-3.3m-5.2 8c-1.6 5-.8 7 2.5 7 3.1.1 3.7-1 1.4-2.4a7.3 7.3 0 01-2.4-3c-1-2.2-1.3-2.4-1.5-1.6M29 250.3c-.3.4-1 1.7-1.5 3a7.1 7.1 0 01-2 3c-1 1-1.7 4.3-.7 4.3.2 0 .4.3.4.6 0 .4.1.6.3.4 0-.1.5 0 .8.4.5.5.6.5 1-.2.4-.4.6-.5.6-.2 0 1.3 2 .3 2.2-1 1-6.1.4-12-1-10.3m341 6.6c-.5 3.2 0 16.3.6 15.9.2-.1.4.2.4.6 0 .4.2.8.4.8s.4-.3.4-.6.1-.5.3-.4c.3.2.4 0 .4-.4 0-.5.1-.6.6-.2.5.4.6.4.6 0 0-1 .7.3.9 1.6 0 .8.2.2.2-1.3 0-1.4.2-2.6.5-2.6.2 0 .4-1.6.4-3.9v-3.9l-1.4-.2c-.8-.1-1.4-.4-1.4-.7 0-.2 0-.3-.2-.1-.5.5-1.5-1.5-2-3.8l-.4-2.4-.2 1.6m-335.6 34c-.7 3.7-1.3 5.4-1.9 6-.2.2-.5.6-.5.9 0 .3-.5 1-1.1 1.5-1.3 1-1.5 2.3-.8 4l.3.7v-.8c0-.4.2-.6.4-.4.1.2 1.2.4 2.3.5 3 .1 3.4-2.4 2.1-12.7l-.3-2.2-.5 2.6m330 9v6.3l2.1.2c2.9.3 4.3-.4 2.1-1-2.1-.7-2.8-1.7-3.1-4.4-.4-3-.7-3.3-1-1.1m-326.1 9.3c-1.6 1.2-1.7 2.4-.2 3.4 2.6 1.9 4.9-.7 3-3.4-.8-1-1.3-1-2.8 0m320.7 1.4c-.4.3-.4 3.1 0 3.4.7.4 1.3-.5 1.2-2-.1-1.4-.7-2-1.2-1.4m-314.8 5c-.8.8-.7 1.6.2 2.5 1 1 1.9 1 2.3-.2.6-1.6 0-3-1.3-3-.3 0-.8.4-1.2.7m309.4 1.7c0 1 .7 1 1.7.3.8-.6.5-1-.8-1-.6 0-.9.2-.9.7M50.3 321c-.6.4-1.1 3.7-1 5.4.2.7.5.9 1.3.9 1 0 1.1.1 1 .6-.2.5 0 .5.3 0s.7-.9.9-.8c.9.3 1.7-1 2-3l.2-2-1.7-.8c-2-.7-2.3-.8-3-.3m297.6.5c-1.4.8-.1 2.4 1.7 2.1 2.7-.4 3.2-1.5 1-2.1-1.8-.5-1.6-.6-2.7 0m-289.3 5.3c-1.2.3-1.9 4.2-.9 5.4 1.4 1.7 7.3-.3 7.3-2.4 0-.3.2-.6.4-.7.7-.2.8-1.7.1-2-1-.4-5.6-.6-6.9-.3m279.4 0c-3 .5-2.2 1.9 1.3 2.3 1.9.2 3.3 1.3 3.6 2.7.6 2.4 1.8.8 1.7-2.4 0-3-.9-3.4-6.6-2.6m-286.6 2.6c0 .3.2.6.4.6s.4-.3.4-.6-.2-.6-.4-.6-.4.3-.4.6m.2 1.7c0 .4.3 1 .7 1.2.6.4.7.4.4 0-.2-.4-.2-.5.3 0 .3.2 1.2.4 1.9.3.7 0 1-.1.8-.3-.3-.1-.8-.2-1.2 0-.4 0-.8 0-.8-.3 0-.2-.3-.5-.8-.6-.4 0-.7-.4-.5-.6.1-.2 0-.4-.3-.4s-.5.3-.5.7m20.5.8c-1.6.2-2 .8-2 3.1 0 1.2-.2 2.4-.5 2.7-.3.4 0 .5 1.5.5 1.7 0 2-.2 3.6-1.8 1-1 2-1.7 2.4-1.7 1.2 0 2.6-1.4 2-2-.4-.5-5.3-1-7-.8m251.9.6c-1.1.4-1 1.2.3 2.5l.5.8c0 1.4 2.2 2.4 5 2.4 2.1 0 2.8-.2 2.4-.4-.3-.2-.4-.4 0-.4.2 0 .3-.3 0-1-.1-.7-.2-1.7 0-2.3.2-2-5-3-8.2-1.6m-241 5.2c-.2.5-.4 1.8-.4 3 0 1.6-.2 2.2-.7 2.5-.6.3-.4.4.7.4s1.5-.2 2-1.3a5.8 5.8 0 014.6-2.6c.9 0 1.4-1.1.7-1.7-1-1-6.4-1.1-7-.3m230.7 0l-1.7.7 2 2.6 2 2.6h2.4c1.6 0 2.1-.1 1.5-.3-.9-.3-1-.4-.9-2.7.2-3.5-1.4-4.4-5.3-2.9m-219.8 4.8c-1.9 1 .1 3.7 2 2.7 1.6-.8 1.6-1.3.2-2.2-1.5-1-1.3-1-2.2-.5m211.2.4c-.7.7-.5 1.8.3 2 1 .4 2.9-.4 2.7-1-.3-.7-2.5-1.5-3-1m-205.5 5.4c-.7.8-.7.9 0 1.4 1.2.9 2.5 0 1.5-1.1l-.7-1-.8.7m200.2.6c-.4 1 .1 1.4 1 1 .7-.4.7-.6.3-1-.5-.8-1-.8-1.3 0m-194.7 5c-.3 1-.1 1.1 1 1 .8-.2.8-.2 0-.9-.7-.6-.8-.6-1 0m189.3.3c-.3.8.3 1.5.9.9.3-.4.3-.7-.1-1-.4-.4-.6-.3-.8 0m-183.8 5.2c-.4 1 .3 1.7 1 1 .3-.3.3-.6-.2-1-.5-.6-.6-.6-.8 0m5.3 5.6c-.3.2-.3.5 0 1.2.6 1 .6 1 .9.2l.4-1c.2-.4-.8-.7-1.3-.4m5.2 6.3c.2.8 1 1.4 1 .8l.1-1c.2-.4 0-.6-.5-.6-.6 0-.7.2-.6.8m9.7 9.8c-.7.5-.7.6.2 1.2 1.1.8 2.2.8 3 0 1.3-1.3-1.6-2.4-3.2-1.2m43.2.1l-1.6.5 2.8.8c1.5.5 3 .9 3.4.9.4 0 1.2.7 1.7 1.7l1.1 1.7h3.3c1.8 0 3.2 0 3-.2-.6-.4-.8-1.2-.7-3.3v-1.8l-1.7-.4a36 36 0 00-11.3.1m42.8-.1c-1.3.3-1.7 1.5-1.3 4.1 0 .3-.2.5-.4.5s-.3.2-.2.3c.1.2-.1.5-.5.6-.8.3 6.4 0 8.5-.3 1.1-.1 2-.7 3.8-2.5l2.3-2.3-1.9-.5c-2.3-.5-8.6-.4-10.3 0m50.3.2c-1 .8.2 2 1.7 1.6 1.9-.5 2.2-1.1 1-1.7-1.5-.6-1.8-.6-2.7.1m14.4 4.5c-.7.3-.7.3 0 .4.5 0 1-.2 1.2-.4.3-.5-.1-.5-1.2 0m-142.8.4c-.5.3-.7.9-.7 2v1.5h28v-1.3c0-2.3-.5-2.4-14.4-2.5-8 0-12.5 0-13 .3m98.9.1c-1.4.5-1.6.7-1.7 2l-.1 1.4H263.3V388c0-2.5 0-2.5-12.8-2.5-8 0-12 .2-13.1.5"/><path d="M20 133.2c.2.2 0 .5-.4.7-.3.2-.5.4-.3.6.2 0 .7-.2 1-.5.6-.6.6-.8.1-1-.3 0-.5 0-.4.2m149.2 33.6l-5 .9c-6 1-11.8 4.9-12.5 8.3a15 15 0 01-2 4.7c-1.9 2.2-2.2 5.4-2.4 25.3l-.3 18.8 1 2.3 1 2.3 1-.7 2.6-1.7 1.6-1.1v-3.3c0-6.5 1.7-7.2 17.2-7.3 16.5-.1 18.3.5 18.3 6.6 0 3 .1 3.7 1 5.4 1.5 2.9 1.5 2.9 4.2 0l2.4-2.5v-17.3c-.2-18-.3-20-1.8-24.8-1.5-5.1-2.3-6.4-7.6-12.1-1.9-2-15.2-4.8-18.7-3.8M77 169.3l-1.6 1.5.3 5.8c.3 3.5.3 10.8.1 18-.3 14.2-.3 12.7 0 22.7.2 7.8 1.3 12.9 2.8 12.9.4 0 1.7-1.4 1.7-1.8 0-.2.6-1.2 1.3-2 1.3-1.7 1.3-1.8 1-4-1.2-7.5 2.7-12.2 9.6-11.5 3.6.3 4.3.7 6.7 3.3 1.2 1.3 2.4 2.4 2.7 2.4.2 0 .7.7 1.1 1.6 1.8 4.4 2.8 5.7 5.7 8 7 5.6 12.3 5.8 13.9.4l.5-1.9c0-.1-1.6-1-3.5-1.9-2.2-1-4.4-2.5-5.8-3.7a933 933 0 00-3.7-3.4l-1.5-1.3v-3.6c-.1-3.3 0-3.7.6-4.1 1.5-.9 4.5-3.9 4.5-4.5 0-.3.8-1.4 1.7-2.4 3-3 3.7-16 1.2-19.8-2.8-4.2-5.4-7-6.2-7-.3 0-1-.6-1.4-1.2-2.2-2.7-5.8-3.4-19.4-3.7l-10.7-.3-1.6 1.5m155.4-1.1c-1.7 0-2.6.3-3.4 1l-1.1.8v28.2c0 27.2 0 28.2.8 29.6 1.1 2.2 1.3 2.2 3.2 0l1.7-2-.1-5.7c-.2-14 .7-15 15.9-15.4 11.7-.3 12.5-.6 11-5-.8-2.8-1.5-3-8.7-3-10.6 0-14-.7-16.6-3.3l-1.2-1.2-.3-5.6-.2-5.7 1.3-1.4c4-4.1 5.8-4.6 18-4.6 9.3 0 9.8-.1 11.4-2.4l1.2-1.6-.8-1.1a5 5 0 00-2.3-1.5c-1.2-.3-23.3-.4-29.8-.1m54.5.6c-4.3 1.5-4.3 2.6 0 4.7 2.5 1.3 3 1.4 6.3 1.3a35 35 0 017.8.9c.2 0 3 2.8 3.3 3.5.3.5.4 8.2.4 23 0 25 0 24.8 2.4 26.2 5.7 3.2 5.7 3.2 5.7-25.7 0-24.3-.1-23.3 2.2-25.6a5 5 0 012-1.2l2.7-.6c1-.2 4.3-.5 7.3-.6 5-.2 5.5-.3 6.1-1.1 2.4-2.9 1.6-5-2-5.4-6-.7-41.8-.3-44.2.6m-109 5.4l1.8 1a28 28 0 005 3.1c0 .2.6 1 1.3 1.7 3 3.4 3.6 5.3 3.7 15.1.2 10.5.2 10.4-4.3 11.8a102 102 0 01-26.6.2 6 6 0 00-1.5-.7c-.3 0-1-.8-1.8-1.8l-1.3-1.7.3-7c.2-7.2.4-8.5 1.7-12.1.8-2.1 3.8-5.8 4.7-5.8a35.2 35.2 0 017.7-4.6c1.8-.8 7.5-.3 9.4.8M97.5 176c4 1.2 6.3 2.2 7.8 3.6.6.6 1.3 1.1 1.4 1.1.3 0 1.3 2.2 2 4.5.4 1.6.3 6.3-.2 9.2-.7 3.4-5.3 7-10.5 8.1-1.3.3-2.5.7-2.8.9-.5.4-7.2.4-7.2 0 0-.3-.2-.5-.5-.5-.7 0-3.5-2.4-4.5-3.9-.8-1.3-1-17-.2-18.7 2.7-5.3 6.9-6.5 14.7-4.3"/><path d="M136.7 1.9c0 3.7 0 3.7-4.8 4.1-2.3.2-3 .5-3.2 1-.7 2.2-1.1 2.5-3.2 2.6-2.5 0-2.7.3-3 2.5-.3 2-.1 1.9-1.9 2-2.4.4-2.8.8-2.6 2.8.1 2.2-.4 3.2-1.9 3.5-2.5.6-4.2 5.5-2.1 6.2 2.2.9 4-.7 4.4-3.5l.2-1.9h1.6c2-.2 3.3-1.5 3.3-3.3 0-1.4.8-2.2 2.4-2.5 1.9-.4 3-1.3 3-2.3 0-1.2 1-2 2.7-2.4a14 14 0 002.6-.8l2.2-.9c.6-.2 1.3-.9 1.5-1.5 1-2 2.6-2.2 16.4-2.1h12.3l.3-1.2c.6-3.3.3-4.2-1.4-4.2-1.5 0-1.5 0-1.5 1.5 0 2.3-.4 2.3-12.6 2.4-12.1.2-12.4.1-12.4-2.4C139 .1 139 0 138 0c-1.2 0-1.2 0-1.2 1.9m97.5.5l.5 2.7c.1.2 5.6.3 12.3.3 14 0 16.3.2 16.7 2.2.1.8.5 1.2 1.1 1.4.6.1 1.5.5 2.2.9.6.3 1.5.6 2 .6 1.8 0 2.5.5 3 2 .3 1.4.6 1.6 2.4 2 1.9.7 3.3 2.1 3.3 3.6 0 .7 1.5 1.8 2.6 1.8 1 0 2 1 2.5 3 .6 2 1 2.4 2.8 2.7 1.7.2 2.2 1 2.2 2.9 0 1.7 1.2 3 2.6 3 1.7 0 2.2-.4 2.2-2.3 0-2.7-.1-3-.5-3.3-.2-.1-.3-.4-.1-.7.1-.3 0-.3-.4-.2-.4.2-.7.1-.7 0 0-.2-.4-.3-.9-.2-1 .2-2.4-1.2-3.2-3.5-.1-.4-.4-.7-.6-.7-.2 0-.3-.1-.2-.3.4-.6-1.8-2.4-3-2.4-.8 0-2.5-2.2-2.7-3.6-.5-3-.5-5.3-.1-5.5.2 0 0-.3-.6-.4-.6-.2-1.1-.4-1.2-.6V5.6c-.1-1.2-.3-2.2-.4-2.3-.5-.5-3.1-.4-3.6.1s-.6.5-.6 0c0-.4-.2-.7-.4-.7s-.4.4-.4.8c0 1.7-1.3 2.3-4.6 2.3-3.8 0-4.3-.3-4.6-3.4-.3-3-1.7-3.7-1.7-.9 0 2.5-.3 2.5-12.1 2.5-11.8 0-12 0-12-2.5V0h-4l.2 2.4m-49.3.8c-.8.3-1 .5-.6.7.6.4.5 4.3-.2 4.8-.5.3-10.2.4-11.9 0l-1.1-.2 1.5-1.4c1.3-1.1 3.3-4 2.9-4-.3 0-3 1.6-4.1 2.4-.6.4-1.6.7-2.4.8-1.6.1-2.2 2-.9 2.4a65 65 0 0013.2 1.7l5.8.2 1-1c1-1 1.4-5.3.6-5.3-.2 0-.1-.2.2-.4.5-.3.5-.4 0-.4-.3 0 .1-.2 1-.4 1.3-.2 1.1-.3-1.2-.3a15 15 0 00-3.8.4m26.8-.2l1.2.2-.2 2.8c-.2 4.2 0 4.3 7.3 4.3A46.5 46.5 0 00232.3 9c1.4 0 1.9-.6 1.4-1.7-.3-1-.6-1-2-1-1.6 0-4.8-1.6-6.7-3.1-.8-.7-.8-.6-.1.5 1.2 2 1.5 2.4 3.6 3.6l2.1 1.2-1.5.2c-.8.1-3.7.3-6.4.3-5.4 0-5.8-.2-5.6-2.2 0-.6 0-1.3-.2-1.4-.3-.1-.3-.5 0-1 .6-1.2-.7-1.7-4-1.6-1.3 0-1.9.1-1.2.2m-77.3 4.7l1 .8-1.7.5c-2.2.6-3.7 0-2.6-1.2.8-1 2.2-1 3.3 0m135.2 0c1.3.8.8 1.2-1.6 1.2-1.8 0-2.2-.5-1.4-1.4.8-.8 1.7-.7 3 .1m-78.4 4.8c-1.2 1.2-1 1.3 3 1.8 6.9.9 17.3.3 17.3-.9 0-2-18.4-2.8-20.3-1M127.6 14h-1c-1 0-1 0-.2-.8.6-.7.7-.7 1 0 .3.3.3.7.2.8m76.9-.3c.6.2-.7.3-3.3.3-3.3 0-3.8 0-2.4-.3a14 14 0 015.7 0M122 19.2c-.7.7-1.3 0-.8-1 .4-.7.4-.7.8-.1.2.4.2.8 0 1m-5.2 5.7c-.7.9-1.6-.1-1-1 .4-.8.5-.8 1-.2.3.5.3.8 0 1.2m-7.5 2.8c-1.8 2-1 5.1 1.3 5.1 1 0 2.8-2.6 2.7-4-.2-2-2.6-2.6-4-1m2.3 1.8c.3 1-.4 1.5-1.2.9-.4-.4-.5-.6-.1-1 .6-.8 1-.7 1.3 0M293 33.7c-.3 2.2.8 3.4 3.2 3.4 2 0 2.1-.7 1-3.5-1-2.4-3.8-2.4-4.2 0m-188.7.2c-1 .9-1.2 1.3-1.2 2.8v1.7h-1.6c-2.2 0-3.4.9-3.7 2.7-.3 2-.7 2.3-3.6 2.7-2.7.3-4 1.2-4 2.8 0 1.5-1 1.6-4.6.3l-2.1-.7 1.7 1.7c1 1 2.3 2.2 3 2.6.7.4 1.3 1 1.3 1.1 0 1-6.3 1.7-7.2.8-.6-.7-1-4.6-.5-5.4.2-.3 0-.5-1-.5h-1.3l.2 3.1c.1 3.5-.6 5-1.9 3.8-.3-.3-1-.6-1.5-.6-.4 0-.9-.2-1-.4-.2-.2-.6-.4-1-.4s-1-.3-1.1-.7c-.3-.4-.4-.5-.5-.3 0 .2 1.2 1.6 2.6 3.1 2.8 3 3 3.3 1.4 3.6-.6 0-1.7.3-2.5.5-1.4.3-4.9-.1-5.4-.7-.5-.4-.7-4.7-.2-4.7.2 0 0-.3-.4-.6a4 4 0 00-2-.5c-.8 0-1.2 0-.9.2 1.2.5 1.6 6 .5 7.2-1.2 1.5-4.9 1.2-7.6-.6l-1.3-1 .2 1c.2 1.3 1.2 2 4 2.4 5.2 1 4 2.8-1.9 2.8-3 0-3.1-.3-3.3-3.8 0-2.3-.1-2.8-.7-2.8-.5 0-.6.5-.4 3.4.1 4.2-.2 4.5-4.2 5-2.6.2-3 .5-3.4 2.3-.3 1.3-.8 1.7-2.2 1.7-1.7 0-3 1.4-3.1 3.2-.1 1.5-.3 1.7-1.4 2-3.1.8-3.6 8.5-.5 8.5 1 0 1.7-1.3 2.7-4.6.8-2.8.9-2.8 2.2-2.8 1.4 0 2.9-1.5 3.6-3.7.3-1 .6-1.3 1.7-1.4 2.3-.4 5.4-2.4 5.4-3.5 0-.7 1.8-1.6 4.7-2.2 1.6-.3 3.6-1 4.4-1.3a7 7 0 012-.8c.4 0 .6-.4.6-1 0-1.2 1.4-1.9 4.7-2.3 4.7-.5 8-1.8 8.1-3.3.2-1.3.4-1.4 2-1.7 6.4-1.2 8-1.9 8.7-3.4.6-1.5 1.6-2.3 2.8-2.3 1.4 0 4.2-1.7 4.6-2.8.2-.6.7-1.2 1-1.3 1.4-.4 4-3.3 4.3-4.6.2-.9.5-1.3 1-1.4 1.9-.2 4.6-4.5 3.4-5.2-1.3-.7-2.5-.6-3.6.3m191.1 1.5c-.2.8-1 .7-1-.1 0-.6.1-.7.6-.6.3.2.5.4.4.7m-189.2 0c0 .8-.8 1.2-1.2.6-.1-.3-.2-.7 0-.8.2-.6 1.2-.4 1.2.2M298.2 38a3.6 3.6 0 004.6 4.6c1.1-.4.6-3.3-.8-4.7-.7-.7-3.5-.7-3.8.1m-196.6 2.2c.3.4.2.7-.4 1.4-1 1-1.3 1-1.9 0-.8-1.4 1.1-2.6 2.3-1.4m199.7 0c.3.5-1 1.6-1.5 1.2-.1 0-.3-.5-.3-1 0-.8 1.3-1 1.8-.2m8.8 1.3c-.5.5-1.8.9-3.7 1.1l-2.8.4-.1 1.6c-.1 1.7 1.1 3.3 2.6 3.3 2 0 3.4.8 4.2 2.2 1 2 3.2 3.2 7.3 3.9 3 .4 4 1 4.3 2.2.2.6.6 1.2 1 1.3l1.8.7c.7.3 3 .9 5 1.2 5.2.8 5.3.8 5.3 2 0 1.5 6.3 4 9.7 4 .5 0 1 .5 1.3 1.3.8 1.8 1.7 2.5 4.3 3.3 2 .6 2.4.9 2.6 1.8.4 1.4 1 2.2 1.9 2.2 1 0 3.1 2.3 3.1 3.4 0 4 4.7 4.4 5.1.4.2-1.2.5-2.5.7-2.7 1.2-1.6 1-2.3-.8-2-1.2 0-1.4 0-.7-.2.7-.3.8-.4.3-.4-.3 0-.7-.2-.9-.4-.2-.5 1.2-.4 1.6 0 .2.2.5 0 .9-.3.4-.4.4-.7.2-1-.3-.2-.5-.2-.7 0-.4.7-1.7.6-2.5-.2-.6-.6-.6-.6-.8 0 0 .4-.3.7-.5.7s-.3 0-.2.2c.2.2.5 0 .8-.2.4-.3.5-.3.5.2 0 .3-.2.6-.5.6s-.5.1-.3.4c.1.2.4.2.6 0 .3 0 .4 0 .2.3s-.3 1.7-.3 3.2c0 2.4-.6 3.8-1.3 2.7-.8-1.4.6-9.8 1.6-9 .2.3.4 0 .4-.9s0-1-.2-.4c-.3.9-1.6 1.1-1.6.3 0-.3.2-.5.4-.3.3.2.4.1.2-.2-.2-.4-.4-.4-.8 0-.5.4-.6.3-.4-.2.2-.3.1-.6-.1-.6s-.5.2-.6.5c-.1.2-.2.3-.2 0 0-.2.3-.7.7-1.2.5-.6.6-.9.3-1-.4-.2-.4-.2 0-.2.3 0 .5-.2.5-.4 0-.3-2.8-.3-3.4 0-.2.2-.5 0-.7-.3-.3-1 .6-1.3 1.6-.7.6.4 1.2.5 1.8.3l.9-.2-.9-.4c-.6-.2-.8-.5-.6-1 .2-.5.1-.6-.2-.1-.2.3-.3.7-.2.9 0 .1-.1.3-.5.3s-.5-.2-.3-.8c.2-.7.1-.8-.5-.4-.6.2-1 .2-1.3-.1-.4-.4-.5-.4 0 .2.3.5.3.6-.2.8-.7.3-1.1-.3-.7-1 .1-.2-.3 0-1 .4-4.5 2.7-6.3 2-6.4-2.9v-3l-1.2-.2c-.7 0-1 0-.8.2.2.2.3 1.6.3 3.1-.2 3.6-.5 3.8-5 3-3.6-.7-4-1.4-1-2.4a7 7 0 003.6-2.9c.4-.7-.4-.5-3 .9-1.7 1-2.9 1-3.8.3-1-.7-1.2-7.2-.3-7.4.3-.1 0-.2-.6-.2-1.6-.1-1.8.3-1.7 3.5v2.6l-1.4.3c-1.8.3-6.8 0-7.3-.6-.8-.8 1-2 3.5-2.3 3-.5 3-.6 3.8-2l.6-1.2-1 .5-1.6.8c-.3.2-1.5.4-2.8.5-3.4.4-4.5-.8-4.3-4.6.2-2.7 0-3-1.8-2.7-5 1.2-6.5.6-6.3-2.7 0-2 .2-2.7.6-2.5.3 0 .5 0 .5-.2 0-.7-4.9-.2-5.8.6m-213.8 4c.6.5.6.6-.3 1.3-1.7 1.3-4.2.3-3.2-1.3.6-.9 2.5-1 3.5 0m212.5 0l1 .8-2.1.4c-1.7.4-2.2.3-2.6 0-1.6-1.7 1.8-2.6 3.7-1.2m9.8 3.4c1.2.6 1.8 2.3 1.1 3.1-1 1.4-6.6.4-6.3-1 .6-2 3.3-3.1 5.2-2.1m39.3 17c.3.5.3.7 0 1-.5.4-.6.2-.6-.5 0-1.1 0-1.1.6-.4M53 67c.7.7.6.7-.5 1.5-1.2.9-2.2.8-3-.3-1.2-1.6 2.2-2.7 3.5-1.3m300.3.2c.6.9.2 1.1-1.8 1.3-3.1.4-4.6-.4-3.3-1.7.7-.8 4.6-.5 5.1.4m9.2 2.6c.5.3.5.4 0 .4-.4 0-.4.1 0 .5.2.2.5.3.6.2.4-.4-.1-1.5-.7-1.5-.3 0-.3.2.1.4m-316 1.7c.7.6.7 2 0 2.5-.6.5-2.2.2-2.2-.4-.2-1.9 1.2-3.2 2.3-2.1m-4.6 7c0 1.5-1.1 2.7-2 2.2-1-.5-1-3.1-.1-4 .8-.9 2 .3 2 1.8m-12.3 6c0 5.2 0 5.5.5 2.3.2-1.6.3-1.8.6-1.2.2.4.3.6.3.4 0-.2 1-.4 2.2-.3 3.1.2 3.4 1.6 2.5 11l-.5 4.5-.5-2.2c-.3-1.1-.5-2.5-.5-3 0-2-2-5-3.8-6-.6-.4-.4 0 .7 2.3.4.8.7 1.8.7 2.3 0 .5.2 1.4.5 2 .6 1.7.8 2.4 1.1 7l.6 6.6c.4 4.1 1.2 4.4 1.5.5l.8-8.8c.3-3 .7-8.3.8-12l.3-6.5h-5.6l-1.7-.1-.2-2c-.2-1.2-.3 0-.3 3.1M370 80c0 .5-.7.6-3.3.7-2 0-3.3.2-3.5.5-.7 1 .3 9.7 1.6 14.1l.3 1.2.7-1.6.9-3.3c.2-2.2 1.2-5 2.1-6.2.9-1.1.7-1.4-.5-.8-1.6.9-2.3 1.7-2.5 3l-.5 2.7-.2 1.1-.3-1.1c-.5-2.2-.4-6.9.1-7 1.3-.5 4.6-.5 4.7-.1.4 1 .7-.2.6-2 0-1-.2-1.6-.2-1.2M24.3 94.6c0 1.7 0 2.3.1 1.5v-3l-.1 1.5m348 8c-.3.4-.5.6-.7.4-3-4.2-4.2 30.3-1.3 35.6.5.8 2.3-1 2.7-2.6 0-.6.7-2.7 1.3-4.7 1.3-4 1.3-4.2 0-3.5-1.5.7-2.3 2-3 4.4l-.8 2.3-.3-4c-.3-4.6.1-14.4.6-13.6.3.4.4.3.4-.3 0-.5.2-1 .4-1.1.2-.2.4 0 .4.3 0 .4.1.7.3.7.3 0 .4.2.4.6 0 .4.2.5.5.3l.9-.4c.2 0 .5-.7.6-1.5.2-1.3.3-1 .3 1.2 0 1.6.2 2.9.5 2.9a78 78 0 00-.4-16.9c0 .8-.8.6-.8-.2 0-.6-.1-.5-.4.1-.2.6-.3.6-.4.2 0-.5 0-.5-.3 0-.3.4-.4.4-.5-.2-.2-.7-.2-.7-.5 0M24.8 121c-.4 4.5-.3 8.4.1 8.4.2 0 .4-.2.4-.5 0-.7 1.7-1.3 1.9-.7 0 .3.4.3 1 0 .7-.2 1-.2 1 0 0 .3.2.4.4.3.8-.6 1.6 8.9.8 10.7-1 2.5-4.7.4-5.3-3-.6-3.1-1.8-4.4-2.7-3-.1.3-.5.3-.9.2-.4-.1-.5 0-.3.2.2.3 0 .4-.3.3-.3-.2-.7 0-.9.2-.1.3 0 .4.2.2.2-.1.5 0 .7.2.2.3 0 .4-.7.3-.8-.2-1 0-.8.3 0 .3.3.4.5.3.2 0 .4 0 .6.2l-.1.4c-1-.2-1.4 0-1 .5.3.4.3.7 0 1-.4.5-.4.5 0 .3.5-.3.6-.2.3.2-.3.3-.5 2-.6 3.9v3.3h5.6l.7 1.3c1.4 2.8.1 5.3-2.9 5.7-2.3.3-2.3.4-2.3 4.3.1 5.3-2.7 6.5-3.2 1.4-.2-2.4-.4-2.7-2.2-3.2-1.2-.3-1.2-.3-.6.3 1.5 1.7 2.3 5.3 1.3 6.3-.6.6-6.2.6-6.9 0-.3-.4-.4-.3-.4.4 0 1 .6 1.1 3.8 1.3 3.2.2 4 1.3 2.7 4-1 2.4-1.2 2.4-3.6 1.3-1.3-.5-2-1.1-2.2-2-.4-1-.6-1-2-1-1 0-1.4 0-1.2.4.2.3 0 .3-.3.1-1.1-.7-2-.6-1.5.2.3.6.3.7-.3.6-.6 0-.7.2-.7 2.7v2.8l3 .2 2.8.1.5 1.8c.6 2.6-.3 5.2-1.8 5-1.4-.3-3.4-1.4-4-2.2-.3-.5-.7-.6-1.9-.5l-1.5.1v6.6h1.5c2.5 0 2.6.2 2.5 12.3 0 11.8 0 11.8-2.5 11.8H0V212h1.3c1.9 0 2.4 1 2 4-.5 4.3-.4 7.3.1 6.8.4-.3.5-.3.3.2s0 .7.5.7.9.1.9.4c0 1.1 3 .3 3.8-1 .4-.8 1.1-1.4 1.5-1.4.4 0 1.3 0 2-.2 1.4-.2 1.5-.2 2.2 1.5 1.5 3.2.7 4-3.8 4.2-2.2 0-2.6.2-2.6.8 0 .6.4.7 3.1.6 5 0 5.2.5 3 6-.3.7-.3.7.8.1 1-.4 1.3-1 1.7-2.2l.6-2.3c.2-.7 1.9-1 2.2-.4l.7 3.6c.4 3.6 1 4.4 3 4.9 2 .4 3 2.5 2.4 4.7-.7 2.3-1 2.5-4 2.3l-2.6-.1v2c0 2.4.2 2.7 1.5 2 1.1-.5 3.3-.3 4.5.4 1 .6 1 3 0 5.4-.3 1-.6 1.9-.5 2 .5.5 2.3-1.7 3-3.7 2.4-6.5 4-1.6 2.5 7.4-.2 1.3-2 2.3-2 1 0-.3-.3-.2-.6.2-.5.7-.6.7-1.1.2-.3-.4-.7-.5-.8-.4-.2.2-.3 0-.3-.4 0-.3-.2-.6-.4-.6s-.3 1.3-.3 3.4c0 3.5.5 9.2.7 7.5 0-.8.1-.9.4-.4.3.3.5.4.7.2.4-.6 1.3-.7 1.8-.2.4.3.6.3.8 0 .1-.2.4-.3.6-.2 2.4 1.4 3.4-17.4 1.2-21.7-.7-1.4-1.2-1.9-1.9-1.9-1.2 0-2-1.8-2-4.7 0-2.7-1-4.5-3.3-6-1.4-1-1.4-1-2.2-4.5-.5-2.4-1.8-4-3.4-4.4-1-.2-1.1-.5-1.6-2.5-.2-1.2-.9-2.9-1.4-3.7l-1-1.8c0-.2-.5-.5-1.2-.7-1.3-.4-1.4-.4-2.6-5.4-.8-3.2-1.5-4.6-2.5-4.8-3.4-.9-3.7-26.5-.3-27.3 1.2-.3 2.6-3.1 3.2-6.4.4-3 .9-3.7 2.2-4 1.3-.2 3.5-4.2 3.8-6.8.2-1.3.4-1.6 1.4-1.8 1.7-.3 3.3-2.5 3.6-5 .3-2.3.4-2.4 3-4.7 1.7-1.4 2.3-3 2.3-6.3 0-2.2.1-3.2.5-3.3l1.5-.4c3.8-.9 4.5-23.4.8-23.7h-1.9l-1.6-.4c-.3-.2-.5-.1-.5.2 0 .2-.2.1-.3-.3-.2-.5-.4.3-.6 2.3m350.4 19.4c-3.1 1.1-1.4 10.8 1.9 10.8 1 0 1-.2 1.3-1.4.4-2 1.4-4.5 2-5.1.8-.9.3-1-1-.4-1 .6-2.2 2.6-2.5 4.4-.2 1.4-1.3 1.1-1.6-.5-.8-5-.4-6 3-6h2.6V140h-2.4c-1.4 0-2.9.2-3.3.4m3.5 11.4c-.4 1 0 3.8 1 5.7l1 2.4c0 .4.6.7 1.1.7 1.3 0 2.3 1.2 2.5 3.2.4 3.1 2.3 5.7 3.9 5 .7-.2 1.1.8 1.6 3.8 1 5.5 1.6 6.8 3.3 7l1.4.1v-2c0-2.2.9-5.2 1.8-6.3.7-.7.7-.7-.3-.7-1.6 0-2.3.8-2.5 3.3a9.6 9.6 0 01-.8 3.3l-.6.9-.6-1.1c-.5-1-.5-5.8 0-6.3l2.5-.4c2.7-.2 3.3-.6 3.3-2 0-.9-.1-1-.4-.3-.4.5-1 .6-3.3.6-4.2 0-4.1.2-4.1-4 0-2-.2-4.1-.4-4.7-.2-.6-.2-1.3 0-1.9.2-.4.3-.6.4-.3 0 .4.1.4.6-.2.3-.4.5-.5.4-.3-.2.3.1.7.5 1 .6.2.8.2.8 0 0-.3-.2-.5-.5-.5s-.3 0 0-.3c.3-.1.4-.5.2-.7-.3-.5-1.6-.5-1.6 0h-.6c-.3-.1-.5-.4-.4-.6.2-.2.4-.2.6 0 .2 0 .4 0 .4-.3s.2-.4.5-.3c.3.1.8 0 1-.1.5-.3.4-.4-.4-.4-.5 0-1.2-.2-1.4-.4-.3-.3-.5-.3-.7 0-.2.4-.2.4.1.3.3-.2.5-.1.5 0 0 .3-.2.6-.4.7-.5.3-1.6-.8-1.3-1.2 1-1-1.7.6-3 1.7-2 2-3.9 2.7-3.9 1.6 0-.4-.3-1.3-.6-2-1.2-2.2.2-3.5 3.4-3.3 2.4 0 2.7 0 2.7-.6 0-1-7.3-1-7.7 0m8.8 5.2c0 .2-.1.4-.4.4-.2 0-.4.3-.4.6 0 .5 0 .5-.2.2v-1c.3-.7 1-.8 1-.2m1 2v.8c-.2-.4-.4-.4-.7-.2-.3.3-.6.2-1-.1-.3-.4-.3-.6.4-.8.6-.2.7-.3.3-.6-.4-.2-.3-.3.2-.3.6 0 .8.4.9 1.3m1.2-.6c-.4.1-.6.4-.4.6.3.5 2.4.6 2.4.1s-1.3-1-2-.7m-2.2 4.2c1.3 1.2.2 5.5-1.2 4.6-.6-.4-.9-3.1-.5-4.2.5-1.2.7-1.3 1.7-.4m-221.2.5c-1 .2-2.3.7-3.1 1.1l-3.8 1.7c-1.3.4-2.7 1-3.1 1.4-.4.2-1 .5-1.4.5-1 0-5.8 5.1-5.8 6.3 0 .3-.5 1-1.1 1.5-1.2 1.1-2 3-3 7.2-1 3.1-1.3 41.2-.6 44.5 1 4.1 2.7 5.4 7 5 5.4-.6 6.6-2.6 6.6-10.5 0-2.6.1-3 1-3.3a69 69 0 0124.4-.5l2.1.8c.4 0 .6 1 .7 3.6.4 8.9 2.6 11 9.7 9.6 4.5-1 4.6-1.7 4.8-20 .2-20.8-.5-29.3-2.5-33.3-3.4-6.6-6.8-10-11.8-12l-5-2.1a27.6 27.6 0 00-15.1-1.5m14.3 3.2c2 .8 4.4 1.5 5.2 1.7 1.9.3 8.8 7.1 8.8 8.7 0 .4 1.5 3 2.2 4 1.3 1.6 1.8 8.1 1.8 26 0 22.6 0 22.7-5.2 24-3.1 1-5.7-3.6-5.1-9 .5-5-1.2-5.4-16.4-5.4-15.6 0-15.5 0-16 5.9-.2 1.7-.6 4.1-1 5.4l-.8 2.4-2.7.5c-5.3 1-5.3 1.2-5.2-24 0-23.6-.2-22.1 3.6-30.2 2.1-4.4 6.3-8 10-8.7l3.6-1.3a23.8 23.8 0 0117.2 0m-104.2-.7c-5.4 2.7-5 .4-4.8 33 .3 33.4 0 32 5 33.5 6 2 10-2.2 9.5-10.3-.2-3 1-7.2 2.4-8.3.7-.5 6.1.3 6.4 1 .2.8 4 4.3 4.6 4.3.3 0 .6.4.7 1a32 32 0 002.7 5.5c.3.5 1 1.2 1.4 1.6 1.4 1 2.8 2.1 3.9 3.3 1.6 1.7 4 2.4 8.7 2.4 6.2 0 7.6-.9 8.4-5.4.6-3.4 0-4.3-4.5-7-6.5-3.7-8.5-6-8.8-9.9l-.1-2 2.8-3c6.7-6.8 8-16.7 3.8-27.7-.6-1.7-6.8-8.3-8.8-9.2-5.2-2.8-29.3-4.7-33.3-2.8m151 .8c-1.2.7-2.6 2-3 2.7l-1 1.3.1 22 .1 28c0 10.4 2.2 13.1 9.2 11.6 4.8-1 5.5-2.7 5.5-13.8 0-12-1-11.1 12.4-11.5 13-.4 15.1-1.3 14.6-6.4-.5-4.7-3.5-6-13.7-6-13 0-13.3-.2-13.3-7.8v-5.7l1.2-1c2-1.4 5.7-1.9 15.2-1.9 10.3 0 10.8-.2 13.1-4 1.5-2.6 1.3-4.4-.5-6-3.5-3-2.7-2.9-21.2-2.9h-16.6l-2.2 1.4m58-.8a7.3 7.3 0 00-4.8 3.3l-1 1.5 1 2.7c1.7 4.2 2.8 4.8 8.9 4.8 6.2 0 9.9.6 11.3 1.9l1 1 .1 24c.2 27 0 25.3 3 27 2.6 1.2 8 .7 9.3-1 1.1-1.4 1.3-5.8 1.3-27.6 0-25.7-.5-23 4.1-24.5a24 24 0 018.1-.8c6.3 0 6.4 0 8-3.3 2.2-4 1.4-7-2.4-9-1.4-.8-45-.8-47.9 0m-183 2.1c9 1.3 15.8 9 16.2 18.4.4 9.5-1.3 16-4.7 17.4-.3 0-.6.4-.6.6 0 .3-.9 1.3-2 2.3l-2 1.8.3 2.5a8 8 0 00.9 3l.5 1a17.4 17.4 0 005 4.4c0 .5 2.8 2.2 4 2.5a8 8 0 012.3 1.4l1.4 1.2-.3 2.6c-.4 3.5-1 4-4.7 4.6-3.9.5-6.4-.3-9.4-3-1.2-1-2.3-1.8-2.5-1.8-.7 0-2.8-2.7-4-5.5-.8-1.6-1.8-3.2-2.2-3.6l-3-2.8c-2.6-2.5-3.2-2.8-6.4-3.1-2.6-.3-5.9 1.4-5.9 3.1l-.6 2.6c-.3 1.1-.4 2.9-.3 5 .3 5.7-3.6 10.2-7.1 8.3-1.5-.8-1.5-.9-2.4-4-.9-3.2-1-55.4-.2-57 1.5-2.6 15.8-3.6 27.7-1.9m161 0c3.7 1.8 3.6 5.7-.2 8.3-.2.1-5 .3-10.6.4-11.5.2-13 .5-15.5 3l-1.5 1.4v5.7c0 6 0 6 2.1 7.2 3 1.7 3.4 1.8 12.3 2 11.4.3 12.2.5 12.9 4.2.5 3.3.6 3.2-1 4-3.5 1.4-4.8 1.6-12.6 1.8-9.6.3-10.1.4-12 2L236 209l-.2 8.5-.2 8.5-1.2 2c-2.4 4.3-5.6 4.1-7.3-.2l-1-2.5v-27c0-14.8-.2-27.1-.3-27.3-.3-.4 2.6-3 3.9-3.4 2.1-.8 32.3-.6 33.8.1m70 0c2 1 2.3 3 1 5.7-1.2 2.7-2 3-8.2 3-3 0-5.2.3-7.4.8l-3.2.8c-1.5 0-1.7 2.7-1.7 25.5 0 28.2 0 28.4-5.7 27.4-4.4-.6-4 1.4-4.4-27.2l-.2-22.8-1-1.4c-1.5-2.3-4-3-10.7-3-4 0-8-1-8-2.1 0-.3-.2-.7-.5-1-2-2.4-.6-5.5 2.5-5.6a511.2 511.2 0 0147.4-.1M166 176.4a16.2 16.2 0 00-7 5.5c-2.4 4-2.3 3.7-2.7 12.5-.5 9.4-.5 9.4 2 11.1l1.7 1.1h11.9c16.4 0 16.7-.1 16.7-8.5 0-10.5-3.3-20.1-7-20.1-.2 0-1.3-.6-2.5-1.4-4.2-2.8-7.8-2.9-13-.2m-77.2.3l-.8.5-1.3 1c-.6.3-1.2 1-1.3 1.3a5 5 0 01-.6 1.1c-.5.6-.5 17 0 17.7l.7 1.3c1.2 2.3 6.4 3.2 11 2 1.3-.4 2.7-.6 3.2-.6 1.3 0 5.3-2.9 5.7-4 .1-.5.4-1 .5-1 2.5-2 2.8-8.4.6-12.6-.8-1.5-1.6-2.7-1.7-2.7l-1.6-1.2a7.3 7.3 0 00-2.1-1.3c-5.6-1.4-11-2-12.3-1.5m84.8.1a25 25 0 018.2 3.6c2.3 1.4 4 7.5 4.3 16l.3 6.8c-1.8 2.4-25.5 3.3-27.1 1a2 2 0 00-.8-.6c-1.6-.6-.1-16.6 1.7-19.4.6-.8 1.1-1.9 1.3-2.4.3-1.2 3.3-3.3 5.2-3.8.9-.2 2-.6 2.4-1 1-.7 1.4-.7 4.5-.2m-76.4 2c1.5.3 3.1.8 3.7 1.1l1.6 1c.4 0 .7.5.7.8 0 .4.5 1.3 1.1 2 2 2.5 2 3 1.8 6.2-.2 2.5-.5 3.2-1.6 4.6a7 7 0 00-1.3 2.3c0 3.2-12.7 5.2-15.7 2.4l-1.4-1.4v-16.5l1.6-1.7 1.6-1.7 2.6.3 5.3.6m297.5 1.3a116 116 0 01.7 23.2c-.5 7-.5 7 2.6 7.3 2 .2 2 .2 2-.8s-.1-1-1.5-1H397l-.4-2.7c-.7-4.2-.6-20.5.1-23 .6-2 .6-2 2-2 1 0 1.3-.1 1.3-.8 0-1-5-1.2-5.3-.2M9.2 213.5c.5 3.8-.9 5.8-3 4.3-2.2-1.5-1.6-5.4 1-6.5 1.4-.6 1.7-.3 2 2.2m382.4-2.3c-.6.8-2.1 7-2.1 9 0 1 0 1 3.7 1 2.5 0 3.7.2 3.8.5.2.3.2 0 .2-.7-.1-1.1-.1-1.1-2.6-1.2-3.5 0-3.6-.1-3.5-3 0-4.4 1.8-5.3 2.5-1.2.3 1.8 1.4 3.3 2.5 3.3.6 0 .5-.2-.4-2.2-.7-1.2-1.2-2.8-1.2-3.5 0-1.8-1.9-3.1-2.9-2m-6.3 12c-.5 1-.9 2.2-.9 2.7 0 2-.7 3.4-2 3.7-2.3.4-5 7.8-3.3 9 .4.4 5 .5 7 .2 1.6-.2 0-1.5-2-1.5-3.3 0-3.4 0-3.9-1-.3-.7-.2-1.1.2-1.9.3-.5.5-1.2.5-1.6 0-1.3 4.2.1 5.1 1.8.5.8 2.7 1 2.7.2 0-.4.1-.4.3-.1.3.4 1.9.4 2.3 0 .4-.4.4-2.2 0-2.2-.3 0-.2-.1 0-.4.7-.7.6-2.3 0-2.3-1.3 0-1.8-1.2-2-4.7l-.3-3.5h-1.4c-1.3 0-1.5.2-2.3 1.7m2.5.4c.9 1.4-.2 5-1.4 4.4-.6-.4-.9-3.1-.5-4.3.5-1.3 1-1.3 1.9 0m-12.6 16c-1 1-1.9 6-1.5 8 .3 1.8 1 2.1 4.6 2.3l2.6.2v-2.4h-2.6c-3.4 0-3.6-.4-3-4.2.5-3.8.6-3.9 2-1.3.8 1.8 3 4 3.5 3.6l-1-2.3c-.6-1.2-1.2-2.6-1.3-3.2-.2-1.5-2.2-1.8-3.3-.7m-5 11.7c-2 3.3-2 29.5-.1 34.5.4 1 1.5 1.8 1.5 1 0-.3.2-.3.6 0 .4.4.5.4.5.1 0-.6 1-.6 1.3 0 .1.3.2.2.3-.2 0-.6.1-.6.5-.3.7.6 1-2.8 1-10.6 0-5.7-.7-8.4-.8-3 0 1.4-.1 2-.2 1.2-.2-1.3-.9-2.6-.9-1.6 0 .4-.1.4-.6 0s-.6-.3-.6.2c0 .4-.1.6-.4.4-.2-.1-.3 0-.3.4 0 .3-.2.6-.4.6s-.4-.4-.4-.8-.2-.7-.4-.6c-.6.4-1-13.6-.4-16.3.2-1 .3-1 .5 1 .3 1.8 1.8 5.2 1.8 4 0-.2.2-.2.3 0 .2.3.8.6 1.4.8l1.1.2-1.2-1.6a7.5 7.5 0 01-1.4-4 90 90 0 00-.5-4.2c-.1-.9-1.8-1.8-2.1-1.2m-335.5 25a32 32 0 00-.9 6.7 49 49 0 01-3.6 15.5c-.7 1.8 1.2 1 2-1l1.2-2c.4-.8.8-1.9.8-2.4 0-.6.2-1.9.5-3l.5-1.8.3 2.3c1.1 11.1.9 12.6-2.3 12.5-1.2 0-2.2-.3-2.2-.5s-.1 0-.3.4c-.3.7-.4.5-.6-.8-.5-2.6-.5-2.4-.5 1 0 2.4 0 3.1.3 2.5.3-.6.4-.6.2.3 0 1 .2 1.3 1.2 1.1.2 0 0 .3-.5.8-.9.7-.9.7-.1.7.4 0 .7-.3.7-.4 0-.4 2.7-.3 3.6.1.4.2.6 1 .7 2.6.1 2.8.7 3.6 3 3.6 2.4 0 3.2.5 3.5 2.2.3 1.7 2 3.3 3.3 3.3 1.5 0 2 1 2.3 4 .3 3.8 1.5 4.3 1.5.6 0-4.2.8-4.8 3.8-3.6l1.8.7-.3 2.1c-.2 2.1-1 3.3-2 3-.3-.1-.5 0-.5.2s-.1.3-.3.2c-.2 0-.3.2-.3.6 0 .4.1.7.3.7.5 0 .3 1.1-.2 1.3-.3.1-.2.2.2.3.4 0 .6.2.5.4-.2.2 0 .5.5.6.5.1.8.4.8.5 0 .2.4.4.8.5.5.2.7 0 .6-.1-.2-.3 0-.3.5 0 1.2.6 2.6.6 2.1 0-.2-.3-.4-1.6-.3-2.9V327l1.6-.3c1.6-.4 5.3-.2 6.6.3.6.3.5 1.8-.2 2-.2.1-.4.4-.4.7 0 .3-.6 1.1-1.3 1.8l-1.4 1.4 1.2-.2c.9-.1 1.2 0 1 .2-.1.3-.5.4-.9.2-.4-.1-.5 0-.4.2.2.3.1.4-.3.2-.3 0-.6 0-.6.2s.5.4 1 .3c1.3-.1 1.5.3 1.4 2.4 0 1 0 1.7.3 1.7.2 0 .3-.3.3-.7 0-.3.4-.9 1-1.2.8-.6.9-.6.4 0-.4.5-.4.7 0 1 .2.1.3 0 .1-.2-.4-.7 0-.6.6.2.3.3.4.5.1.4-.2-.2-.6-.1-.7 0-.3.6 2.3.6 2.8 0 .3-.3.5-1.5.5-2.7 0-2.9.4-3.2 4.3-3.1 3.1 0 5 .5 5 1.2 0 .5-1.5 1.6-2.3 1.6-.7 0-4.3 3.3-4.3 4 0 .3.2.2.4-.2s1.2-1 2.3-1.3l2.4-.9c2.1-.8 2.8.2 2.6 3.9 0 3.3 0 3.7 1.3 3 .6-.3.8-.8.8-2.5 0-3.5.2-3.8 3.8-3.5 1.6.2 3.2.5 3.5.8.7.6.2 1.7-.7 1.7-1.5 0-3.8 1.2-4.4 2.4-.6 1-.3 1.7.3.8.3-.5 4.3-1.3 5.2-1 .5.1.8.7 1 2 .3 2 1.4 3.2 2.8 3.2 1 0 1.9.7 3.3 2.9.7 1.1 1.4 1.5 3 2 2.2.6 2.4.8 2.7 2.4.4 2.8 5.2 3.7 5.2 1 0-1.4-3.6-6-6.7-8.6-.6-.5-1.1-1.2-1.1-1.5 0-.3-.2-.5-.4-.5-.3 0-.9-.5-1.4-1.1a10 10 0 00-4.9-2.8c-.8 0-1.9-1.2-1.9-2 0-1-1.4-1.8-3.9-2.3a33.5 33.5 0 01-5.2-1.3c-.7-.2-1.2-.7-1.6-1.6-.4-.8-1-1.6-1.6-1.8-1.4-.5-6.4-1.5-7.7-1.5-1.7 0-3.4-1-3.4-2.1 0-1-2.6-2.2-6.6-3-3.7-.7-4.6-1.1-4.8-2.2-.3-1.1-4-3.3-6.6-4-.8-.1-1.3-.6-1.6-1.4-.7-2-2-3.4-3.6-3.6-1.4-.3-1.5-.4-2.5-3.3-1.4-3.9-1.8-4.4-3.7-4.5-2-.2-1.8.7-2.1-8.5a200.9 200.9 0 00-1.5-18.6c-.2-2.4-.3-3-.7-2.5m329.4 20.1a57 57 0 00-1 7.3c-.4 4.9-.3 5 3.9 4.8 2.6-.1 2.9 0 3 .6.1.5.2-.1.2-1.3 0-1.8 0-2-.6-1.8-.7.3-4.3.3-4.8 0-.4-.2-.4-5 0-6.8.2-1.6.8-.8.8 1.3 0 2.7 1 4 3.5 4.8l1 .2-1-1a12.5 12.5 0 01-2.3-6.6c0-1.3-1.2-5-1.6-5-.2 0-.6 1.6-1 3.5M41.4 309.3c1.9 2.7-.4 5.3-3 3.4-1.5-1-1.4-2.2.2-3.4 1.5-1 2-1 2.8 0m317.3.5c-.4.5-.9 1.6-1 2.5-.2 1.4-1.7 2.8-3 2.8-.8 0-2 1.2-2 2 0 1-1.3 2.2-3 2.7-2.4.6-4.3 2-4.6 3.1-.1.7-.5 1.2-1 1.3l-4 1c-4.5 1-6.4 2-6.4 2.7 0 1.2-1.4 2-4.2 2.4-5.5.7-9 2-9 3.3 0 1.2-.8 1.7-3.3 2.1-1.2.2-2.5.6-3 .8-.4.2-1.2.4-1.7.4-1.3 0-3 1.6-3 2.8 0 1.1-1.3 1.9-3 1.9-2.5 0-5 4.1-3.1 4.9 1.3.4 7 .3 7.1-.2.1-.3.4-.4.6-.2.3.1.3.4.1.5l-.4 1.4c0 .9 0 1 .3.6.3-.5.4-.5.4 0s0 .5.4 0c.2-.3.2-.7 0-.8-.5-.4.3-2.7 1-2.7.2 0 .4-.3.4-.6 0-.4-.1-.5-.5-.2-.2.2-.5.3-.7.1-.2-.2-.3-.1-.2.1.2 1.2 0 1.8-.6 1.4-.7-.6-.7-1.1 0-1.8 1.1-1.2 4 .2 3.5 1.8-.1.4-.5.6-.8.5-.3-.1-.6 0-.6.2 0 .6 1 .8 1.6.3.3-.3.4-.3.2.2-.2.4-.5.7-.7.7-.2 0-.2.2-.1.4.3.4-.8.3-1.2-.2-.2-.2-.1-.2.1 0l.7-.1c.1-.2 0-.5-.3-.6-.6-.2-1.1.6-.7 1.1.4.7 2 .6 2 0 0-.3.2-.6.4-.6s.3-.2.2-.4c-.1-.2 0-.4.2-.6.2-.1.2-.5-.1-1-.4-.7-.4-.9 0-1 .7-.3.6-.6-1.7-3.6l-2.1-2.9 1.8-.7c3.8-1.4 5.3-.6 5.1 3v2.3l1.1.2h1.2v-2.9c0-3.2.1-3.5 1.2-3 .8.3.7.2 2.6.6.9.2 1.7.5 1.9.8.2.3.3.3.3 0s-.5-.8-1-1.2a5.8 5.8 0 01-1.4-1.8l-.7-1c-1.2 0-1-1.9.1-2.3 3.5-1.3 8.2-.3 8 1.7-.2.6-.1 1.6 0 2.2.3.8.2 1.1 0 1.1-.4 0-.3.2 0 .4.4.2 1.1.4 1.8.3.7 0 1 0 .6-.2s-.6-.7-.6-1l.1-3.3c0-2.9.6-3.6 3-3.6 1.7 0 5.4 1.5 5.8 2.4v-.5c-.4-1.6-1.6-2.6-3.5-2.8-4.9-.5-4.4-2 .9-2.4 4.3-.4 4.5-.2 4.3 3.5-.1 2.4-.1 2.5.7 2.4.7 0 .7-.3.6-2.9-.1-4 .8-5 4.5-4.6 2.4.1 3 .4 3.4 1.6 0 .2 1.2.4 2.5.4 2.5 0 4-1.6 2.7-3-.4-.3-.4-.4 0-.2s.5 0 .5-.9c0-1.1 1.6-1.6 4-1.2.2 0 .4-.2.5-.6.1-.3.4-.5.5-.4.1 0 .3-.9.3-2.1 0-1.3 0-2.3-.3-2.3-.6 0-1.5-2.4-1.5-4.2 0-3.1-2.5-4.5-4.2-2.3m1.8 2.4c.1 1.4-.5 2.3-1.2 1.9-.4-.3-.4-3 0-3.4.5-.6 1 0 1.2 1.5M30 314.9c.1.6 1 1.3 1.6 1.4.1 0 0-.3-.3-.7-.4-.3-.6-.7-.6-1 0-.1-.2-.3-.4-.3s-.3.3-.3.6m16.8.8c.7.7.7 1 .2 2.3-.4 1.2-1.3 1.3-2.3.2-1.2-1.2-.6-3.1 1-3.1.3 0 .8.3 1.1.6m-14.4.2c-.4.6.1 1 .6.5.3-.3.3-.5 0-.7-.2-.1-.4 0-.6.2m323.6 1c.3.3-.9 1.3-1.6 1.3-.2 0-.5-.3-.5-.8 0-.7 1.5-1.1 2.1-.5m-5.5 4.5c2.2.6 1.7 1.7-1 2.1-1.8.3-3.1-1.3-1.7-2 1-.7.9-.6 2.7-.1m-283 12.8c0 1-.1 1.5-.4 1.4-.2 0-.8 0-1.3.2s-.9.2-.9 0c0-.3.4-.5.8-.5.5 0 .7-.1.6-.5-.2-.4-.5-.6-.8-.6-.3 0-.6-.2-.6-.4s.3-.4.5-.4c.4 0 .3-.1 0-.4-.5-.3-.3-.4.7-.4 1.3 0 1.4 0 1.4 1.6m-4 .3c-.3 0-.5.3-.5.5 0 .4 1 .2 1.1-.2.2-.4 0-.5-.6-.3m-1 1.7c.1 1.6.5 2 1.1 1.3.8-.8.7-1.5-.4-2-.9-.4-.9-.4-.8.7m263 6.3c-.5.4-.7.7-.4.5.3-.2.5-.2.5 0s.2 0 .4-.4c.3-.3.6-.5.9-.4.2.2.3.1.1-.2-.3-.5-.2-.6-1.4.5m-229.6.4c1.4 1 1.4 1.4-.1 2.2-2 1-4-1.6-2.1-2.7.9-.5.7-.6 2.2.5m212 1c.2.5-1.7 1.3-2.7 1-.8-.3-1-1.4-.3-2 .5-.6 2.7.2 3 1m4.8 2c-.4.5-.7 1-.6 1.2.3.5 1 0 1-.7 0-.5.4-.7 1.2-.6.2 0 .3-.1.3-.3 0-.7-1.1-.4-2 .4m-14 2c-1.2 1.4-1 4 .4 4.1 2.2.4 4.4-2 3.7-4.1-.3-1.3-2.8-1.2-4 0m-197.8.6c1 1-.3 2-1.5 1-.7-.4-.7-.5 0-1.3l.8-.7.7 1m200 .3c.4.4.4.6-.3 1-.9.4-1.4 0-1-1 .2-.8.8-.8 1.3 0m-7.3 4.6c-1.6 1.7-1 4 1 4 2 .2 2.5-.5 2.6-3 0-2.2-2-2.7-3.6-1M106 354.8c-1.1.1-1.3 0-1-1 .2-.5.3-.5 1 .1.8.7.8.7 0 .9m189.2.3c-.6.6-1.2 0-.9-1 .2-.3.4-.4.8 0 .4.3.4.6 0 1m-186.4 2c-1.9 1.2.4 5.5 3 5.5h1.6v-1.5c0-2.7-2.8-5.1-4.6-4m179.8 2.2c-.4.6-.7 2-.8 3v1.7l-2 .2c-2 .2-3 1-3 3 0 1.3-1.4 2.7-3 3-1.3.2-1.6.4-2 1.7-.5 1.8-1.6 3-3 3.4-1.8.4-2 .5-2.3 1.2-.6 2-1.1 2.5-2.7 2.9-3.6.9-5 1.6-5.5 2.9-.8 2-2.8 2.3-18 2.3h-13l-.2 2.4-.1 2.5h1.3c1.3 0 1.4-.1 1.5-1.4.2-2.3 1.5-2.5 15-2.5 12.6 0 12.6 0 12.6 2.5 0 1.1.1 1.4.8 1.4.6 0 .7-.3.7-2 0-3.4 4.6-4.6 7.4-2 1.3 1.3 6.6 1.7 6.4.6 0-.2.3-.3 1-.2.6.1.8.3.4.5-.4.3-.4.3.1.4.4 0 .7-.3.7-.6s.5-.6 1-.8c.6-.1.9-.4.8-.7-.2-.3 0-.1.4.3l.6.8-.2-.8c-.7-1.7-.6-2.8 0-2 .6.8.6.8.3 0l-.3-1.2c0-.3-.4-.5-.8-.5-1.5 0-2.2-.9-2.4-3-.4-3.2 1.1-6.3 3-6.3.8 0 3-2 3.2-3l.6-1.6.8-1.8c.2-.6.7-1 1.2-1 .8 0 2.7-.8 2.7-1.2l.4-1.8c.6-3.2-2.2-5-3.6-2.3m-177 1c-.7.7-1.4 0-1-1 .2-.6.3-.6.8 0 .5.4.5.7.2 1m2.3 3.2c-1.4 1.4.1 5.5 2.2 6 1.2.2 2 1 2 1.5-.5 3 .3 4.5 2.4 4.6 1.4 0 1.7.2 1.7.8l.4 2.1c.2.8 0 1.5-.2 1.8-.4.5-.4.6.1.6.4 0 .7-.1.7-.3 0-.2.3-.3.7-.2l2.2.2c1.3.1 1.5.3 1.8 1.4.4 1.6.6 1.6 4.3 2 3.7.4 4.2.8 4.2 3.6 0 1.6.1 1.9.8 1.9.6 0 .8-.3.8-1.6 0-2.4 0-2.4 13.7-2.2 13.7.1 14.3.2 14.3 2.5 0 1.2 0 1.3 1.6 1.3h1.6l-.1-2.4-.2-2.5h-13.6c-15.4 0-17.8-.3-18.5-2.5-.4-1.1-3.6-2.7-5.3-2.7-1.3 0-2.9-1.5-2.9-2.8 0-1-.2-1.2-1.6-1.5-3.2-.8-3.4-1-3.4-2.8 0-2-1-3-3.2-3.4-1.7-.3-1.7-.3-1.8-2-.2-2.9-3.1-5-4.7-3.4m3.3 1.8l-.4 1c-.3.8-.3.7-.8-.2-.4-.7-.4-1-.1-1.2.5-.3 1.5 0 1.3.4m5 5.7l-.2 1c0 .6-.7 0-.9-.8-.1-.6 0-.8.6-.8s.7.2.5.6m72 4.7c-1.1.3-1.1.6-.1 1.6 2 1.8 16.5.6 14.6-1.3-.3-.4-13.1-.6-14.5-.3m-77.2 3.7l-.4 1c0 .6.5.3.5-.2l.4-.7c.4-.7.1-.7-.5 0m60.9.3c-7.7.8-8.4 1-8.4 3v1.3l3.1-.3c3.4-.3 4.4 0 7.2 1.7.8.5 1.4.7 1.2.4-1-1.7-1.9-2.6-2.4-2.6l-3.4-.9-2.8-.8 1.8-.5c2.1-.7 8.7-.7 11.1-.1l1.7.4v1.8c0 3.5 0 3.6 4.3 3.5 1.9 0 2.6-.1 1.7-.2l-1.6-.2.1-2.2v-2.9c-.5-1.7-6-2.3-13.6-1.4m34 .3c-1.2.7-1.3.8-1.3 2.8 0 1.2-.2 2.3-.3 2.6-.2.3-.2.5 0 .5l-1.2.4c-1.4.2-1.1.3 1.3.3 3.2 0 4.8-.2 4.5-.8-.1-.2 0-.3.2-.3s.4-.2.4-.5c-.4-2.7 0-3.8 1.4-4.2 2-.5 7.7-.5 10.2 0l2 .5-2.4 2.3c-2 2-2.6 2.3-4.1 2.5-3 .3-3.2.5-3.2 2v1.3h5.4v-1.3c0-1.4 4.2-4.2 6.2-4.2 1.5 0 2.3-2.3 1-2.9a53 53 0 00-20-1m-78 1c1.2 1.4-1.3 2.3-3 1.1-.9-.6-.9-.7-.2-1.2 1-.6 2.7-.6 3.3.1m135.7 0c1.2.5.9 1.1-1 1.6-1.5.3-2.8-.8-1.7-1.6.9-.7 1.2-.7 2.7 0"/><path d="M127 1.4v1.5h-2.2c-1.3 0-2.3.3-2.6.6-.4.4-.4.4 0 .2.3-.1.5 0 .5.2s-.2.4-.4.4-.4.8-.5 1.8c-.4 2.8-.4 2.8-.7 2.6-.9-.5-3.4-.5-4 0-.5.4-.6.6-.3.6s.4.2 0 .9c-.3.5-.3.9 0 1.3.4.4.4.6 0 .6-.1 0-.3.3-.3.8 0 .7-.3.8-3 .8-2 0-2.4.5-2.4 3-.1 2.6.1 2.3-2.6 2.4-2.6.1-2.8.3-3 3 0 1.8-1.1 4.4-1.1 2.9 0-.3-.5-.5-1-.5s-1 .2-1 .5-.2.3-.6 0c-.4-.4-.7-.5-1-.2-.3.3-.2.5.1.7.3.2.4.2.2-.2-.2-.3-.2-.4.1-.2.8.4.5 1-.3.8-.7-.2-.8 0-.8.8 0 .6.2.9.4.7.3-.2.4 0 0 .4-.1.4-.2 2.2-.1 4.2.2 3.6 0 3.9-2 3.5-2.1-.4-3.2.4-3.2 2.2.2 3.3.4 3.2-5.2 3-5.8 0-5.9 0-6 3-.2 2.6-.2 2.6 3.6 3.6 2.2.6 2.8.4 2.8-1 0-1.5 1.2-2.4 4-2.7 2.8-.4 3.2-.7 3.5-2.7.3-1.8 1.5-2.7 3.7-2.7h1.6v-1.7c0-2.8 2.5-4.4 4.8-3.1 1.2.7-1.5 5-3.3 5.2-.6.1-1 .5-1.1 1.4a9.7 9.7 0 01-4.3 4.6c-.3.1-.8.7-1 1.3-.4 1.1-3.2 2.8-4.6 2.8-1.2 0-2.2.8-2.8 2.3-.6 1.5-2.3 2.2-8.7 3.4-1.6.3-1.8.4-2 1.7-.2 1.5-3.4 2.8-8.1 3.4-3.3.3-4.7 1-4.7 2.2 0 .6-.2 1-.6 1a7 7 0 00-2 .8c-.8.4-2.8 1-4.4 1.3-2.9.6-4.7 1.5-4.7 2.2 0 1.1-3 3-5.4 3.5-1 .1-1.4.4-1.7 1.4-.7 2.2-2.2 3.7-3.6 3.7-1.3 0-1.4 0-2.2 2.8-1 3.3-1.7 4.6-2.7 4.6-3.1 0-2.6-7.7.5-8.5 1.1-.3 1.3-.5 1.4-2 .1-1.8 1.4-3.2 3.1-3.2 1.4 0 2-.4 2.2-1.7.5-1.8.8-2 3.4-2.4 3.8-.4 4.2-.8 4.2-4.2 0-3.9-.1-4.1-2-4.1-1 0-1.5.1-1.3.3.2.1.4 1.5.5 3v2.6l-5-.3c-5.9-.3-6.1-.2-6.5 3l-.2 2.3h-2c-3 0-3.6 1.4-3 7.6.4 3.7.3 3.8-2.9 3.7H30v4.1h5.6l1.9.1-.3 6.6a240.9 240.9 0 01-1.6 20.7c-.3 3.9-1.1 3.6-1.5-.5l-.6-6.7c-.3-4.5-.5-5.2-1.1-7-.3-.5-.5-1.4-.5-1.8 0-1.7-2-5.4-2.8-5.2l-2.3.4c-2.3 0-2.2-.3-2.2 16.7 0 8.6.2 14.6.3 13.5.2-1.2.3-1.8.4-1.4 0 .4.2.6.3.3 0-.3.4-.4.6-.2a732.7 732.7 0 013.5.5c3.7.2 3 22.7-.8 23.6l-1.5.4c-.4 0-.5 1-.5 3.3 0 3.4-.6 5-2.2 6.3-2.7 2.3-2.8 2.4-3 4.6-.4 2.6-2 4.8-3.7 5.1-1 .2-1.2.5-1.4 1.8-.3 2.6-2.5 6.6-3.8 6.8-1.3.3-1.8 1-2.2 4-.6 3.3-2 6.1-3.2 6.4-3.4.8-3.1 26.4.3 27.3 1 .2 1.7 1.6 2.5 4.8 1.2 5 1.3 5 2.6 5.4.7.2 1.2.5 1.2.7l1 1.8c.5.8 1.2 2.5 1.4 3.7.5 2 .6 2.3 1.6 2.5 1.6.3 2.9 2 3.4 4.4.8 3.4.8 3.5 2.2 4.5a6.6 6.6 0 013.3 6c0 3 .8 4.7 2 4.7.7 0 1.2.5 1.9 1.9 2.2 4.3 1.2 23.1-1.2 21.7-.2-.1-.5 0-.6.2-.2.3-.4.3-.8 0-.5-.5-1.4-.4-1.8.2-.2.2-.4.1-.7-.2-.3-.5-.4-.4-.4.4 0 .5-.2-.1-.4-1.4-.1-1.3-.3 4.5-.3 13 0 17.4-.2 16.6 3.3 17l2 .3 1-3.5 1.8-5.4c.4-1.2.9-4.2 1.2-8.1.6-7.9 1.3-9.4 1.7-3.5l.7 6.4c.2 1.4.5 6.3.7 11 .1 4.7.4 8.5.4 8.6l1.7.3c2 .1 2.3.6 3.7 4.5 1 3 1.1 3 2.5 3.3 1.6.2 2.9 1.5 3.6 3.6.3.8.8 1.3 1.6 1.4 2.7.7 6.3 2.9 6.6 4 .2 1.1 1.1 1.5 4.8 2.2 4 .8 6.6 2 6.6 3s1.7 2 3.4 2c1.3 0 6.3 1 7.7 1.6.6.2 1.2 1 1.6 1.8.4 1 .9 1.4 1.6 1.6l2.1.5 3.1.8c2.5.5 4 1.3 4 2.3 0 .8 1 2 1.9 2 1 0 3.9 1.6 4.8 2.8.5.6 1.1 1 1.4 1 .2 0 .4.3.4.6s.5 1 1.1 1.5c3.1 2.7 6.7 7.2 6.7 8.7 0 2.6-4.8 1.7-5.2-1-.3-1.7-.5-1.9-2.7-2.5-1.6-.5-2.3-.9-3-2-1.4-2.2-2.2-2.9-3.3-2.9-1.4 0-2.5-1.2-2.8-3.2-.6-4.3-8-2-7.4 2.2.3 2.5.4 2.6 3.3 3 2 .1 2.2.3 2 1 0 .5.1 1 .4 1.1.2.2.3.4.1.7-.5.8.3 2.2 1.4 2.3.7.1 1.2 0 1.2-.2 0-.3.1-.3.3 0 .2.2.6.4.9.4l2.8.1c1.2.1 2.4.3 2.5.5 0 .2.4.3.6.3.3 0 .3-.2 0-.4-.6-.3-.5-.4.2-.4.6 0 .8.2.6.5-.5.9-.1 4.4.6 5 .6.4.6.5 0 .2-.9-.3-1 .4 0 .9.3.2.5.6.4 1.1-.2.6 0 .8.7.7.5 0 .8 0 .7.2-.1.2-.5.4-.8.4-.3 0-.5.2-.5.4 0 .3.2.3.6.2.3-.1.7 0 .8.4.2.5.3.5.7-.1.5-.7.6-.7.6 0 0 .8.4.8 1 .2.4-.4.5.1.5 2.2 0 3.4.3 3.7 3.2 3.7h2.3v1.3c.1 2.7.2 3.2.5 3.7.2.3.6.5 1 .4 2.2-.2 4 0 4 .6 0 .4.2.6.4.6.4 0 .4.1 0 .3-.3.3-.4 2.4 0 2.7v.5c.2.6.7 1 .7.4 0-.5.1-.5.4 0 .4.5.4.5.8 0 .2-.4.4-.4.4 0 0 .2.2.4.4.4s.3-.2.2-.4c-.2-.2-.1-.4.1-.4s.5.2.6.4c.2.2.4.3.6.2.4-.2 1 2.2.9 3.4 0 .5.1.6.4.4.3-.1.3 0 0 .4-.5.6-.4.7.5 1 1.3.6 2.2.4 2.6-.3.2-.5.3-.5.3.1 0 .5.2.7.6.5.4-.2.6.1.6 1.4l.1 1.7.2-1.5.1-1.4h5.4v1.3c0 1.4 0 1.4 1.8 1.4h1.7v-1.9c0-2.8-.5-3.2-4.2-3.6-3.7-.4-3.9-.4-4.3-2-.3-1.1-.5-1.3-1.8-1.4l-2.2-.2c-.4-.1-.7 0-.7.2s-.3.3-.7.3c-.5 0-.5 0-.1-.6.3-.3.4-1 .2-1.8a14 14 0 01-.4-2c0-.7-.3-.9-1.7-.9-2.1 0-3-1.6-2.4-4.6 0-.6-.8-1.3-2-1.6-1.4-.3-2.7-2.2-2.7-4 0-4.1 4.9-2.6 5.2 1.5.1 1.7.1 1.7 1.8 2 2.2.4 3.2 1.4 3.2 3.4 0 1.8.2 2 3.4 2.8 1.4.3 1.6.5 1.6 1.5 0 1.3 1.6 2.8 2.9 2.8 1.7 0 4.9 1.6 5.3 2.7.7 2.2 3.1 2.5 18.5 2.5h13.6l.2 2.4v2.5h5.9V388c0-1.5 0-1.5 3.7-1.4 3.2.2 3-.3-.5-2-2-1-2.4-1.1-5.5-.9l-3.2.3.1-1.5c.1-1.3.3-1.5 1.3-1.7 6.3-1.5 16-2 18.6-1 2 .7 2.1 1.1 2 4.2l-.1 2.2 2.4.2c5.3.6 17 .1 16.7-.6v-.6-2.4c.1-3.3 1.2-3.7 8.5-3.4 5.2.2 11.3 1 13 1.6 1.3.6.5 3-1 3-2 0-6.2 2.7-6.2 4v1.4h8.1l.2-2.4.1-2.5h13c15.3 0 17.3-.2 18.1-2.3.6-1.3 1.9-2 5.5-3 1.6-.3 2-.9 2.7-2.8.2-.7.5-.8 2.3-1.2 1.4-.3 2.5-1.6 3-3.4.4-1.3.7-1.5 2-1.7 1.6-.3 3-1.7 3-3 0-2 1-2.8 3-3l2-.2v-1.8c.2-2.8 1.1-4.1 2.7-4 1.7.3 2.1 1.1 1.7 3.4l-.4 1.8c0 .4-1.9 1.2-2.7 1.2-.5 0-1 .4-1.2 1l-.8 1.8-.6 1.6c-.1 1-2.4 3-3.3 3-2.5 0-4.2 7.2-2 8.8 1.3 1 2.8.6 2.8-.6 0-.8.2-1 .8-1.1.7 0 .8 0 .4.5-.3.3-.4.7-.2.9.1.2 0 .4-.3.5-.3.2-.2.3.2.3.6 0 .7-.2.5-.8-.2-.6-.1-.8.1-.6.3.2.4-.2.3-1-.1-.7 0-1 .3-.9.2.2.3.1.1-.1-.3-.5-1.4-.2-1.3.3 0 .2 0 .3-.3.3-.2 0-.4-.5-.5-1.2l-.1-1.3h2c1.9 0 2.1.1 2 .9 0 .4.3.8.6.8s.4-.2.1-.5c-.6-.8.2-1.2 2.7-1.5 3.1-.2 3.2-.3 3.1-5.1v-4.8c0-.8.2-.9 2.5-.9 2.9 0 3 0 3-3.1 0-2 .3-2.2 2.9-2 1.6.2 2.6-1 2.6-3.2 0-2 0-2.2 1-2.2l3.3-.3c.8 0 1-1.2 1.2-4.8 0-1.5.2-2.7.4-2.7s.2-.2 0-.4c-.1-.3-.3-.3-.6 0-.5.6-5.9.8-7.2.3-2-.8.6-5 3-5 1.8 0 3.1-.7 3.1-1.8 0-1.2 1.7-2.8 3-2.8.5 0 1.3-.2 1.8-.4.4-.2 1.7-.6 2.9-.8 2.5-.4 3.2-.9 3.2-2 0-1.4 3.6-2.7 9.1-3.4 2.8-.4 4.2-1.2 4.2-2.4 0-.8 1.9-1.6 6.4-2.7l4-1c.5-.1.9-.6 1-1.3.3-1.1 2.2-2.5 4.6-3.1 1.8-.5 3-1.6 3-2.7 0-.8 1.2-2 2-2 1.3 0 2.8-1.4 3-2.8.7-4.6 5.2-4.7 5.2-.2 0 3.4 1 4.5 4.1 4.5 3 0 3.8-1.9 3-6.6l-.1-1.3h-3c-4 .3-4.2.2-3.8-4.7.2-3.9 1.6-10.7 2-10.7.5 0 1.7 3.5 1.7 4.8 0 3.1 3.4 10 3.5 7l.1-3v-2.4h1.8c1 0 1.9.1 2 .3 1.2 1.6 1.6-.2 1.5-8.4 0-4.5-.2-7.4-.2-6.4-.2 1.6-.3 1.8-.7 1.4-.5-.3-.6-.3-.6.3 0 .4-.2.5-.3.2-.2-.6-1.3-.6-1.3 0 0 .3-.1.3-.5 0-.4-.4-.6-.4-.6-.1 0 .8-1.1 0-1.5-1-2-5.1-1.8-32.3.3-34.5.4-.4 1.5 0 1.8.8.2.7.4 1.4.7 4.8.4 3 2.1 5.5 3.7 5.3.6 0 1-.2 1-.4-.2-.1-.5-.2-.7 0-.3 0-.1 0 .2-.4.6-.4.6-.6.2-.8-.4-.1-.4-.2 0-.2.3 0 .5-.3.5-.5 0-.3-.4-.1-.8.4-1 1.2-1.1 1-1.1-.8 0-1.3.1-1.8.5-1.8l1.2-.1c.3 0 .4-.3.3-.5-.1-.2.3-.3 1-.2 1 .2 1.2 0 1.3-.4 0-.5 0-.4.3.2.3.5.4-.6.3-3v-3.7h-2.5c-3.5-.2-4.3-.6-4.6-2.3-.4-2 .6-7.2 1.5-8 1-1.2 3.1-.9 3.3.4.3 2.9 2.5 5.9 4.2 5.9 3.4 0 3.7-.4 3.7-4v-3.3H383c-2.1.2-3.6 0-3.9-.2-1.6-1.3 1-8.7 3.3-9.1 1.3-.3 2-1.6 2-3.7 0-2 1.6-4.3 3.2-4.3h1.4l.3 3.5c.4 5.4 2.5 7 2.5 2v-2.8h2.7c2.7 0 2.8 0 2.8-.9 0-2-.2-2.2-4.2-2.2-4.3 0-4.3 0-2.4-7.8 1-3.6 3.4-3.5 4 .1.4 3.3 1.7 5.2 3.7 5.3l1.6.1v-8l-2-.3c-3.1-.3-3.1-.2-2.6-8.3.3-5.6.3-8.6 0-13.7l-.6-7.7v-1.2h2.6l2.6-.2V173l-1.5-.2-1.4-.1h1.4c.8-.1 1.5-.3 1.5-.5 0-.3-.7-.5-1.5-.5h-1.4l1.5-.3 1.6-.3-1.7-.1c-2.5-.3-4 2.1-4 6.7v1.9l-1.4-.1c-1.7-.2-2.4-1.5-3.3-7-.5-3-1-4-1.6-3.7-1.6.6-3.5-2-3.9-5.2-.2-2-1.2-3.1-2.5-3.1-.5 0-1-.3-1.1-.7l-1-2.4c-.6-1.1-.9-2.7-.9-4v-2l3.8-.2 3.8-.1v-3.2c0-3.4-.2-4-1.2-4.1l-2.4-.3c-1.2-.2-1.9-.1-1.9.2 0 .2-.2.6-.5.9-.6.6-1.6 3.2-2 5-.6 3.7-3.9 1.3-4.5-3.3-.8-5.8-.4-6.3 5.8-6.4h1.2v-6c0-3.1-.2-5.7-.4-5.6-.2.1-.4 0-.4-.2-.1-.3-1.2-.5-2.4-.6l-2.1-.2-1.2 3.8-1.4 4.9c-.4 1.5-2.2 3.4-2.7 2.6-2.5-4.6-2-36 .7-36 .3 0 .6.2.6.4s.3 0 .6-.3c.5-.8.5-.8.5 0 0 .6.1.6.4.1.4-.5.4-.5.4 0 0 .4.2.4.4-.2.3-.6.3-.7.4 0 0 .7.7.9.8.1l.4 1.9c.1 1.4.2-1 .3-6.3 0-8.9-.1-9.8-1.5-8.9-.2.1-.4 0-.4-.2s-.3-.4-.7-.4c-.6 0-.6 0 0 .4.4.3 0 .4-1.1.4-1 0-1.7-.2-1.7-.4 0-.3.2-.3.4-.2.2.1.4 0 .6-.2.1-.2 0-.4-.4-.4-.6 0-.6-.4-.5-2.3.2-4.6-3.1.3-3.7 5.4-.2 1-.6 2.5-1 3.3l-.6 1.6-.3-1.2a41.6 41.6 0 01-1.6-14c.2-.4 1.5-.6 3.5-.6 3.6 0 3.6-.1 3.6-3.6 0-3.3-.4-3.8-3.3-3.8-3 0-3.6.8-4 4.7-.5 3.9-5.2 3.4-5.2-.5 0-1.1-2-3.4-3.1-3.4-.8 0-1.5-.8-1.9-2.2-.2-1-.6-1.2-2.6-1.8-2.6-.8-3.5-1.5-4.3-3.3-.3-.8-.8-1.3-1.3-1.3-3.4 0-9.7-2.5-9.7-4 0-1.2-.1-1.2-5.2-2a31.3 31.3 0 01-7-1.9c-.3-.1-.7-.7-.9-1.3-.2-1.2-1.3-1.8-4.3-2.2-4-.7-6.3-1.9-7.3-3.9-.8-1.4-2.3-2.2-4.2-2.2-1.5 0-2.7-1.6-2.6-3.3l.1-1.6 2.7-.4c4-.5 4.5-.9 4.5-3.5 0-3-.4-3.7-2.5-3.7-2.7 0-3-.2-3-2.5 0-2.5-.4-3-3.1-3h-2.3v-2.2c0-2.8-.4-3.2-3.3-3.2h-2.4l.2-4.7c.2-5.7 0-5.9-3.5-6-2.2 0-2.3 0-2.2-.8.1-.5 0-.9 0-.8-.2 0-.3-.1-.3-.3 0-.2.2-.4.4-.3.2 0 0-.2-.2-.6-.4-.4-.4-.5 0-.3.5.3.4-1.2-.3-1.8-.3-.3-.4-.3-.3.3.3 1-.4 2.1-1 1.3-.2-.4-.1-.6.2-.8.3-.2.2-.3-.2-.3s-.7.1-.7.4c0 .2-.3.1-.6-.2-.8-.8-.7-1 .4-.8.5 0 1 0 1-.2s-.7-.3-1.4-.3c-1.1 0-1.4 0-1.2.6l.4 1.9c.3 1.5 1.2 2.3 1.6 1.6.2-.3.1-.3-.1-.2-.2.1-.6-.2-.8-.7-.4-.9-.4-1 .3-1 .4 0 .7.2.7.5s.1.4.4.4c.3 0 .4.1.2.8-.1.6 0 .7.2.3.2-.4.4-.3.5.3.2.6 0 .8-.7 1-.5 0-1 0-1-.2h-1.1l-1.2.1.1-2.4c.1-1.3 0-2.3-.2-2.3-.1 0-.2-.2 0-.4 0-.3-.7-.4-2-.4-1.7 0-2.2.1-1.8.4.4.2.4.3.2.4-.5 0-.4 2.3 0 5.3.3 1.4 2 3.6 2.8 3.6 1.2 0 3.4 1.8 3 2.4 0 .2 0 .3.2.3s.5.3.6.7c.8 2.3 2.2 3.7 3.2 3.5.5 0 1 0 1 .2 0 .1.2.2.6 0 .4-.1.5 0 .4.2-.2.3-.1.6 0 .7.5.2.5.6.6 3.3 0 1.9-.5 2.3-2.2 2.3-1.4 0-2.5-1.3-2.6-3 0-2-.5-2.7-2.2-3-1.8-.2-2.2-.6-2.8-2.7-.5-1.8-1.4-3-2.5-3-1 0-2.6-1-2.6-1.7 0-1.5-1.4-3-3.3-3.5-1.8-.5-2-.7-2.5-2.1-.4-1.5-1.1-2-3-2-.4 0-1.3-.3-2-.6a13 13 0 00-2-1c-.7-.1-1-.5-1.2-1.3-.4-2-2.6-2.3-16.7-2.2-6.7 0-12.2-.1-12.3-.3l-.5-2.7L234 0h-9.7v1.3c0 1.5.5 2 3.6 3.7a8 8 0 003.8 1.2c1.4 0 1.7.2 2 1 .5 1.2 0 1.7-1.4 1.8a46.5 46.5 0 01-12.3 1.3c-7.2 0-7.5-.1-7.3-4.3l.2-2.8L211 3c-2.4-.4-19-.3-21 .1-1 .2-1.5.3-1.2.4.5 0 .5 0 0 .4-.3.2-.4.4-.2.4.8 0 .3 4.3-.7 5.3l-.9 1-5.8-.2a65 65 0 01-13.2-1.7c-1.3-.4-.7-2.3 1-2.4.6 0 2-.6 2.8-1.2l2.7-1.6c.9-.4 1-.8 1-2V0h-8.5v1.5c0 .8-.1 2-.3 2.7l-.2 1.2h-12.3c-13.8 0-15.4.1-16.4 2.1-.2.6-1 1.3-1.5 1.5-.6.2-1.6.6-2.2 1-.7.2-1.8.6-2.6.7-1.7.4-2.7 1.2-2.7 2.4 0 1-1.1 1.9-3 2.3-1.6.3-2.4 1.1-2.4 2.5 0 1.8-1.3 3-3.3 3.2l-1.6.1-.2 1.9c-.3 2-1.6 3.8-3 3.8-3.4 0-2.8-5.7.7-6.5 1.5-.3 2-1.3 1.9-3.5-.2-2 .2-2.4 2.6-2.7 1.8-.2 1.6 0 1.8-2.1.4-2.2.6-2.4 3-2.5 2.2 0 2.6-.4 3.3-2.7.1-.5.9-.7 3.2-.9 4.8-.4 4.8-.4 4.8-4.2V0h-1.5c-1.6 0-1.6 0-1.6 1.6 0 1.8-.6 2-3.9 1.6-2.1-.3-2.1-.3-2.4-1.8l-.2-1.6v1.6m136.7 1c.3 3.1.8 3.4 4.6 3.4 3.3 0 4.6-.6 4.6-2.3 0-.8-.1-.8-2.7-.7l-2.7.2V0h-4l.2 2.4M157.3 7.8c1.1.3 3 1 4 1.5 2.9 1.6 5.7 2.3 10.3 2.6 5.7.4 9.4 1.2 11.8 2.7 3.3 2 4.6 2.2 14.5 2.4 12.8.3 18-.3 20.1-2.4 1-1 5.4-2 10-2.5 6.9-.7 8.7-1 11.7-2.5 6-3 16.3-3.3 19.4-.6 1.6 1.4 3.7 2.4 6.6 3 2 .5 2.5.9 4 2.7 1 1.1 2.2 2 2.6 2 .8 0 2.7 2 3.7 3.8.4.7 1 1.3 1.2 1.3.8 0 2.8 2 3.6 3.5.4.8 1.6 2.2 2.6 3 1 .8 2.2 2.1 2.6 3a9 9 0 002.7 2.9c1 .7 1.9 1.5 1.9 1.7 0 1 2 3.5 3.3 4 .7.3 1.3.8 1.3 1.1 0 .3.4 1 .8 1.5.4.4.8 1 .8 1.2 0 .2.8.7 1.8 1.1 1 .5 2 1.3 2.2 1.8.2.5.5 1 .7 1 .2 0 .4.1.4.4 0 .6 2 1.9 3 1.9.4 0 1.2.4 1.7 1 3.4 3.6 3.3 3.5 6.8 4.4 3 .8 3.7 1 5.5 2.8L321 60l3.5.5c3.8.6 5.4 1.3 7.5 3.2.8.7 2 1.5 2.5 1.6 4.7 1 8.1 2.3 9.4 3.7a9 9 0 003.5 2.2c1.8.7 4 2.4 4 3.2 0 .2.7.8 1.6 1.4 1.9 1.2 3 2.4 3 3.3 0 1 2.3 3.8 3.5 4.2 1 .3 1.2.6 1.2 1.6l.3 3.7c.3 1.3.8 5.7 1.2 9.7 1 9.7 1.9 15 2.6 17 .3 1 .7 3.6 1 5.8 1.6 19.6 1.7 19.6 3.7 21.4.9.8 1.4 1.8 2 4.2 1.2 4.5 1.8 5.8 3.2 6.6 1.2.7 1.3 1 2.7 5.2 1 2.8 1.7 3.8 3 4.3 1 .4 2.5 2.5 2.5 3.5 0 1.7 1 3.7 2.6 5.4a11 11 0 013.2 6.7c0 1.2 2.2 5.4 2.8 5.4 2.2 0 3.1 17.3 1.2 21-.5.9-1 1.6-1.3 1.6-.1 0-.4.4-.5.8l-1 1.6c-.4.4-.9 1.5-1 2.3a13 13 0 01-3.5 7.7c-1.6 1.8-2.1 2.7-2.3 4-.4 2.3-1 3.3-2.6 4.3-1.5 1.1-1.9 1.7-3.5 6-1 2.8-1.4 3.3-2.5 3.9-.8.4-1.4 1-1.4 1.3 0 .4-.1.9-.3 1-.2.3-.8 2-1.3 4.1-.8 2.8-1.2 3.7-1.8 4-1.6.5-2.5 3.5-3 10.2a105.7 105.7 0 01-1.8 16.4c-.7 1.9-1.5 6.2-1.9 10.2-.6 6.8-2 18.2-2.6 20.9-.1.6-.4 1-.8 1-.9 0-3.1 2.7-3.7 4.3-.6 1.9-1 2.3-2.8 3.1-1.1.5-1.8 1.2-2.2 2-.7 1.6-1.9 2.5-4.5 3.2-1.5.5-2.6 1-3.3 1.8a12 12 0 01-7.2 3.4c-2.4.3-5.2 1.5-6 2.8-1 1.2-2.7 2-6 2.3-3.2.5-6.4 2-6.7 3.2-.2.7-3 1.8-6.2 2.5-1.4.4-4 2.4-4 3.2 0 .7-1.6 1.7-2.7 1.7-1 0-4 2.8-4 3.7 0 .3-.7.8-1.5 1.1-1.3.6-2.5 1.7-4 4.3-.4.6-1 1-1.3 1-.6 0-2.6 2.4-3.3 4-.3.5-1.1 1.4-2 2-.8.5-1.8 1.8-2.3 2.8-.5 1-1.5 2.3-2.2 2.9-1.8 1.3-1.8 1.4-3.6 4-.8 1.3-1.7 2.3-2 2.3-.8 0-1.3.4-3.1 3-.8 1.1-1.7 2-2 2-.8 0-1.8 1-3.7 3.3-1 1.1-1.6 1.5-3.2 1.8-1.5.3-3 1-5 2.4-3.5 2.4-4.5 2.6-10.5 2.7-5.4 0-10.2-.8-11.7-2a22.7 22.7 0 00-11.2-3c-6.8-.6-9.7-1.3-12-3.1-4.2-3.4-28.7-2.6-31 1-.5.7-4.8 1.7-8.5 1.8-6.5.4-10.7 1.4-13.8 3.3-4 2.6-19.2 2.7-21.2.2a17 17 0 00-6-3.3c-1.7 0-3.5-1-4.1-2.5a4.7 4.7 0 00-3.4-2.7c-.8-.2-1.3-.8-2.1-2.4a6.4 6.4 0 00-2.7-3.1 6 6 0 01-2.3-2.4c-1-2-2.9-4.3-3.8-4.6-.4-.2-.7-.5-.7-.7 0-.7-2.4-4.2-4.2-6a19.4 19.4 0 01-4-5c-.2-.5-.7-1.1-1.1-1.3a9.8 9.8 0 01-3.8-3.5c-.3-1-3.3-3.3-5.5-4.1a9.9 9.9 0 01-2.9-2c-1.7-2-3.4-3-4.7-3a10 10 0 01-5-2.2c-2.2-2.1-4.3-3.2-6-3.2-1.6 0-5.8-1.1-6.3-1.7-2.2-2.5-3.1-3-6.8-3.6-4-.6-5.5-1.3-6.2-2.8-.4-.8-4.8-3.2-6-3.2-1.1 0-2.9-1.3-3.3-2.5-.4-1-1-1.7-2.3-2.4-2.8-1.6-3.2-2-3.4-4a11 11 0 00-3-6c-2-2-2.2-2.4-2.4-9.2-1-24.8-1.5-28.7-3.5-32.3a12 12 0 01-1.5-5.9c-.6-7-1.6-10.2-3.4-11.5-1-.6-1.4-1.4-2-3.4-1.2-4-2.2-5.9-3.5-6.7-.6-.4-1.2-1-1.2-1.1l-1.1-2.9c-.7-1.3-1.2-2.6-1.2-2.8 0-.2-.6-.6-1.3-.9-1.5-.5-1.8-1-3-4.6-1-3.5-1.5-4.2-3-5-1.6-1-2.2-2.3-2.8-5.9-.5-3-1.3-4.6-3-6.3-2.3-2.4-2.3-17.4 0-18.7 1.2-.7 2.5-3.2 3-6l.6-3.4c.3-1 2.1-3 3-3.4.7-.2 1.2-1.1 2-3.3 1.6-4.8 1.7-5 3-5.7 1-.5 1.6-1.2 2.6-3.7 1-2.2 1.6-3.3 2.3-3.7 1.2-.6 3-4 3.6-7 .4-1.8.8-2.5 2-3.4 2-1.7 2.7-3.8 3.5-11.9.3-3.2.5-4 1.4-5.3.6-.9 1.2-2.4 1.4-3.5l.7-4c.2-1.1.6-8.6 1-16.6.7-17 .5-15.8 2.4-17.8s3.2-4.7 3.2-6.3c0-2 .6-2.6 3.1-4 1.5-.8 2.4-1.5 2.4-2 0-1.5 1.9-2.7 6.4-4 .4-.2 1.3-.9 2-1.6 1.8-2 2.9-2.4 6.6-3.2 3.6-.8 5.2-1.4 5.2-2 0-1 2.8-2.4 5.9-3 1.8-.3 3.7-.6 4.2-.8.5 0 1.6-.9 2.4-1.7 1.4-1.4 4.8-3 8.3-3.7.6-.1 1.5-.8 2.1-1.7.7-1 1.7-1.8 3-2.4 1-.5 2.4-1 2.8-1.3.5-.2 1.7-1.1 2.6-2l3.2-3.2a38 38 0 005-5.4l3.3-4c1-1 2.2-2.7 2.6-3.5.4-.9 1-1.7 1.5-1.8 1-.4 2.6-2.1 3.4-4 .5-1 1.3-1.9 2.5-2.6a7.4 7.4 0 002.7-3c.9-1.6 2.6-3 3.8-3 .7 0 1.9-1.3 1.9-2 0-1 1.2-1.8 4.4-2.7 3.7-1 4.7-1.5 6.2-3 2-2 9-2.5 15.4-1.3m53.5 4.5c1.2 1.2.8 1.6-2.3 2-5.2.8-18 .3-18-.7 0-2 18.3-3 20.3-1.3m-97.5 16.3c0 1.5-1.6 4.1-2.7 4.1-1.7 0-2.4-.8-2.2-2.5.4-3.7 4.6-5 4.9-1.6M94.8 32c0 .5.3 1 .6 1.1.4.1.5 0 .2-.2-.3-.1-.6-.6-.7-1-.2-.7-.2-.6-.1.1m202.5 1.6c1.1 2.8 1 3.5-1 3.5-2.4 0-3.5-1.2-3.2-3.4.4-2.5 3.3-2.5 4.2-.1m4.7 4.4c1.4 1.4 2 4.3.8 4.7a3.6 3.6 0 01-4.6-4.6c.3-.8 3-.8 3.8-.1m-212.7 1c0 .8 0 1.1.2.7v-1.3c-.1-.4-.2-.1-.2.6m225.5 4.8c-.2 3 .1 3.3 4 3 2.7-.3 3-.5 2.5-2-.2-.6-.2-1.3-.1-1.5.6-1-1.7-2.3-4-2.3l-2.3.1-.1 2.7M74.4 46.3c-1.3.4-1.8 5-.5 5.3l1.4.6c.3.2 1 .4 1.3.4.4 0 1 .3 1.3.6 1.3 1.2 2-.3 1.9-3.8-.1-1.8 0-3.1.2-3.2.7-.3-4.5-.1-5.6.1m248.7.5c-1.6 6 2.1 8.6 8 5.8 2.4-1.2.4-1.8-3.3-1-.8.2-1-2-.1-2.9.3-.4.3-.5 0-.2-.3.1-.5 0-.5-.4 0-.3.2-.6.6-.6.3 0 .5-.2.3-.4-.2-.3-.1-.4.2-.2.8.5 2.4.6 2.3 0-.1-.2-.6-.3-1.1-.2-.8 0-.9 0-.4-.3s.3-.4-.7-.4-1.2 0-1 .6c.2.7.2.7-.3 0-1-1-3.7-.9-4 .2m8.2.3c.1.3-.1.8-.4 1.2-.8.9 0 1.5.8.7.5-.4.6-.4.4 0-.2.2-.1.5.1.5.5 0 .6-1 0-1.4-.2-.1-.2-.5 0-.9 0-.4 0-.5-.3-.3h-.5c-.1-.2-.1-.1 0 .2m-1.9 1.3c0 .4-.1.6-.3.5-.2 0-.3.2-.4.6 0 .8 0 .8.5.1.6-.7.6-.7.3 0-.1.5 0 .7.2.5.2-.1.5 0 .5.1.1.3.7.5 1.3.7.8 0 1 0 1-.4-.2-.2-.7-.5-1.2-.5-.6 0-1-.3-1.4-1.1-.3-.8-.5-1-.5-.5M59.7 51.7H61c.3-.1 0-.2-.7-.2-.8 0-1 0-.7.2m3.3 0c-.2.1-.3 1.5-.3 3v2.7l-3-.3c-2.5-.1-2.8 0-2.4.4 1.7 2 7 3 8.4 1.6.7-.7 1.1-6 .5-6.9-.3-.5-2.8-1-3.2-.6m272.7 0c-.5.2-.6.8-.5 3.6.2 4.8 1 5.3 5.4 3.2l2.5-1.2V55c0-2.3-.4-3.5-1-3-.3 0-.6 0-.7-.2-.2-.4-4.4-.5-5.7-.1M347 60c.1 4.8 1.1 5.5 5.5 3.4l1.6-.8v-2.2c0-3-.6-3.5-4.4-3.5h-2.8l.1 3.1M46 60.4c0 .7.1 1 .2.7v-1.4c0-.4-.2 0-.2.7m328 24.2c-.7.6-.6 1.2 0 1 .4-.2.7 0 .8.2 0 .2.2.1.4-.2.2-.5 0-.7-.4-.7-.3 0-.4-.2-.3-.4.3-.5 0-.5-.5.1m-1 1.8v.5c.1.2-.4.3-1 .2h-.3c.3.1.5.4.4.6-.2.3 0 .3.5 0 .6-.3 1.1-1.6.7-1.6-.1 0-.2.1-.2.3m1.4.7c.7.5.7.6 0 .4-.4-.2-.6 0-.6.4 0 .6 1.3.1 1.8-.7.2-.3.1-.4-.1-.2-.3.1-.6 0-.7-.1a1 1 0 00-.7-.4c-.2 0-.1.2.3.6M9.7 154.6c0 .2-.3.3-.6.1-.5-.1-.6 0-.4.4.1.4 0 .7-.1.7-.6 0-.5 4.8 0 5.4.3.3 1.7.4 3.5.4s3.1-.2 3.4-.4c1-1 .2-4.6-1.4-6.3-.6-.7-4.4-1-4.4-.3m378-.1l.5.8c.5.6.6.6 1 0 .3-.3.7-.5 1-.4.3.1.5 0 .3-.2-.2-.4-2.4-.6-2.7-.2m2 1.3c0 .2 0 .3-.3.2a.4.4 0 00-.6.1c0 .2 0 .5.4.6.3.1.6 0 .6-.1 0-.2.4-.3 1-.2.5 0 .9-.1.8-.3-.2-.6-1.8-.8-1.8-.3m-3.4 1.3v1.1c.1.3.2.3.2-.2 0-.3.2-.6.4-.6.3 0 .4-.2.4-.4 0-.6-.7-.5-1 .1m3.4.5c-.3.6-.4.6-.4.1 0-.3-.2-.2-.4.3-.2.6-.2 1.3 0 2 .2.5.4 2.5.4 4.5 0 4.3-.1 4.1 4 4.1 3.2 0 3.8-.3 3.8-2.3 0-.7-.3-.8-2.7-.8h-2.7l-.2-3c0-3 0-3-1.1-3-.6.1-1.1-.1-1.3-.4-.1-.5.1-.6 1.2-.4 1.4.1 1.4 0 .7-.4-.4-.4-.7-.8-.6-1 .1-.6-.3-.4-.7.3m-2.4.5c.4.3.3.4-.3.6-.7.2-.7.4-.3.8.3.3.6.4.9.1.3-.2.5-.2.6.2.1.2.2 0 .2-.7 0-1-.3-1.2-.9-1.3-.5 0-.6 0-.2.3m7.4 2c0 .2.3.3.6.1.7-.2 1.3.6 1.5 2l.2 1.2v-1.2c0-.7-.2-1.6-.5-1.9-.7-.7-1.8-.8-1.8-.2m-229 1.4c-2.4.4-5.7 1.5-6.6 2.3-.5.5-2.3 1.4-4 2.1-3.6 1.5-4.7 2.4-5.7 4.3-.5.8-1.3 1.8-2 2.2-1 .7-3.5 4.9-3.5 6.2 0 .4-.4 2-1 3.6-1.5 4.3-1.7 7.9-1.7 26.8 0 20.7.3 22 4.8 24.4 3.6 1.8 12.4 0 12.9-2.6l.7-3.7c.4-1.6.7-4 .8-5.4 0-1.3.2-2.5.4-2.7.4-.4 18.4-.7 20.7-.3l1.7.2v2.6c0 2.4.5 6.2 1 8.6.2.8 2.4 2.5 4.7 3.5 2.7 1.2 9.1.4 11.3-1.4 2.2-1.8 2.1-1 2.1-23.7 0-28.8-.3-30.4-7.3-37.7l-.5-.9c0-.4-1.6-2-2-2l-1.8-1c-.8-.5-2.3-1.1-3.2-1.4-1-.3-2-1-2.6-1.5-1.7-2.1-12.6-3.5-19.2-2.5m-89 1.3c-2.4.5-6.5 4.2-7.1 6.2-.6 2-.6 55 0 59 .6 5 6.1 7.3 13 5.8 4-1 4.9-2.6 5-9.8.3-6.5 1.4-10 2.7-7.9.1.2 1.1.5 2.2.6 1.5.2 2.1.5 2.6 1.2.3.6.8 1 1 1 .3 0 .9.7 1.3 1.6.4.8 1.2 1.9 1.7 2.3.6.4 1.3 1.4 1.5 2.2.5 1.8 3 4.4 4 4.4.4 0 1 .4 1.2 1 2.8 5.2 18.3 5.7 20.2.7 1.8-4.7.6-9.4-2.6-11.1-1.2-.6-2.5-1.6-3-2.2a6.1 6.1 0 00-2.7-1.6c-4.5-1.3-5-8-.8-10.1 1.4-.7 3.6-5 4-8 .2-1.7.7-3 1.4-3.9 1.4-1.9 1.5-7.9 0-10a11 11 0 01-1.3-4c-.5-2.6-2.6-7.3-3.4-7.3-.7 0-3.1-2.1-4-3.6-.9-1.4-4.3-3-8.6-3.8-1.5-.3-3.1-1-3.9-1.5a83.5 83.5 0 00-24.4-1.2m153.9 0c-3.5.3-7.2 2.6-8.7 5.5l-.9 1.7.1 29.2c.1 33.6 0 31.5 3.5 33.4 2.9 1.5 4.7 1.8 8.1 1.3 6.9-1 7.5-2.3 7.6-14.8 0-11.5-.7-10.7 11.9-11.1 13.5-.5 15.2-1.3 15.2-7.3s-1.8-7-13.7-7.3c-14.3-.3-13 .3-13.3-6.8V181l2.6-.5c1.6-.3 6.4-.5 11.4-.5 8.5 0 9.8-.2 12.6-1.6 5.3-2.5 5.7-10.7.6-13.2a8 8 0 01-1.8-1.2c-.4-.4-1.3-.9-2-1-1.9-.2-30-.5-33.2-.2m56.6-.1a26 26 0 00-3 .3c-1 .3-5.5 4-5.5 4.6 0 .3-.6 1-1.2 1.6-1.4 1.4-1.4 1.7 0 3.4.6.7 1.1 1.8 1.2 2.3 0 3.2 3.2 4.6 11.6 5l8.2.7 1.7.3v22.4c-.1 31-.2 30.4 7.5 30.9 5.6.3 8.4-1.6 9.6-6.4.8-3 1-41.6.3-44.5a22 22 0 01-.4-1.9c0-.6 4-1.2 9.8-1.4 8-.3 10.5-1.6 10.5-5.2 0-.5.3-1.4.8-2 1-1.6 1-2.7 0-3.6-.5-.4-.8-1-.8-1.4 0-.4-1-1.7-2-2.8l-2.1-2-9.6-.3c-9-.3-32-.3-36.6 0m-109.4.7a246 246 0 008.5 3.4c5 2 8.4 5.4 11.8 12 2 4 2.7 12.5 2.5 33.3-.2 18.3-.3 19-4.8 20-7 1.5-9.3-.7-9.7-9.6-.1-2.5-.3-3.6-.7-3.6l-2-.8a69 69 0 00-24.6.5c-.8.4-.9.7-.9 3.3 0 7.9-1.2 9.9-6.6 10.4-4.3.5-6-.8-7-4.9-.7-3.3-.3-41.4.5-44.5 1-4.1 2-6 3-7.2.7-.5 1.2-1.2 1.2-1.5 0-1.2 4.7-6.3 5.8-6.3.3 0 1-.3 1.4-.5.4-.3 1.8-1 3-1.4 1.4-.5 3-1.3 3.9-1.7 2.8-1.5 11.2-2 14.7-1m-80.2 2.2a68 68 0 0112 3c2 1 8.2 7.5 8.8 9.2 4.2 11 2.9 20.9-3.8 27.8l-2.8 2.9.1 2c.3 3.9 2.3 6.2 8.8 10 4.4 2.6 5 3.5 4.5 7-.8 4.4-2.2 5.3-8.4 5.3-4.8 0-7-.7-8.7-2.4a25.3 25.3 0 00-3.9-3.3c-.5-.4-1.1-1-1.4-1.6a32 32 0 01-2.7-5.5c-.1-.6-.5-1-.7-1-.6 0-4.4-3.5-4.6-4.3-.3-.7-5.7-1.5-6.4-1-1.4 1-2.6 5.4-2.4 8.3.5 8-3.4 12.3-9.6 10.3-4.9-1.6-4.6-.1-5-33.6-.2-32.5-.5-30.2 5-32.9 1.3-.6 16.3-.8 21.2-.2m166.5.4c4.5 2.2 5.6 4.7 3.6 8-2.3 4-2.8 4-13 4.1-9.6 0-13.4.5-15.3 2l-1.2.9v5.7c0 7.6.2 7.8 13.3 7.8 10.2 0 13.2 1.3 13.7 6 .5 5.1-1.5 6-14.6 6.4-13.3.4-12.4-.5-12.4 11.5 0 11.1-.7 12.8-5.5 13.8-7 1.5-9.1-1.2-9.2-11.7v-28l-.2-22 1-1.2c.4-.8 1.8-2 3-2.7l2-1.4h16.7c15.7 0 16.6 0 18 .8m69.1-.2c3.8 2 4.6 5 2.5 9-1.7 3.2-1.8 3.3-8 3.3-4.5 0-6 .1-8.2.8-4.6 1.5-4.2-1.2-4.1 24.5 0 21.8-.2 26.2-1.3 27.6-1.3 1.7-6.7 2.2-9.2 1-3.1-1.7-3 0-3-27l-.2-24-1-1c-1.4-1.3-5-2-11.3-2-6 0-7.2-.5-8.8-4.7l-1-2.7 1-1.5a7.3 7.3 0 014.7-3.3c2.8-.8 46.5-.8 48 0M.6 176.3h1.5c.4 0 0-.2-.8-.2-.9 0-1.2.1-.7.2m168.4.8c-.4.3-1.5.7-2.4 1-2 .4-5 2.5-5.2 3.7a11 11 0 01-1.3 2.4c-1.8 2.8-3.3 18.8-1.7 19.4l.8.5c1.6 2.4 25.3 1.5 27.1-1 1-1.3-1.2-16.7-2.9-20.4-.8-1.9-1.1-2.1-5-4.2-3.5-1.8-7.8-2.5-9.4-1.4m-81.4 2.5l-1.6 1.7v16.5l1.4 1.4c3 2.8 15.7.8 15.7-2.4a7 7 0 011.3-2.3c1.1-1.4 1.4-2.1 1.6-4.6.3-3.2.1-3.7-1.8-6.1a5.3 5.3 0 01-1-2c0-.4-.4-.8-.8-1l-1.6-.9c-1-.6-4.3-1.3-9-1.7l-2.6-.3-1.6 1.7m89.4.4a5 5 0 001.8.7c1.3 0 2.6 1.8 3.4 4.5 1 3.5 1.8 17.7 1 18.2-1 .7-3.4.8-12.2.6-11.2-.3-11.6-.4-11.3-2 .2-.7.4-3.1.5-5.5a31 31 0 011.3-8.2c1.1-6.2 2.4-8 5.9-8.6 1 0 2-.3 2.2-.5 1-.5 6.1 0 7.4.8m-79.4.5l2.8.4 1.5 3c1.7 3.4 2 8 .5 10-.4.4-1 1.5-1.2 2.4-.7 2-1.1 2.2-7 2.6-6.8.4-6.3 1.1-6.3-9.3 0-10.6 0-10.7 9.7-9.1M0 215.4v3.5h1.3c1.7 0 1.8-.2 2-3 .3-3-.2-4-2-4H0v3.5m9.6 13.1l-1.5.2.1 2.9c.2 3.4.4 3.6 3.5 3.6H14l.7-1.6c1.3-3 1.4-3.7.7-4.3-.8-.7-3.3-1-5.7-.8m11.6 20.3l-1 .3c-.9 0-1 .2-1 3.1-.2 3.7.2 4.2 3.2 4.6l2 .3.7-2c1-2.8 1-5 0-5.6-.8-.5-3.6-1-3.9-.7m358.7 9.4c-.3.6.2 1 .7.5.2-.2.3-.5 0-.6-.2-.2-.5 0-.7.1m-1.4.3c-.5.2-.6.5-.3.9.3.5.4.5.8 0 .3-.5.5-1.2.3-1.1l-.8.2m.4 1.6c-.4.5 0 .6 1.1.5.3 0 .5.1.5.4 0 .2-.1.3-.3.2-.2-.1-.3 0-.3.3 0 .5.1.5.5.2.8-.6.5-2.1-.4-2.1-.4 0-.9.2-1.1.5m-.4 1c-.2.9-.2 1.4.2 1.3.6-.2.8-1.4.3-1.4h-.5M30.4 307.8c.5.3.5.4 0 .4s-.5 0 0 .4c.3.2.4.4.2.4-.6 0-.6 5 0 5.7l.9 1c.4.6.6.6 1 .2.5-.3.6-.3.8.2.2.4.6.6 1 .6.7 0 1.2 1.9 1.3 4.3 0 .5.6.6 2.4.7l2.4.1.3 1.9.2 2.4c.2 1 .8 1.2 4 1.2h3.2l-.2-2.9c-.2-3.2-.8-4.1-2.3-4.1-1.4 0-3-1.6-3.3-3.3-.3-1.7-1.1-2.2-3.5-2.2-2.3 0-2.9-.8-3-3.6-.1-2.5-.4-2.8-2.8-3-.9 0-1.5 0-1.5.4 0 .2-.1.3-.4.2-.2-.2-.2-.5 0-.8.3-.3.2-.5-.4-.5-.7 0-.8 0-.3.3m316.4 18c-.9 1-1 1.3-.9 4l.1 2.9h3.5c2.8 0 3.4-.2 3.4-.7 0-.5 0-.5.3-.1s.4.4.6-.2c.4-1 .3-2.3-.2-2.8-.3-.3-.4-.5 0-.5.6 0 .8-1.3.2-1.8l-.6-1c-.4-1-5.3-.8-6.4.3m-12 4.7c-.4.4-.6 1.4-.7 2.8v3.3c-.1 1 0 1.1 1.1 1.3 2.4.5 2.6.3 2.6-2.7 0-1.8 0-2.6.4-2.5 1.6.1 4.5-.1 4.5-.5 0-1.5-6.7-3-8-1.7M62.6 333c-.1.2 0 .4.2.4.3 0 .4.2.1.5-.4.5-.5 1.8-.1 1.8 1-.1 1.6.1 1.6.8 0 .4-.2.8-.5.8-.4 0-.4.1 0 .5.6.6.8.3.9-1.5.1-1.8-.2-2.6-1-2.3-.3.1-.5 0-.5-.4s.2-.5.5-.4c.3 0 .6 0 .8-.2.1-.2-.2-.4-.8-.4-.5 0-1 .2-1.2.4m3 0c.3.3.4.4 0 .4-.2 0-.5.2-.5.4s.3.4.5.4c.3 0 .7.3 1 .8.8 1.2 1.1.9 1.1-.8 0-1.5 0-1.6-1.4-1.6-1 0-1.2.1-.8.4m-1.2 1.8c-.2.4-1.1.6-1.1.2 0-.4.9-.8 1.1-.6v.4m.8.9c0 .2.4.3 1 .1.8-.2.8-.2-.2.6-.8.7-.9 1-.4 1.4.5.4.5.3.3-.3-.3-.8-.2-.8.3 0 .3.4.6.5.8.2.1-.2.5-.3.7-.2.3.2.1 0-.3-.6-.4-.5-.7-1-.6-1.1.1-.1-.2-.3-.7-.4-.5 0-.9 0-.9.3m12.9.4l-2.5 1-2 .8-.1 2.4c-.1 3 .3 3.2 4.5 3.2h2.7v-3.2c.2-3.9-.7-5.1-2.6-4.2m-15.4.4c-.1.3-.2.6 0 .7.1.1.2 0 .2-.3s.3-.4.6-.2c.3 0 .6 0 .6-.2 0-.5-1-.5-1.4 0m278.7-.3c0 .7 1.5 1.4 1.7.8.2-.4.2-.5 0-.4-.1.2-.6.1-1-.1l-.7-.3m-20 2v3c0 1-.2 1.9-.4 2-.2.2.6.3 2 .2 1.3 0 2.5-.2 2.7-.4.2-.2 0-.3-.2-.1-1 .6-.4 0 .6-.7.6-.4.9-.5.6-.2-.3.3-.5.7-.5 1 0 .5 1.2-1 1.2-1.7 0-.3-.2-.5-.4-.3-.1 0-.3-.1-.3-.4 0-.3.1-.6.3-.6.2 0 .2-.3.2-.7l-.2-.9c0-.2-2.3-.8-3.6-.9-.1 0-.4-.1-.5-.3-.7-.7-1.4-.2-1.4 1m-10 6c-.6.6-.6 1 0 1.6.4.3.6.8.5 1.3-.1.4 0 .7.2.7s.3.2.1.5c0 .3.1.5.4.5.4 0 .6 0 .6-.3 0-.1.4-.2.8-.1.5 0 .7 0 .6-.2-.1-.2 0-.4.1-.4.3 0 .5.2.6.5.1.3.2.3.4 0s.1-.5-.1-.5a.4.4 0 01-.4-.4c0-.2.2-.3.4-.1.3.1.4 0 .2-.2-.1-.2 0-.5.2-.7.5-.3.5-1.7 0-1.7-.3 0-.4.3-.3.8.1.5 0 .7-.3.5-.2-.1-.3-.1-.1 0 .4.5-.5 1.4-1.1 1.2-.3-.2-.6-.4-.6-.6 0-.3.3-.3.6-.2.3.1.7 0 .8-.5.5-1.6-2.5-3-3.6-1.8m2.4.6c-.1.2-.5.4-.8.4-.3 0-.5.3-.5.6 0 .6 0 .6.6 0 .7-.7 1.7-.8 1.7-.2 0 .2-.1.3-.3.3-1.3-.2-1.8.9-.6 1.6l.5.4c-1.3.3-1.5.3-1.3-.2.2-.4 0-.6-.3-.5-.3 0-.5-.3-.6-1.3 0-.8.1-1.4.3-1.3.2.1.4 0 .6-.2 0-.2.4-.3.6-.2.2.2.2.4.1.6m-10.9 3.2c.7 2-1.5 4.5-3.7 4.1-1.4-.2-1.6-2.7-.3-4 1.2-1.3 3.7-1.4 4-.1m-5.5 6.4c-.1 2.6-.7 3.3-2.6 3.2-2-.2-2.6-2.4-1-4.1 1.6-1.7 3.7-1.2 3.6 1m-202.6 1.8c0 1 .2 1.3.8 1.5.4 0 .7 0 .7-.2 0-.3.2-.2.6 0 .5.5.5.4.3-.1-.1-.4-.5-.6-1-.5-.3.1-.8 0-.9-.2-.1-.2.2-.3.7-.3 1 0 1.9-1.2 1-1.2l-1.3-.2c-.8-.1-.9 0-.9 1.2m3 1c.7 1 .9 2.2.3 2.2-.3 0-.5-.2-.4-.5.1-.2 0-.4-.4-.4-.7 0-.7 0-.4.8.2.4.8.6 1.8.6 1.2 0 1.4-.1 1.2-.6-.1-.5-.3-.5-.5-.2s-.3.3-.5-.2c-.1-.4-.2-.8 0-1 0 0-.3-.4-.8-.7-.7-.5-.8-.5-.4 0m14.5 1c1 1 1.2 1.9 1.2 3v1.4h-1.7c-2 0-3-.9-3.2-3.3-.4-3 1.7-3.5 3.7-1m-11.7 3.4c-.5.4-.3 1.8.2 2.6.6.7 1.3.8 1.6.3.2-.3 0-.3-.3-.2-.8.3-1.5-.8-1.3-2 .2-1 .2-1.1-.2-.7M208.6 376c2 1.9-12.5 3.1-14.6 1.3-1-1-1-1.3 0-1.6 1.5-.3 14.3 0 14.6.3m78 .8c-.2.4-.2.6 0 .4.2 0 .5 0 .6.3 0 .3.1.1.1-.4 0-1-.5-1.1-.8-.3m.1 1.5c-.2.5-.2 3 0 3 .3 0 .4-.3.4-.6s.3-1 .6-1.5c.6-.8.5-.9-.2-.9h-.8m2 .8l-.1.6-.4.7a1 1 0 00-.3.6c0 .2.3 0 .6-.3.4-.3.6-.9.5-1.2-.1-.4-.2-.6-.3-.4m-23.1 6c-.4.3-.7 1.2-.7 2.5v1.9h8.2v-1.7c0-3-5.4-4.9-7.5-2.8"/></g></svg>