<svg version="1.1" id="Layer_1" xmlns="http://www.w3.org/2000/svg" x="0" y="0" viewBox="0 0 650 150" xml:space="preserve"><style>.st0{fill:#3a2d55}.st2{fill:#fff}</style><path class="st0" d="M202.1 68.1c0-4.6 5.3-6.3 9.1-6.3 3.3 0 7.6 1.3 9.8 4.1l9.3-10.2a27.8 27.8 0 00-18.9-6.4c-12.1 0-23.5 6.9-23.5 20 0 20.5 28.9 14.4 28.9 25.7 0 4.3-5 6.4-9.4 6.4-4.5 0-9-2.2-11.8-5.8l-9.6 10.6a29.2 29.2 0 0020.7 7.7c12.7 0 23.7-6.5 23.7-20.3.1-21.5-28.3-14.2-28.3-25.5M273.9 81.6c0-11.5 7.6-19.8 17.8-19.8 5 0 9 1.8 11.7 5l10.4-8.5c-5.2-6.7-13.9-9-20.8-9-19.2 0-33.2 12.6-33.2 32.3s14 32.3 33.2 32.3a27 27 0 0022.3-10.7L304 94.8a14.7 14.7 0 01-12.7 6.6c-9.8 0-17.4-8.3-17.4-19.8M374 86.1l23.1-35.3h-16l-13.9 23.1-13-23.1h-16.9l23.1 35.3v26.3H374zM424.8 112.4h38.7V99.9h-25.2V50.8h-13.5zM494.1 112.4h38.7V99.9h-25.2V50.8h-13.5zM621.1 112.4l-26.8-61.6h-11.2l-26.6 61.6h15l5.1-13 4.3-11.5 7.4-19.2 7.6 19.2 4.6 11.5 5.3 13z"/><g><path d="M85.3 6.8C53 6.8 30 27.1 30 56c0 13.8 14.4 81.4 14.4 81.4a8 8 0 008.9 6.1c.9-.2 1.8-.5 2.5-.9h.6a8 8 0 008.7-.5l1.8-.1a7.8 7.8 0 0010.4-.6l3.1-.2a7.9 7.9 0 0011.4.1l3.2.2c1.2 1.2 2.8 2 4.6 2.2 2.1.2 4.1-.4 5.7-1.6l1.9.1c.9.7 2 1.2 3.2 1.4 1.7.3 3.3 0 4.8-.7a7.8 7.8 0 0010.9-5.5s14.4-67.5 14.4-81.4c0-28.9-23-49.2-55.2-49.2z" fill="#57d1e5"/><circle class="st2" cx="67.4" cy="51" r="24.6"/><path class="st0" d="M67.4 77c-14.3 0-26-11.7-26-26s11.7-26 26-26 26 11.7 26 26-11.7 26-26 26zm0-49.3c-12.8 0-23.3 10.5-23.3 23.3s10.5 23.3 23.3 23.3S90.7 63.8 90.7 51 80.3 27.7 67.4 27.7z"/><path class="st0" d="M72.5 34.8c-4.2.9-5.1 10.2-2.5 12.8 1.7 1.7 5.1 2.2 5.1 3.4 0 1.2-3.4 1.7-5.1 3.4-2.5 2.5-1.7 11.9 2.5 12.7 5.1 1 12.7-5.1 12.7-16.1s-7.6-17.2-12.7-16.2z"/><path class="st2" d="M55.3 84.6c.8 2.5 3.6 7.4 7 6.5 1.6-.4 2.5-2.5 2.5-5.9M77.6 82.4c.8 3.4 1.7 5.9 4.2 5.9s5.9-3.4 5.1-9.3"/><path class="st0" d="M99 70.7a7.6 7.6 0 00-4.2-2.3h-.1c-.7-.1-1.4.5-1.4 1.2s.5 1.4 1.2 1.4l2.1.6a67.2 67.2 0 01-46 10.6c-.6-.1-1.2.3-1.3.9-.1.6.3 1.2.9 1.3l3.8.5v.1c1.1 3.2 3.9 7.6 7.5 7.6l1.1-.1c1.3-.3 3.6-1.7 3.6-7.2v-.2c3.2-.3 6.3-.7 9.4-1.5l.9-.2c.7 2.9 1.8 6.5 5.4 6.5 1.5 0 3.1-.8 4.3-2.2 1-1.2 2.7-3.9 2.1-8.3 3.5-1.6 6.9-3.5 10.2-5.7.3.5.6 1.1.7 1.7.1.4.5.7 1 .7s.9-.5.8-1a7.8 7.8 0 00-2-4.4zM63.5 85.2c0 2.6-.6 4.4-1.5 4.6-2 .5-4-2.5-5-4.7l6.5.1c0-.1 0-.1 0 0zm20.6.5c-.7.8-1.6 1.3-2.3 1.3-1.3 0-1.9-1.1-2.8-4.5a53 53 0 006.7-2.3c.1 2.3-.4 4.2-1.6 5.5z"/><g><path class="st0" d="M126.4 19.7A60.7 60.7 0 0085.8 5.6c-16 0-30.4 5-40.6 14.1a48.1 48.1 0 00-16 36.5c0 13.8 13.8 78.9 14.4 81.7 1 4.3 4.7 7.2 9 7.2l1.5-.1c.9-.1 1.7-.4 2.5-.8a9 9 0 009.5-1.1c1 .8 2.1 1.4 3.4 1.7 2 .5 4.2.3 6.1-.5a9.7 9.7 0 003.4-2.6 9.5 9.5 0 004.7 3.1 10.7 10.7 0 005 0 16 16 0 002.3-1c.7-.4 1.4-1 1.9-1.6l.4-.5c1.4 1.8 3.5 3 5.8 3.3a9 9 0 007-1.9c1.1.9 2.4 1.5 3.7 1.8 1 .2 1.9.3 2.9.1.9-.1 1.7-.3 2.5-.7l2.2.7c4.8.8 9.4-2.3 10.5-7.1.6-2.8 14.4-67.8 14.4-81.6 0-14.4-5.6-27.4-15.9-36.6zm-1.1 117.6a6.6 6.6 0 01-7.1 5.1 9.9 9.9 0 002.6-4.8l.4-2.5 1.6-9.9 1.5-9.9c.1-.5-.2-.9-.7-1a1 1 0 00-1.1.7l-2 9.8-1.9 9.8-.5 2.4c-.1.7-.4 1.3-.7 1.9-.3.6-.8 1.1-1.3 1.6s-1.1.9-1.7 1.1c-.6.3-1.3.5-2 .5a6.6 6.6 0 01-4.4-1.1c.6-.9 1.1-2 1.4-3.1l.2-.8.1-.4v-.4l.1-1.4.3-2.9.6-5.8 1-11.6a1 1 0 00-.8-1c-.5-.1-.9.3-1 .8l-1.6 11.5-.7 5.8-.4 2.9-.4 2.7a6.6 6.6 0 01-2.7 3.8c-1.3.9-3 1.2-4.6 1-1.6-.2-3-1.1-4.1-2.3l-.7-1 .3-1.2c.2-.8.2-1.7.2-2.4l.1-4.3.1-8.6v-8.6c0-.5-.4-.9-.8-.9-.5 0-.9.3-.9.8l-.5 8.5-.4 8.5-.2 4.3-.1 1-.1.9a6.4 6.4 0 01-6.4 5.1l-1.7-.2c-.6-.1-1.1-.4-1.6-.7-1-.6-1.8-1.5-2.4-2.5-.3-.5-.5-1.1-.6-1.6l-.2-1.9-.2-4.3-.4-8.5-.5-8.5c0-.5-.4-.8-.9-.8s-.9.4-.9.9v8.6l.1 8.6.1 4.3c0 .7 0 1.6.2 2.4l.4 1.3a6.5 6.5 0 01-12.1-2.3l-.1-.6-.1-.7-1.3-10.5-1.5-10.5c-.1-.5-.5-.8-.9-.8-.5 0-.9.5-.8 1l.9 10.5 1 10.5.1.7.1.7.3 1.5a9 9 0 001.2 2.4c-.8.5-1.6.9-2.6 1.1a7 7 0 01-4-.5 6.5 6.5 0 01-2.9-2.8c-.3-.6-.6-1.2-.7-1.9l-.5-2.4-1.9-9.7-2-9.7c-.1-.4-.5-.8-1-.7a1 1 0 00-.8 1c.4 3.3.9 6.6 1.5 9.8l1.6 9.8.4 2.4a8.3 8.3 0 002.5 4.8l-.3.1a6.4 6.4 0 01-7.4-5c-.1-.7-14.4-67.6-14.4-81.1 0-13.6 5.3-25.8 15.1-34.5a59 59 0 0139-13.3c15.3 0 29.1 4.8 38.8 13.5a45.6 45.6 0 0115.1 34.5c0 13.4-14.3 80.3-14.4 81z"/></g></g></svg>